<?xml version="1.0" standalone="no"?>
<!DOCTYPE svg PUBLIC "-//W3C//DTD SVG 20010904//EN"
 "http://www.w3.org/TR/2001/REC-SVG-20010904/DTD/svg10.dtd">
<svg version="1.0" xmlns="http://www.w3.org/2000/svg"
 width="900.000000pt" height="900.000000pt" viewBox="0 0 900.000000 900.000000"
 preserveAspectRatio="xMidYMid meet">
<metadata>
Created by potrace 1.10, written by Peter Selinger 2001-2011
</metadata>
<g transform="translate(0.000000,900.000000) scale(0.100000,-0.100000)"
fill="#000000" stroke="none">
<path d="M3994 8629 c-161 -78 -245 -251 -200 -414 34 -123 95 -187 213 -223
l57 -18 1 -138 c1 -159 6 -150 -100 -160 -113 -11 -197 -39 -353 -115 -111
-54 -183 -195 -119 -235 45 -28 174 -65 316 -91 128 -23 503 -23 635 0 166 30
318 72 364 101 57 37 3 156 -98 218 -96 59 -273 115 -395 124 l-90 7 0 150 0
150 40 10 c61 16 99 40 143 90 72 82 86 117 86 225 0 79 -3 103 -23 142 -36
75 -101 140 -175 176 -59 29 -74 32 -153 31 -76 0 -96 -4 -149 -30z m246 -120
c101 -43 158 -176 116 -272 -22 -51 -179 -197 -211 -197 -24 0 -51 16 -131 81
-55 45 -77 70 -90 104 -20 54 -15 125 14 182 55 106 188 151 302 102z m-67
-880 c12 -7 34 -22 49 -35 15 -12 54 -28 85 -34 139 -28 267 -72 301 -103 47
-43 29 -56 -123 -88 -75 -15 -152 -22 -310 -26 -186 -5 -225 -3 -339 17 -150
25 -153 26 -167 52 -9 17 -6 24 17 44 36 28 85 46 241 88 72 19 132 41 145 53
25 22 58 42 71 43 5 0 18 -5 30 -11z"/>
<path d="M4790 7177 c-26 -23 -191 -68 -336 -92 -139 -22 -509 -22 -649 0
-117 19 -208 41 -250 61 -103 47 -115 41 -115 -59 0 -67 -19 -200 -42 -297 -6
-25 -14 -61 -18 -80 -10 -53 -55 -141 -95 -187 -39 -46 -115 -99 -205 -144
l-60 -30 0 -72 c0 -40 7 -103 15 -142 8 -38 15 -83 15 -99 0 -16 6 -55 14 -85
7 -31 21 -90 31 -131 9 -41 23 -95 30 -120 7 -25 21 -71 29 -102 39 -139 49
-175 61 -208 30 -85 67 -197 75 -225 4 -16 18 -55 30 -85 12 -30 26 -68 31
-85 5 -16 13 -39 18 -50 23 -52 86 -226 101 -280 9 -33 36 -108 49 -140 4 -11
23 -67 41 -125 17 -58 38 -123 45 -145 7 -22 20 -67 30 -100 10 -33 24 -78 31
-100 8 -23 14 -50 14 -60 0 -11 6 -40 14 -65 41 -130 71 -341 91 -635 18 -269
19 -487 5 -797 -6 -123 -15 -356 -20 -518 -9 -284 -13 -368 -45 -950 -25 -449
-26 -478 -14 -486 41 -25 1067 -6 1089 20 5 7 5 40 0 81 -5 39 -10 149 -10
245 -1 96 -5 229 -10 295 -5 66 -14 255 -20 420 -5 165 -14 368 -20 450 -12
192 -12 1397 0 1490 6 39 12 99 15 135 6 72 30 221 47 290 6 25 14 63 19 85
13 65 30 137 44 190 8 28 21 79 30 115 9 36 23 80 31 98 8 18 14 41 14 52 0
11 6 34 14 52 7 18 21 60 31 93 9 33 23 75 31 93 8 18 14 41 14 52 0 11 6 34
14 52 7 18 21 60 30 93 10 33 23 80 30 105 45 155 49 170 89 335 8 33 21 83
27 110 7 28 15 64 17 80 2 17 10 59 18 95 29 137 39 221 65 530 l11 135 -28
22 c-15 13 -34 23 -40 23 -30 0 -162 79 -208 125 -47 47 -91 123 -124 215 -29
81 -50 201 -70 400 -5 60 -8 65 -31 68 -14 1 -32 -3 -40 -11z m-58 -184 c8
-10 23 -52 33 -93 32 -133 57 -224 76 -272 42 -107 155 -237 272 -311 32 -21
62 -48 67 -63 36 -93 -16 -499 -112 -874 -27 -107 -54 -213 -59 -235 -6 -21
-21 -75 -35 -120 -14 -44 -30 -98 -36 -120 -6 -22 -32 -107 -58 -190 -59 -185
-102 -339 -134 -470 -75 -311 -86 -366 -113 -575 -16 -119 -18 -221 -18 -850
0 -672 4 -819 36 -1445 5 -104 12 -293 16 -420 7 -283 11 -273 -118 -286 -100
-9 -650 -12 -674 -3 -8 4 -22 19 -31 35 -15 30 -11 187 16 659 53 926 64 1841
26 2167 -23 190 -108 597 -137 655 -5 9 -15 40 -23 70 -31 116 -197 613 -231
693 -17 39 -92 248 -140 390 -30 87 -72 228 -95 320 -10 39 -30 115 -44 170
-29 109 -51 233 -61 337 -8 84 8 122 69 161 71 45 190 176 224 249 34 69 73
208 93 330 17 103 24 107 155 79 54 -12 174 -26 266 -33 203 -14 455 1 618 37
132 29 134 29 152 8z"/>
<path d="M5506 6292 c-2 -4 -4 -52 -3 -107 2 -98 -13 -263 -35 -400 -6 -38
-14 -95 -18 -125 -4 -30 -12 -75 -18 -100 -6 -25 -18 -81 -28 -125 -9 -44 -22
-102 -29 -130 -8 -27 -21 -79 -30 -115 -10 -36 -21 -76 -27 -89 -5 -14 -13
-43 -18 -65 -4 -23 -13 -54 -18 -71 -6 -16 -17 -52 -25 -80 -8 -27 -22 -77
-32 -110 -10 -33 -23 -76 -30 -95 -7 -19 -20 -62 -30 -95 -10 -33 -23 -78 -30
-100 -7 -22 -21 -67 -30 -100 -10 -33 -24 -75 -31 -93 -8 -18 -14 -40 -14 -49
0 -9 -6 -39 -14 -67 -33 -117 -76 -305 -76 -332 0 -12 -7 -38 -15 -57 -29 -71
-15 -89 81 -102 27 -4 71 -13 98 -21 140 -40 359 9 470 105 57 50 104 56 130
16 36 -54 11 -103 -84 -165 -77 -49 -153 -84 -226 -105 -103 -29 -334 -11
-451 36 -23 9 -36 10 -43 3 -7 -7 -11 -188 -11 -555 0 -538 8 -857 36 -1449 8
-168 17 -455 19 -638 2 -183 6 -336 9 -339 15 -14 527 75 702 122 227 61 251
83 226 204 -20 93 -68 264 -87 309 -8 18 -14 39 -14 47 0 8 -6 29 -14 47 -8
18 -31 74 -51 123 -33 80 -49 116 -99 230 -8 17 -35 75 -61 130 -114 244 -110
231 -109 390 0 102 4 152 16 185 9 25 24 72 33 105 10 33 22 71 28 85 5 14 13
39 17 55 5 17 18 55 30 85 12 30 25 66 30 80 5 14 18 50 30 80 11 30 30 82 41
115 11 33 27 74 34 90 7 17 21 50 30 75 21 55 43 105 61 143 8 16 14 37 14 46
0 10 3 21 6 24 10 10 54 120 54 134 0 7 6 27 14 45 8 18 21 51 29 73 8 22 22
59 31 83 62 162 93 251 106 297 5 17 19 62 33 100 13 39 32 97 41 130 10 33
24 80 32 105 8 25 14 52 14 61 0 9 7 30 15 45 8 16 15 36 15 45 0 8 6 35 14
60 19 60 41 141 62 219 36 141 46 177 60 220 8 25 14 55 14 68 0 13 4 31 10
41 5 10 14 43 19 72 5 30 15 77 21 104 6 28 18 82 25 120 8 39 22 105 31 147
25 117 17 247 -20 320 -52 103 -136 167 -306 233 -25 9 -56 22 -70 27 -14 6
-38 14 -55 18 -16 5 -55 18 -85 29 -30 12 -71 26 -90 30 -19 5 -60 19 -90 31
-30 12 -66 25 -80 29 -14 5 -55 22 -92 40 -70 32 -84 36 -92 23z m322 -242
c353 -119 432 -155 485 -222 15 -18 33 -39 39 -47 29 -34 15 -314 -21 -446 -5
-16 -17 -66 -26 -110 -10 -44 -26 -114 -37 -155 -26 -97 -75 -286 -98 -375
-10 -38 -27 -101 -39 -140 -11 -38 -44 -149 -72 -245 -54 -188 -70 -238 -119
-370 -17 -47 -36 -101 -43 -120 -7 -19 -19 -36 -28 -38 -9 -2 -44 24 -80 57
-65 62 -105 80 -151 66 -12 -4 -63 -27 -113 -51 -49 -24 -117 -50 -150 -59
-81 -21 -191 -20 -235 3 -31 15 -35 22 -38 62 -2 24 2 65 8 90 72 289 136 515
210 740 50 154 165 572 193 700 40 185 76 394 87 500 18 180 28 209 68 210 7
0 79 -22 160 -50z m-48 -2520 c0 -36 -38 -152 -79 -242 -35 -75 -93 -227 -156
-403 -171 -478 -188 -543 -188 -710 0 -161 19 -230 113 -420 16 -33 50 -108
75 -168 24 -59 51 -117 59 -130 8 -12 26 -58 42 -102 15 -44 33 -91 41 -105 7
-14 13 -32 13 -40 0 -8 8 -37 19 -65 10 -27 29 -91 41 -141 26 -105 19 -134
-35 -165 -26 -15 -152 -46 -325 -80 -30 -6 -71 -14 -90 -19 -74 -18 -164 -22
-183 -8 -19 14 -42 92 -32 108 6 10 -6 338 -32 895 -8 187 -18 626 -20 975 -6
758 -20 687 131 673 132 -12 249 0 339 36 86 34 164 75 192 100 22 20 56 40
68 41 4 0 7 -13 7 -30z"/>
<path d="M2760 6260 c-62 -31 -105 -48 -257 -104 -90 -32 -211 -79 -243 -93
-19 -9 -48 -21 -65 -28 -148 -62 -186 -80 -226 -109 -63 -46 -113 -126 -134
-213 -15 -63 -16 -82 -5 -150 24 -150 27 -168 40 -218 6 -27 18 -76 26 -107
30 -122 43 -174 91 -358 37 -140 66 -246 88 -315 6 -22 20 -67 30 -100 9 -33
23 -76 30 -95 7 -19 21 -62 30 -95 10 -33 23 -76 30 -95 7 -19 18 -51 24 -70
7 -19 16 -48 21 -65 8 -29 19 -62 46 -137 56 -154 103 -278 118 -313 8 -16 20
-48 29 -70 22 -58 77 -195 92 -230 7 -16 19 -48 28 -70 27 -72 59 -149 82
-200 24 -55 78 -187 102 -250 8 -22 20 -51 25 -65 6 -14 14 -36 18 -50 5 -14
18 -50 30 -80 62 -163 120 -375 120 -442 0 -35 -30 -165 -48 -208 -6 -14 -20
-50 -32 -80 -12 -30 -39 -91 -60 -135 -64 -134 -115 -250 -130 -295 -5 -14
-18 -50 -30 -80 -37 -97 -71 -207 -105 -340 -9 -36 -23 -88 -31 -116 -36 -129
-4 -157 241 -217 161 -40 196 -47 224 -47 16 0 56 -7 88 -15 31 -8 80 -15 108
-15 28 0 76 -4 106 -10 92 -17 233 -28 248 -20 11 6 15 52 18 236 2 126 8 297
14 379 6 83 14 251 19 375 5 124 13 286 19 360 10 143 26 726 26 970 0 80 -4
259 -9 398 l-9 252 -23 0 c-13 0 -25 -4 -28 -9 -3 -5 -39 -19 -78 -32 -63 -19
-95 -23 -228 -23 -137 -1 -162 2 -219 22 -223 80 -305 162 -236 236 33 36 72
34 126 -6 50 -37 90 -57 168 -83 70 -24 255 -24 355 0 146 34 148 36 123 117
-8 29 -23 82 -32 118 -46 184 -64 248 -90 320 -7 19 -36 109 -65 200 -29 91
-57 169 -62 174 -4 6 -8 19 -8 31 0 11 -6 29 -14 40 -7 11 -16 31 -19 45 -3
14 -15 50 -27 80 -12 30 -26 71 -32 90 -5 19 -14 39 -19 45 -5 5 -9 18 -9 28
0 10 -6 31 -14 45 -7 15 -23 56 -34 92 -12 36 -32 97 -45 135 -13 39 -32 97
-42 130 -9 33 -24 75 -31 93 -8 18 -14 40 -14 50 0 9 -6 37 -14 62 -8 25 -22
74 -31 110 -9 36 -23 88 -31 116 -8 28 -14 61 -14 73 0 12 -6 50 -14 84 -16
69 -45 270 -49 331 -1 22 -6 40 -12 42 -5 1 -35 -11 -65 -26z m-44 -185 c12
-8 24 -29 27 -47 55 -313 96 -476 207 -823 48 -149 118 -351 164 -475 69 -186
109 -298 114 -320 3 -14 11 -34 18 -45 8 -11 14 -28 14 -38 0 -10 18 -73 40
-140 44 -133 84 -278 95 -344 13 -84 -31 -108 -184 -101 -98 5 -130 15 -278
84 -97 45 -167 25 -240 -67 -59 -75 -53 -127 25 -226 86 -108 287 -190 482
-196 36 -1 104 2 152 6 l86 9 19 -28 c17 -26 18 -62 18 -574 0 -300 -6 -651
-13 -780 -7 -129 -15 -296 -17 -370 -3 -74 -7 -148 -10 -165 -3 -16 -10 -140
-15 -275 -14 -328 -19 -401 -32 -427 -16 -33 -59 -44 -136 -33 -155 21 -339
50 -372 59 -19 5 -63 15 -97 22 -96 20 -147 48 -153 84 -6 33 25 180 66 307
30 94 100 283 116 313 41 76 170 377 186 435 8 25 17 59 22 75 5 17 12 64 16
106 10 119 -26 275 -129 554 -59 161 -72 193 -152 385 -29 69 -71 172 -94 230
-23 58 -55 139 -72 180 -17 41 -38 93 -46 115 -9 22 -19 49 -24 60 -30 70
-110 290 -169 465 -127 380 -186 575 -260 860 -12 47 -28 105 -35 130 -7 25
-18 68 -24 95 -6 28 -23 97 -36 154 -88 371 -49 475 220 581 44 17 107 44 140
60 33 15 94 40 135 54 41 14 98 34 125 45 62 24 75 25 101 6z"/>
</g>
</svg>
