<?xml version="1.0" standalone="no"?>
<!DOCTYPE svg PUBLIC "-//W3C//DTD SVG 20010904//EN"
 "http://www.w3.org/TR/2001/REC-SVG-20010904/DTD/svg10.dtd">
<svg version="1.0" xmlns="http://www.w3.org/2000/svg"
 width="300.000000pt" height="300.000000pt" viewBox="0 0 300.000000 300.000000"
 preserveAspectRatio="xMidYMid meet">
<metadata>
Created by potrace 1.10, written by Peter Selinger 2001-2011
</metadata>
<g transform="translate(0.000000,300.000000) scale(0.100000,-0.100000)"
fill="#000000" stroke="none">
<path d="M1334 2880 c-28 -11 -61 -54 -69 -89 -9 -44 18 -98 59 -118 33 -15
36 -20 36 -59 l0 -42 -50 -11 c-108 -23 -179 -85 -136 -117 51 -37 301 -45
391 -12 93 34 30 103 -122 133 -31 6 -33 9 -33 51 0 38 4 46 24 54 59 22 87
116 50 168 -31 44 -98 63 -150 42z"/>
<path d="M1540 2379 c-40 -11 -100 -18 -155 -18 -82 0 -108 3 -200 24 l-31 7
-10 -74 c-15 -98 -35 -138 -89 -173 -36 -22 -45 -33 -45 -57 0 -64 36 -196
125 -463 52 -154 101 -314 109 -355 30 -155 30 -301 -1 -954 l-6 -138 176 3
c97 3 179 8 183 12 4 4 2 146 -4 315 -16 405 -15 634 3 752 15 96 31 162 98
388 43 146 73 287 82 394 l7 76 -33 17 c-78 39 -107 91 -124 218 -3 26 -9 46
-13 46 -4 -1 -36 -10 -72 -20z"/>
<path d="M1836 2023 c-11 -118 -41 -257 -97 -441 -28 -92 -57 -196 -65 -232
-8 -36 -17 -75 -19 -87 -4 -18 1 -24 32 -32 61 -17 105 -13 162 15 41 21 55
24 64 15 9 -10 5 -19 -20 -41 -50 -45 -124 -60 -206 -41 -35 8 -38 7 -44 -17
-6 -24 -1 -321 14 -760 l6 -202 33 0 c34 0 155 21 223 40 22 6 45 18 50 28 14
26 -20 141 -83 284 -43 97 -56 138 -56 175 0 54 31 150 135 422 96 250 205
646 205 742 0 44 -31 94 -70 114 -17 9 -75 31 -128 50 -53 18 -104 36 -113 40
-14 5 -18 -5 -23 -72z"/>
<path d="M810 2046 c-146 -59 -165 -70 -184 -110 -22 -48 -21 -62 24 -242 49
-198 125 -424 224 -666 86 -212 111 -294 100 -341 -3 -17 -28 -81 -55 -142
-27 -61 -58 -148 -70 -193 -25 -93 -22 -102 40 -120 44 -14 222 -42 262 -42
l26 0 7 167 c4 93 11 269 16 393 5 124 6 271 3 328 -5 89 -8 102 -22 96 -9 -4
-46 -9 -82 -12 -52 -3 -76 0 -117 18 -53 23 -66 38 -52 60 7 11 18 9 58 -8 54
-23 133 -29 176 -12 35 13 33 18 -80 355 -56 169 -102 327 -116 398 -17 89
-26 117 -38 116 -8 0 -62 -20 -120 -43z"/>
</g>
</svg>
