<?xml version="1.0" standalone="no"?>
<!DOCTYPE svg PUBLIC "-//W3C//DTD SVG 20010904//EN"
 "http://www.w3.org/TR/2001/REC-SVG-20010904/DTD/svg10.dtd">
<svg version="1.0" xmlns="http://www.w3.org/2000/svg"
 width="300.000000pt" height="300.000000pt" viewBox="0 0 300.000000 300.000000"
 preserveAspectRatio="xMidYMid meet">
<metadata>
Created by potrace 1.10, written by Peter Selinger 2001-2011
</metadata>
<g transform="translate(0.000000,300.000000) scale(0.100000,-0.100000)"
fill="#000000" stroke="none">
<path d="M1368 2910 c-53 -53 -42 -90 104 -356 69 -126 187 -344 261 -484 320
-605 304 -577 318 -563 5 5 -33 112 -83 238 -50 127 -169 434 -264 684 -190
496 -197 511 -267 511 -30 0 -45 -7 -69 -30z m111 -73 c25 -41 61 -149 61
-182 0 -42 -34 -31 -68 23 -67 104 -87 173 -55 190 23 14 39 5 62 -31z m126
-259 c14 -29 25 -63 25 -76 l0 -23 -22 21 c-15 14 -30 19 -45 15 -19 -4 -26 2
-43 35 -12 24 -16 40 -9 40 6 0 22 9 36 20 14 11 28 20 30 20 2 0 15 -24 28
-52z m71 -268 c121 -245 216 -451 210 -458 -6 -5 -326 635 -326 652 0 27 37
-34 116 -194z"/>
<path d="M2489 2291 c-37 -37 -41 -99 -8 -132 l21 -21 -62 -146 c-34 -81 -107
-255 -161 -387 -55 -132 -106 -253 -113 -270 -66 -146 -180 -459 -173 -478 8
-24 197 385 363 783 97 234 181 437 186 453 8 21 16 27 40 27 41 0 88 48 88
90 0 97 -114 148 -181 81z m116 -36 c14 -13 25 -31 25 -40 0 -19 -35 -55 -54
-55 -8 0 -21 -3 -30 -6 -10 -4 -20 5 -30 25 -21 40 -20 57 4 81 27 27 56 25
85 -5z"/>
<path d="M605 1839 c-7 -10 0 -65 12 -96 5 -12 -1 -14 -28 -11 -30 3 -34 0
-34 -21 0 -18 8 -26 35 -35 66 -21 47 -71 -27 -71 -63 0 -72 -26 -16 -52 69
-33 53 -87 -23 -76 -40 5 -44 4 -44 -16 0 -14 11 -26 37 -38 68 -32 49 -86
-26 -76 -28 4 -40 1 -44 -9 -7 -20 3 -32 40 -47 64 -26 45 -76 -30 -76 -32 0
-42 -4 -45 -18 -3 -13 7 -22 37 -34 47 -18 58 -39 35 -64 -13 -14 -26 -17 -59
-12 -32 4 -43 2 -48 -10 -7 -18 7 -31 46 -46 60 -23 40 -77 -24 -67 -44 7 -70
-14 -49 -39 7 -8 18 -15 25 -15 7 0 23 -8 35 -18 19 -16 21 -21 11 -41 -10
-19 -19 -21 -59 -19 -37 2 -47 0 -50 -14 -2 -12 5 -21 22 -28 33 -12 32 -15
-4 -56 -30 -35 -31 -64 -1 -64 9 0 37 24 62 52 26 29 50 50 54 46 4 -4 0 -31
-9 -59 -16 -46 -16 -54 -2 -67 12 -13 18 -13 30 -2 9 7 16 21 16 31 0 27 21
67 38 74 9 3 22 -1 31 -10 13 -13 13 -22 3 -62 -11 -40 -11 -49 3 -62 20 -20
36 -4 50 51 12 50 36 68 60 48 13 -11 16 -23 10 -55 -12 -77 -12 -80 15 -80
20 0 26 7 35 40 14 54 22 65 50 65 28 0 34 -21 22 -72 -11 -45 -4 -68 21 -68
15 0 22 13 33 52 12 46 18 53 41 56 33 4 44 -24 28 -74 -14 -42 -8 -64 19 -64
14 0 23 9 27 27 15 68 21 78 47 81 33 4 44 -28 28 -84 -8 -30 -8 -42 2 -52 21
-21 44 -4 51 38 7 43 30 73 55 68 13 -3 16 -17 16 -73 0 -62 2 -70 19 -70 14
0 22 12 32 46 15 52 34 72 57 63 21 -8 25 -30 13 -82 -7 -30 -6 -46 2 -54 17
-17 41 -2 47 29 15 72 53 104 75 62 9 -16 9 -32 0 -66 -14 -48 -6 -68 26 -61
11 2 21 18 28 47 12 48 33 68 61 57 15 -5 16 -15 10 -72 -7 -64 -6 -66 16 -62
17 2 26 15 38 53 12 38 21 50 36 50 17 0 21 -9 26 -52 9 -71 15 -83 39 -83 18
0 20 6 20 55 l0 54 38 -2 c31 -2 37 1 37 17 0 13 -11 23 -34 31 -76 25 -62 79
18 73 43 -3 46 -1 46 21 0 18 -8 26 -35 35 -64 21 -47 83 21 72 26 -4 40 -2
49 9 16 19 7 31 -35 45 -38 12 -53 43 -34 66 10 12 23 14 55 9 33 -5 43 -3 48
11 8 21 -10 44 -35 44 -18 0 -49 25 -49 40 0 23 34 41 74 38 35 -3 41 0 44 18
2 16 -6 24 -38 36 -66 27 -48 86 22 73 23 -4 38 -2 46 7 15 19 4 33 -40 51
-26 11 -38 22 -38 36 0 27 17 36 70 36 61 0 67 27 13 52 -68 32 -50 101 19 74
14 -5 30 -6 37 -1 20 12 8 45 -17 48 -12 2 -22 6 -22 9 0 2 17 25 37 50 36 44
37 46 18 60 -19 13 -24 11 -67 -36 -57 -62 -73 -66 -63 -13 14 71 12 87 -12
90 -17 3 -24 -3 -29 -25 -12 -55 -16 -63 -33 -73 -13 -6 -24 -5 -37 4 -16 12
-17 19 -7 59 5 25 7 51 3 57 -15 24 -43 5 -59 -40 -13 -36 -22 -46 -42 -48
-34 -4 -40 13 -26 72 9 38 8 49 -3 56 -20 13 -40 1 -46 -29 -11 -54 -23 -71
-49 -71 -33 0 -40 20 -27 72 8 30 8 46 0 55 -19 23 -37 14 -48 -27 -17 -64
-58 -91 -79 -52 -6 12 -6 33 1 61 8 30 8 45 0 53 -18 18 -41 1 -52 -41 -12
-46 -43 -69 -66 -50 -16 13 -18 47 -5 82 11 29 0 50 -25 45 -11 -2 -23 -17
-29 -38 -14 -48 -23 -60 -45 -60 -27 0 -39 27 -29 64 15 52 12 66 -16 66 -19
0 -26 -7 -31 -27 -10 -43 -32 -73 -55 -73 -27 0 -33 22 -21 73 9 34 8 45 -3
56 -19 19 -40 1 -49 -41 -8 -39 -23 -58 -47 -58 -28 0 -40 31 -27 73 23 76
-26 93 -52 18 -19 -55 -43 -72 -67 -48 -15 15 -16 22 -5 64 14 49 7 67 -23 61
-10 -2 -24 -23 -33 -52 -10 -27 -23 -51 -29 -54 -15 -4 -33 38 -33 78 0 16 -3
35 -6 44 -7 18 -39 21 -49 5z m109 -151 c20 9 27 7 47 -14 24 -26 49 -30 78
-14 14 7 23 4 37 -11 30 -33 50 -40 78 -28 22 10 29 8 56 -15 35 -29 43 -31
71 -15 16 8 26 5 50 -15 32 -27 54 -32 78 -17 10 7 24 2 44 -15 30 -25 62 -30
87 -14 11 7 22 2 42 -17 23 -22 33 -25 66 -19 29 4 43 2 53 -10 24 -29 49 -36
80 -24 27 11 32 10 54 -14 26 -28 45 -32 76 -15 17 9 25 6 47 -16 22 -23 32
-26 67 -21 31 4 45 1 63 -14 l23 -19 -22 -31 c-21 -27 -22 -34 -11 -62 11 -29
9 -35 -14 -59 -26 -27 -31 -48 -19 -85 5 -14 -2 -30 -20 -53 -25 -29 -26 -34
-15 -62 12 -28 11 -32 -15 -59 -23 -24 -26 -34 -21 -64 6 -30 2 -42 -20 -71
-24 -32 -25 -38 -14 -65 11 -25 9 -33 -10 -60 -17 -25 -21 -40 -16 -69 5 -32
2 -41 -20 -62 -21 -19 -25 -31 -20 -57 5 -35 0 -38 -28 -17 -13 10 -25 11 -44
4 -22 -8 -29 -6 -49 16 -26 27 -44 31 -75 14 -17 -9 -25 -6 -47 15 -29 28 -51
32 -80 16 -14 -7 -24 -4 -41 15 -24 26 -73 34 -86 14 -4 -7 -17 -1 -35 17 -24
23 -34 26 -65 21 -30 -5 -43 -2 -66 18 -31 26 -41 28 -73 16 -14 -6 -28 -2
-48 15 -31 26 -48 29 -77 14 -15 -8 -24 -5 -44 15 -27 27 -46 31 -78 14 -17
-9 -25 -7 -45 16 -21 22 -31 26 -59 20 -26 -4 -41 -1 -63 16 -22 16 -37 20
-63 15 -22 -4 -41 -1 -52 7 -17 12 -17 17 -5 50 10 29 10 42 1 63 -11 23 -10
29 14 51 23 21 25 30 20 63 -5 33 -2 43 19 64 27 27 31 46 14 77 -8 16 -5 26
15 50 28 33 32 50 15 80 -8 16 -5 26 20 55 34 38 36 46 20 75 -8 16 -5 26 15
50 29 34 32 50 15 81 -9 17 -6 25 15 47 27 29 33 60 16 92 -10 17 -9 18 15 7
18 -8 31 -8 49 0z"/>
<path d="M2215 926 c-100 -32 -172 -96 -218 -194 -27 -57 -31 -78 -31 -147 0
-69 4 -90 30 -145 38 -79 101 -145 174 -179 47 -22 69 -26 150 -26 83 0 102 3
151 28 67 32 142 109 172 175 31 67 32 226 1 293 -26 55 -85 123 -135 155 -80
50 -207 67 -294 40z m255 -58 c158 -81 216 -275 129 -438 -36 -69 -103 -129
-166 -152 -21 -7 -74 -13 -118 -13 -67 0 -89 4 -137 28 -62 30 -115 83 -150
149 -20 37 -23 58 -23 143 0 85 3 106 23 143 47 88 123 149 216 173 61 16 157
2 226 -33z"/>
<path d="M2240 851 c-48 -15 -85 -39 -121 -78 -60 -62 -74 -98 -74 -188 0 -70
4 -87 29 -133 53 -95 138 -145 246 -145 113 0 207 61 254 162 26 57 27 167 2
224 -23 51 -81 114 -130 139 -45 23 -162 34 -206 19z m177 -50 c159 -73 189
-290 56 -400 -96 -80 -242 -72 -325 16 -145 152 -41 404 167 403 37 0 76 -8
102 -19z"/>
<path d="M2213 720 c-45 -18 -55 -71 -21 -107 l22 -23 -22 -30 c-30 -40 -28
-63 9 -94 37 -31 44 -32 87 -6 l33 20 26 -20 c34 -27 55 -25 92 6 36 30 39 51
11 87 -11 14 -20 28 -20 32 0 4 9 18 20 32 27 34 25 55 -6 87 -32 31 -62 33
-98 5 l-26 -20 -29 20 c-31 23 -44 24 -78 11z m63 -41 c23 -25 9 -53 -29 -57
-35 -4 -52 26 -31 56 19 27 36 28 60 1z m144 7 c19 -23 8 -61 -18 -64 -44 -7
-67 32 -36 62 19 20 38 20 54 2z m-76 -84 c15 -18 15 -20 -4 -37 -19 -17 -21
-17 -40 0 -15 13 -17 22 -9 36 12 24 31 24 53 1z m-68 -63 c23 -25 9 -53 -29
-57 -38 -5 -55 30 -27 58 25 25 32 25 56 -1z m138 8 c26 -19 18 -61 -12 -65
-44 -7 -67 32 -36 62 19 19 25 20 48 3z"/>
</g>
</svg>
