<?xml version="1.0" standalone="no"?>
<!DOCTYPE svg PUBLIC "-//W3C//DTD SVG 20010904//EN"
 "http://www.w3.org/TR/2001/REC-SVG-20010904/DTD/svg10.dtd">
<svg version="1.0" xmlns="http://www.w3.org/2000/svg"
 width="300.000000pt" height="300.000000pt" viewBox="0 0 300.000000 300.000000"
 preserveAspectRatio="xMidYMid meet">
<metadata>
Created by potrace 1.10, written by Peter Selinger 2001-2011
</metadata>
<g transform="translate(0.000000,300.000000) scale(0.100000,-0.100000)"
fill="#000000" stroke="none">
<path d="M645 2241 c-89 -54 -238 -274 -279 -410 -18 -61 -21 -198 -6 -251 12
-41 53 -296 69 -425 6 -49 16 -202 22 -340 16 -392 19 -434 36 -450 30 -31
132 -9 148 32 3 10 10 99 15 198 10 192 59 635 71 635 15 0 148 -191 191 -276
25 -49 66 -148 91 -220 117 -338 202 -433 422 -473 179 -33 830 -4 1138 49 79
14 139 47 151 83 22 62 -45 123 -263 242 -300 163 -405 204 -571 221 -175 19
-299 107 -417 299 -17 28 -56 97 -88 155 -149 269 -216 384 -290 495 -111 166
-218 307 -295 387 -71 74 -93 82 -145 49z m158 -156 c166 -207 303 -417 457
-700 185 -341 242 -421 358 -498 92 -61 157 -84 290 -98 59 -6 108 -12 110
-14 1 -1 -44 -21 -101 -43 -266 -106 -484 -41 -636 190 -82 124 -222 419 -473
993 -131 298 -132 329 -5 170z m-143 60 c0 -36 33 -116 225 -555 141 -323 280
-608 338 -695 60 -93 167 -195 238 -228 167 -78 351 -64 532 40 l78 46 82 -38
c140 -65 328 -166 415 -222 84 -55 101 -82 65 -102 -55 -29 -487 -70 -808 -78
-264 -6 -389 4 -483 39 -101 37 -183 141 -249 318 -120 318 -172 419 -297 568
-85 102 -134 147 -256 233 -99 70 -116 95 -126 180 -9 80 10 172 53 256 38 74
171 262 186 263 4 0 7 -11 7 -25z m-122 -740 c45 -36 82 -69 82 -74 0 -5 -7
-11 -14 -14 -8 -3 -22 -19 -30 -35 -13 -25 -16 -93 -16 -436 -1 -333 -4 -406
-15 -406 -15 0 -17 30 -35 405 -14 285 -37 495 -66 603 -4 12 -2 22 2 22 5 0
46 -29 92 -65z m128 -147 c-4 -13 -14 -113 -22 -223 -9 -110 -19 -207 -23
-215 -3 -8 -7 81 -9 199 -2 209 -2 215 20 238 27 29 42 30 34 1z m-41 -497
c-4 -14 -11 -48 -15 -76 l-8 -50 -1 51 c-1 65 8 115 21 108 5 -4 7 -18 3 -33z
m-17 -286 c1 -33 -4 -51 -18 -65 -22 -22 -36 -25 -45 -10 -3 6 -1 10 5 10 6 0
8 5 4 12 -4 7 -3 8 4 4 15 -9 32 26 32 69 0 53 17 34 18 -20z"/>
</g>
</svg>
