<?xml version="1.0" standalone="no"?>
<!DOCTYPE svg PUBLIC "-//W3C//DTD SVG 20010904//EN"
 "http://www.w3.org/TR/2001/REC-SVG-20010904/DTD/svg10.dtd">
<svg version="1.0" xmlns="http://www.w3.org/2000/svg"
 width="300.000000pt" height="938.000000pt" viewBox="0 0 300.000000 938.000000"
 preserveAspectRatio="xMidYMid meet">
<metadata>
Created by potrace 1.10, written by Peter Selinger 2001-2011
</metadata>
<g transform="translate(0.000000,938.000000) scale(0.050000,-0.050000)"
fill="#000000" stroke="none">
<path d="M2732 18168 c-7 -17 -12 -83 -12 -145 0 -439 -139 -555 -1003 -841
-535 -177 -730 -320 -713 -521 9 -104 73 -98 126 13 67 139 335 348 384 299
61 -61 129 -1278 81 -1453 -19 -71 -63 -256 -96 -410 l-61 -280 142 -460 c195
-629 360 -1344 360 -1559 0 -75 42 -120 98 -106 35 9 338 -35 355 -52 15 -14
-273 -36 -313 -23 -27 8 -44 2 -52 -18 -8 -21 -27 -28 -58 -20 -61 15 -133
-99 -507 -796 -323 -602 -825 -1803 -964 -2306 -50 -180 -50 -231 1 -244 22
-6 40 -25 40 -43 0 -85 86 -958 150 -1523 64 -570 158 -1286 360 -2730 38
-275 69 -543 70 -596 0 -61 8 -92 20 -84 14 9 17 -14 9 -64 -7 -43 -2 -167 10
-277 90 -770 329 -2372 362 -2429 34 -57 20 68 -60 563 -156 970 -307 2033
-298 2101 4 25 41 -156 82 -404 346 -2070 396 -2327 436 -2287 13 13 -37 368
-149 1049 -386 2339 -727 4796 -925 6658 -21 203 -22 201 127 610 144 398 167
456 370 926 165 379 195 410 69 72 -176 -478 -276 -803 -269 -882 7 -89 55
-110 110 -47 41 48 66 53 66 12 0 -111 128 -114 309 -8 863 511 1991 1467
2937 2491 155 167 144 319 -15 215 -31 -20 -51 -25 -51 -11 0 38 -53 25 -255
-61 -184 -77 -507 -182 -520 -168 -4 3 68 36 159 72 266 105 656 294 656 318
0 35 -80 25 -504 -68 -573 -125 -925 -174 -1356 -189 -317 -10 -369 -16 -365
-43 3 -18 -20 -40 -56 -53 -52 -20 -59 -30 -48 -75 10 -38 6 -51 -18 -51 -54
0 -52 29 13 161 l64 129 400 12 c521 16 875 67 1475 211 488 117 408 133 -265
56 -769 -88 -1602 -48 -1555 75 10 25 34 24 188 -7 394 -82 1208 -50 1922 74
102 17 81 36 -170 150 -129 58 -441 204 -692 324 -413 197 -1160 512 -1363
575 -100 32 -130 55 -130 102 0 48 18 48 124 -1 154 -71 817 -326 826 -318 4
4 -151 134 -345 288 -194 153 -401 322 -460 375 -59 52 -114 91 -123 85 -9 -5
-26 12 -39 40 -33 72 -63 60 -63 -25 0 -102 -24 -66 -90 139 -74 228 -69 229
152 15 104 -101 349 -310 546 -466 197 -156 438 -352 535 -436 193 -165 1380
-768 1425 -723 69 68 28 132 -300 478 -454 478 -687 758 -927 1115 -384 572
-757 935 -1068 1040 -96 33 -221 27 -244 -10 -47 -76 -63 -1 -86 413 -19 345
-52 668 -90 876 -2 10 141 66 317 125 553 185 784 323 872 520 41 90 88 446
69 521 -14 56 -119 68 -139 15z m1014 -4518 c426 -358 463 -390 447 -390 -33
0 -813 607 -813 632 0 44 118 -34 366 -242z m-2262 -3265 l65 9 -99 -88 c-146
-130 -179 -145 -161 -74 33 134 69 194 101 168 16 -14 58 -20 94 -15z"/>
<path d="M3709 17865 c30 -384 193 -502 841 -609 143 -24 262 -44 265 -46 2
-1 -9 -71 -25 -155 -36 -189 -125 -885 -142 -1118 l-14 -173 -115 -8 c-315
-23 -908 -502 -1246 -1006 -72 -107 -77 -92 138 -361 221 -278 217 -275 295
-187 57 66 52 51 -26 -75 -24 -38 -17 -53 81 -165 121 -137 139 -144 198 -69
53 68 53 41 -1 -35 l-41 -58 60 -75 c33 -41 96 -110 140 -153 l80 -77 65 132
c80 164 99 161 29 -4 -62 -147 -63 -166 -11 -213 58 -52 65 -39 169 318 148
508 165 502 46 -18 -86 -377 -145 -734 -129 -777 20 -51 111 -43 123 12 5 25
55 270 110 545 55 275 137 635 183 800 170 616 157 549 128 702 -35 184 -145
615 -171 672 -21 47 55 784 133 1281 l33 215 64 0 c229 0 378 -110 399 -295 8
-69 23 -125 35 -125 11 0 16 24 10 55 -6 30 -17 93 -23 139 -20 126 -210 266
-363 266 -17 0 -59 12 -94 27 -35 16 -155 39 -268 52 -676 77 -900 220 -921
585 -5 97 -18 176 -29 176 -12 0 -15 -65 -6 -175z"/>
<path d="M4195 17049 c-96 -15 -213 -37 -260 -49 -219 -56 -375 -107 -375
-123 0 -23 -7 -24 233 43 117 33 308 78 424 100 318 62 305 80 -22 29z"/>
<path d="M2180 17005 c0 -16 654 -147 720 -145 113 4 -131 60 -655 151 -36 6
-65 3 -65 -6z"/>
<path d="M4380 12795 c0 -21 32 -112 70 -202 l70 -163 -165 -179 c-1295 -1408
-2308 -2255 -3102 -2595 -269 -115 -314 -154 -209 -184 42 -12 40 -15 -34 -50
-80 -36 -80 -36 -120 8 -62 69 -205 66 -223 -4 -59 -236 172 -2011 563 -4326
71 -423 184 -1103 251 -1510 184 -1125 351 -1930 400 -1930 30 0 23 75 -29
332 -66 322 -226 1252 -240 1388 l-11 110 30 -90 c17 -49 35 -130 41 -180 6
-49 19 -108 28 -130 10 -22 27 -94 38 -160 23 -128 51 -244 93 -390 15 -49 55
-229 89 -400 77 -385 93 -435 145 -463 53 -28 95 21 95 110 0 58 1 58 39 24
43 -39 101 -29 101 16 0 19 14 26 40 19 29 -8 45 3 60 44 17 44 26 50 49 31
47 -39 61 14 170 629 108 603 317 1772 423 2360 117 651 235 1203 345 1620 61
231 188 731 281 1110 204 833 445 1691 450 1603 1 -14 -53 -253 -119 -530
-499 -2071 -729 -3333 -1199 -6588 -132 -909 -138 -1011 -65 -1021 38 -6 45
-19 45 -85 0 -101 17 -105 -358 79 -372 183 -760 342 -832 342 -93 0 -56 -59
75 -119 470 -213 612 -280 825 -386 282 -141 750 -390 1060 -565 225 -127 319
-164 339 -132 6 9 -3 29 -19 42 -33 27 -41 80 -12 80 10 0 23 -14 29 -30 19
-49 68 -34 89 29 16 44 30 56 60 48 59 -16 54 -38 193 937 232 1627 448 2817
891 4916 34 160 83 380 110 490 369 1539 407 2777 120 3910 -201 791 -771
2144 -913 2165 -46 6 -57 0 -57 -30z m260 -634 c0 -6 -27 -26 -60 -45 -70 -40
-70 -39 -26 55 32 65 87 59 86 -10z m133 -314 c79 -182 80 -188 23 -182 -54 6
-80 -38 -304 -515 -92 -198 -299 -639 -458 -980 -342 -730 -720 -1516 -1259
-2620 -214 -440 -420 -875 -457 -967 -81 -201 -87 -190 -109 230 l-14 262 52
-10 c41 -7 57 1 76 43 26 57 38 63 70 31 40 -40 625 1126 1578 3141 164 347
386 803 493 1015 174 341 210 451 120 361 -42 -42 -26 4 47 134 67 121 69 127
29 133 -39 7 -39 9 -9 53 41 58 41 58 122 -129z m273 -748 c347 -1105 403
-2233 164 -3319 -32 -146 -29 -106 29 350 83 659 99 1058 61 1480 -54 588
-201 1310 -267 1310 -18 0 -23 20 -17 60 11 80 -12 166 -42 154 -16 -6 -25 18
-26 74 -1 45 -13 109 -26 142 l-25 60 -41 -50 -41 -50 15 70 c8 39 24 93 34
120 l19 50 27 -51 c15 -27 76 -207 136 -400z m-903 -1501 c-65 -180 -132 -362
-149 -403 -18 -41 -29 -75 -25 -75 4 0 -5 -40 -19 -88 -15 -49 -22 -93 -17
-98 5 -6 -30 -157 -79 -337 -49 -180 -163 -637 -253 -1017 -91 -379 -182 -744
-203 -810 l-37 -120 11 99 c6 54 52 279 101 500 49 220 116 523 149 671 39
176 57 303 51 366 -10 109 3 179 30 162 10 -6 16 -4 13 6 -2 9 11 45 30 80 55
103 38 104 -26 2 -32 -52 -65 -119 -73 -150 -7 -31 -49 -91 -92 -133 l-79 -77
13 87 c35 231 321 882 665 1513 126 231 124 200 -11 -178z m-2309 -729 c-50
-44 -114 -66 -114 -39 0 15 126 90 150 89 11 0 -5 -22 -36 -50z m-205 -111
c-20 -33 -186 -98 -246 -97 -43 1 -30 12 67 58 125 60 202 77 179 39z m322
-635 c12 -245 20 -292 52 -320 30 -25 37 -60 37 -172 0 -195 56 -939 88 -1181
26 -194 14 -359 -15 -220 -48 221 -294 2132 -302 2339 -1 11 22 31 49 45 60
30 66 -5 91 -491z m-283 21 c8 -140 19 -303 25 -364 23 -211 -12 -85 -64 230
-57 346 -68 381 -131 401 -82 26 -108 -33 -104 -232 6 -230 -20 -229 -57 3
-35 222 -30 232 156 288 l137 42 13 -57 c7 -31 18 -171 25 -311z m632 -344 c0
-32 -107 -240 -124 -240 -49 0 -15 199 39 229 65 35 85 38 85 11z m493 -932
c-223 -658 -221 -653 -229 -490 -3 75 6 162 23 212 37 108 358 792 367 782 4
-3 -69 -231 -161 -504z m-473 -781 c0 -38 -49 -167 -63 -167 -20 0 -23 147 -4
167 17 17 67 17 67 0z m1053 -4402 c-77 -587 -77 -685 -4 -685 37 0 39 9 111
419 34 192 66 353 71 358 15 16 11 -23 -43 -408 -55 -389 -54 -429 11 -429 40
0 60 45 99 230 13 62 16 34 14 -120 -2 -220 40 -277 105 -142 53 110 71 12 43
-226 -37 -299 -32 -292 -140 -224 -50 31 -246 139 -436 241 -203 109 -342 195
-336 208 5 13 21 64 36 113 l26 90 10 -90 c22 -198 105 -124 166 150 5 22 11
-18 12 -90 7 -352 87 -222 178 287 68 384 106 539 77 318z"/>
<path d="M5171 6305 c-18 -118 -91 -593 -161 -1055 -183 -1206 -422 -2718
-572 -3627 -33 -201 -57 -376 -53 -387 8 -26 192 1018 276 1574 33 220 105
675 159 1010 105 652 149 930 289 1860 96 639 122 840 106 840 -5 0 -25 -97
-44 -215z"/>
</g>
</svg>
