<?xml version="1.0" standalone="no"?>
<!DOCTYPE svg PUBLIC "-//W3C//DTD SVG 20010904//EN"
 "http://www.w3.org/TR/2001/REC-SVG-20010904/DTD/svg10.dtd">
<svg version="1.0" xmlns="http://www.w3.org/2000/svg"
 width="300.000000pt" height="300.000000pt" viewBox="0 0 300.000000 300.000000"
 preserveAspectRatio="xMidYMid meet">
<metadata>
Created by potrace 1.10, written by Peter Selinger 2001-2011
</metadata>
<g transform="translate(0.000000,300.000000) scale(0.100000,-0.100000)"
fill="#000000" stroke="none">
<path d="M1080 1960 c-150 -4 -284 -13 -309 -19 l-43 -12 22 -24 c34 -36 49
-112 60 -300 6 -93 15 -187 20 -207 27 -98 171 -148 496 -174 l81 -6 9 53 c13
76 37 90 152 92 81 2 94 0 112 -19 12 -12 24 -40 27 -63 5 -40 7 -41 43 -41
21 0 91 9 157 20 211 36 332 83 369 143 16 27 19 50 18 152 -2 127 -25 288
-48 333 -33 64 -41 66 -249 73 -233 9 -562 8 -917 -1z"/>
<path d="M646 1830 c-35 -88 -126 -695 -126 -841 0 -106 12 -134 71 -164 33
-18 35 -12 13 41 -22 52 -15 184 26 502 44 341 61 437 80 437 18 0 20 30 -25
-345 -20 -162 -39 -354 -42 -425 -6 -126 -5 -132 21 -182 21 -43 49 -73 68
-73 2 0 3 89 3 198 0 108 6 274 14 369 11 136 12 198 3 305 -14 167 -27 212
-63 216 -23 3 -29 -3 -43 -38z"/>
<path d="M787 1203 c-9 -161 -9 -289 0 -376 l6 -67 41 -11 c45 -12 257 -8 866
16 418 17 450 21 493 49 59 39 70 80 75 273 3 94 2 183 -2 196 l-6 24 -57 -28
c-82 -40 -360 -99 -465 -99 -24 0 -26 -3 -30 -71 -5 -59 -10 -75 -31 -97 -23
-23 -36 -26 -115 -30 -82 -4 -90 -3 -115 19 -23 20 -28 35 -33 95 l-7 71 -136
6 c-218 11 -370 53 -442 123 l-36 35 -6 -128z"/>
<path d="M1479 1279 c-17 -32 -8 -217 11 -230 18 -12 130 -2 145 12 12 12 20
178 11 214 -6 24 -10 25 -81 25 -65 0 -76 -3 -86 -21z"/>
</g>
</svg>
