<?xml version="1.0" standalone="no"?>
<!DOCTYPE svg PUBLIC "-//W3C//DTD SVG 20010904//EN"
 "http://www.w3.org/TR/2001/REC-SVG-20010904/DTD/svg10.dtd">
<svg version="1.0" xmlns="http://www.w3.org/2000/svg"
 width="300.000000pt" height="300.000000pt" viewBox="0 0 300.000000 300.000000"
 preserveAspectRatio="xMidYMid meet">
<metadata>
Created by potrace 1.10, written by Peter Selinger 2001-2011
</metadata>
<g transform="translate(0.000000,300.000000) scale(0.100000,-0.100000)"
fill="#000000" stroke="none">
<path d="M1120 1960 c-250 -6 -361 -14 -383 -27 -5 -3 1 -15 13 -28 35 -37 49
-108 60 -289 14 -228 14 -230 59 -275 40 -40 111 -69 221 -90 44 -9 257 -30
306 -31 6 0 14 21 17 47 7 65 37 89 121 98 121 13 164 -9 173 -88 l5 -43 107
13 c240 31 417 91 456 155 17 29 20 49 18 153 -1 126 -25 290 -48 334 -33 65
-36 65 -289 73 -273 7 -463 7 -836 -2z m1075 -72 c38 -44 64 -240 56 -417 -2
-54 -51 -94 -152 -124 -89 -27 -225 -54 -298 -59 -42 -3 -45 -1 -65 36 -36 68
-64 81 -170 80 -114 0 -147 -17 -179 -88 l-22 -48 -100 5 c-202 12 -351 58
-387 122 -12 22 -18 66 -23 165 -4 74 -13 176 -22 225 -8 50 -16 97 -16 105
-3 24 76 27 741 26 l614 -1 23 -27z"/>
<path d="M673 1872 c-27 -18 -47 -92 -84 -322 -44 -274 -69 -478 -69 -568 l0
-95 40 -39 c56 -53 75 -51 50 5 -14 29 -20 65 -20 117 0 111 84 779 105 839 4
10 9 10 18 3 11 -9 6 -70 -25 -324 -20 -172 -40 -371 -44 -443 -6 -121 -5
-134 16 -183 20 -45 51 -82 70 -82 3 0 5 91 5 203 0 111 6 276 14 367 14 175
5 409 -20 478 -12 34 -38 55 -56 44z"/>
<path d="M785 1137 c-4 -111 -3 -242 1 -292 l9 -89 35 -8 c40 -10 328 -4 860
17 428 17 460 21 503 49 62 41 71 77 75 300 3 110 1 197 -4 194 -5 -2 -34 -16
-66 -31 -69 -34 -229 -71 -377 -88 l-111 -12 0 -52 c0 -76 -16 -115 -56 -131
-38 -16 -160 -19 -197 -5 -31 12 -38 31 -42 111 l-4 65 -133 7 c-228 11 -375
52 -444 123 l-42 43 -7 -201z m93 74 c39 -20 123 -46 177 -56 17 -2 39 -7 51
-9 12 -2 57 -7 100 -10 167 -13 161 -11 168 -62 14 -108 57 -138 186 -132 67
3 94 9 122 26 41 25 46 35 62 112 13 62 -7 53 196 85 58 9 143 28 188 42 71
22 85 24 93 12 11 -18 11 -186 -1 -268 -9 -63 -41 -116 -73 -119 -202 -18
-1077 -53 -1215 -48 -45 1 -88 8 -94 14 -21 21 -23 432 -2 432 3 0 22 -9 42
-19z"/>
<path d="M1480 1281 c-15 -29 -13 -203 3 -225 11 -15 22 -16 81 -10 82 8 86
15 86 139 0 117 2 115 -86 115 -62 0 -75 -3 -84 -19z m122 -41 c18 -17 19 -20
5 -26 -13 -4 -14 -10 -5 -29 6 -13 8 -40 4 -59 -7 -34 -9 -36 -46 -36 l-40 0
0 60 c0 33 -4 60 -10 60 -5 0 -10 5 -10 10 0 6 7 10 15 10 8 0 15 7 15 15 0
22 47 19 72 -5z"/>
</g>
</svg>
