<?xml version="1.0" standalone="no"?>
<!DOCTYPE svg PUBLIC "-//W3C//DTD SVG 20010904//EN"
 "http://www.w3.org/TR/2001/REC-SVG-20010904/DTD/svg10.dtd">
<svg version="1.0" xmlns="http://www.w3.org/2000/svg"
 width="300.000000pt" height="300.000000pt" viewBox="0 0 300.000000 300.000000"
 preserveAspectRatio="xMidYMid meet">
<metadata>
Created by potrace 1.10, written by Peter Selinger 2001-2011
</metadata>
<g transform="translate(0.000000,300.000000) scale(0.100000,-0.100000)"
fill="#000000" stroke="none">
<path d="M2113 1996 l-31 -26 -139 10 c-340 23 -680 31 -901 20 -281 -13 -318
-20 -358 -63 -42 -45 -67 -144 -68 -272 -1 -90 -4 -105 -28 -145 -62 -103 -80
-216 -54 -320 9 -35 28 -78 41 -96 15 -20 25 -46 25 -67 0 -68 28 -133 75
-175 71 -62 138 -74 527 -93 256 -12 843 -5 975 11 179 23 233 110 233 376 0
120 -15 317 -31 405 -7 40 -6 65 2 85 6 16 14 81 16 144 6 138 -3 158 -77 167
-28 3 -55 15 -71 30 -15 14 -44 27 -66 30 -32 4 -45 0 -70 -21z m-24 -142
c-135 -146 -410 -414 -426 -414 -28 0 -6 27 110 134 64 59 123 116 130 126 6
9 65 73 130 141 81 84 120 120 128 112 7 -7 -16 -38 -72 -99z m-474 76 c132
-5 278 -12 324 -16 l84 -6 -213 -213 c-196 -196 -215 -213 -237 -204 -36 14
-139 11 -176 -5 -47 -19 -69 -59 -75 -133 -2 -34 -7 -63 -9 -63 -21 0 -279 80
-358 110 -110 43 -217 109 -249 153 -28 38 -33 149 -11 242 21 94 35 112 88
120 154 23 484 29 832 15z m718 -44 c10 -13 0 -166 -13 -217 -24 -90 -95 -151
-285 -244 -133 -66 -361 -150 -369 -137 -3 5 -2 26 1 48 4 32 13 45 45 68 61
44 284 263 398 391 l100 112 58 -5 c31 -3 61 -10 65 -16z m-1649 -368 c14 -20
14 -24 -1 -40 -9 -10 -23 -17 -31 -16 -20 4 -29 -36 -38 -165 -4 -54 -10 -100
-15 -102 -12 -8 -22 98 -14 146 4 24 14 62 22 84 9 22 16 47 17 55 9 61 33 76
60 38z m1651 -164 c10 -233 4 -370 -21 -419 -43 -86 -70 -92 -554 -101 -342
-6 -677 4 -875 27 -95 11 -180 41 -189 66 -5 13 5 14 67 8 131 -12 347 40 497
122 44 24 66 31 68 23 16 -46 96 -75 183 -66 107 11 138 41 146 140 l5 61 100
28 c190 54 445 176 513 247 16 16 34 30 41 30 8 0 14 -47 19 -166z m-1598 80
c92 -63 289 -140 456 -179 42 -10 77 -21 77 -24 0 -10 -219 -103 -300 -128
-84 -26 -203 -42 -268 -35 l-43 4 5 67 c15 178 29 321 32 321 2 0 20 -12 41
-26z m784 -4 c12 0 16 -5 13 -15 -4 -10 0 -15 15 -15 12 0 21 5 21 10 0 6 7
10 15 10 32 0 12 -31 -47 -73 -72 -51 -120 -77 -143 -77 -11 0 -15 11 -15 44
0 90 32 131 94 121 16 -3 37 -5 47 -5z m83 -142 c-2 -24 -5 -71 -8 -106 -6
-89 -20 -102 -109 -102 -91 0 -107 13 -107 88 l0 54 78 -2 c101 -3 102 -3 102
20 0 14 -7 20 -21 20 -11 0 -19 4 -17 9 3 10 68 59 79 60 4 1 5 -18 3 -41z
m-244 -42 c0 -23 -25 -47 -42 -41 -26 10 -29 42 -4 58 22 15 46 6 46 -17z
m-45 -85 c-12 -21 -178 -98 -280 -131 -86 -28 -118 -33 -232 -38 -95 -3 -133
-1 -133 7 0 7 25 11 73 11 141 0 296 42 461 124 93 47 129 55 111 27z m-694 6
c-1 -4 -1 -14 -1 -22 0 -8 -4 -15 -9 -15 -12 0 -23 29 -15 41 6 11 26 8 25 -4z"/>
</g>
</svg>
