<?xml version="1.0" standalone="no"?>
<!DOCTYPE svg PUBLIC "-//W3C//DTD SVG 20010904//EN"
 "http://www.w3.org/TR/2001/REC-SVG-20010904/DTD/svg10.dtd">
<svg version="1.0" xmlns="http://www.w3.org/2000/svg"
 width="300.000000pt" height="300.000000pt" viewBox="0 0 300.000000 300.000000"
 preserveAspectRatio="xMidYMid meet">
<metadata>
Created by potrace 1.10, written by Peter Selinger 2001-2011
</metadata>
<g transform="translate(0.000000,300.000000) scale(0.100000,-0.100000)"
fill="#000000" stroke="none">
<path d="M1445 2477 c-147 -49 -281 -164 -374 -321 -28 -47 -51 -91 -51 -96 0
-5 -13 -24 -29 -43 -16 -18 -33 -45 -36 -60 -5 -17 -14 -27 -25 -27 -19 0 -36
-16 -42 -39 -2 -12 10 -15 56 -15 l58 -1 44 -153 c24 -84 57 -180 74 -211 40
-75 120 -154 187 -188 151 -73 367 -20 514 126 69 69 90 106 176 311 24 58 55
116 69 129 l25 23 -20 19 c-12 11 -21 27 -21 35 0 9 -18 62 -41 119 -72 185
-178 318 -297 373 -68 31 -201 40 -267 19z m269 -120 c30 -20 73 -61 95 -90
51 -67 113 -200 145 -311 14 -47 27 -90 30 -95 4 -5 -25 -75 -63 -155 -88
-183 -142 -246 -270 -309 -82 -41 -87 -42 -185 -42 -93 0 -105 2 -155 30 -65
36 -117 94 -156 172 -25 52 -106 277 -122 343 -6 22 -4 24 10 11 10 -7 17 -20
17 -28 0 -25 25 -8 28 20 3 27 -15 40 -82 62 -18 5 -18 7 -3 22 13 14 22 15
51 6 l35 -11 37 67 c100 180 201 283 323 333 35 14 65 17 128 15 75 -3 86 -6
137 -40z"/>
<path d="M2067 1842 c-9 -9 -41 -78 -72 -152 -41 -100 -58 -156 -66 -215 -23
-190 -91 -323 -220 -431 -98 -81 -170 -111 -403 -165 -206 -48 -368 -101 -514
-170 -123 -57 -129 -65 -92 -124 50 -81 214 -105 720 -105 l288 0 90 168 c164
308 254 442 367 551 79 76 79 47 0 310 -30 101 -53 186 -51 188 6 7 120 -342
155 -477 37 -140 71 -344 71 -425 0 -147 -61 -257 -159 -290 -128 -42 -569
-63 -977 -46 -438 18 -498 32 -544 128 -14 29 -31 53 -37 53 -18 0 -16 27 2
38 9 5 20 34 26 73 23 146 133 528 224 774 59 160 105 298 105 313 0 9 -11 12
-37 10 l-38 -3 -92 -182 c-101 -201 -188 -416 -254 -623 -40 -125 -43 -143
-43 -250 -1 -107 1 -119 27 -170 31 -60 84 -120 133 -151 93 -57 314 -81 765
-80 442 0 682 22 798 72 65 27 132 101 163 177 19 49 23 75 23 187 0 121 -3
139 -39 265 -21 74 -69 225 -106 335 -147 432 -166 470 -213 417z"/>
<path d="M971 1728 c-47 -162 -5 -435 90 -577 46 -69 85 -101 173 -142 90 -42
179 -49 265 -19 179 60 323 221 365 408 8 34 12 62 9 62 -3 0 -30 -22 -59 -49
-64 -59 -171 -115 -251 -131 -84 -18 -199 -9 -259 20 -71 34 -164 131 -205
215 -19 39 -48 118 -64 178 -15 59 -31 107 -35 107 -4 0 -17 -33 -29 -72z"/>
<path d="M909 1555 c-13 -20 -108 -323 -149 -470 -44 -163 -87 -361 -80 -368
3 -3 46 14 95 38 126 60 265 110 394 142 61 15 111 30 111 34 0 3 -19 11 -42
18 -97 29 -194 115 -247 218 -41 82 -62 169 -69 293 -4 58 -10 101 -13 95z"/>
<path d="M2173 1137 c-39 -41 -93 -108 -121 -148 -87 -130 -286 -495 -274
-503 10 -5 227 12 308 25 122 19 177 65 209 172 26 87 13 260 -33 456 l-17 74
-72 -76z"/>
</g>
</svg>
