<?xml version="1.0" standalone="no"?>
<!DOCTYPE svg PUBLIC "-//W3C//DTD SVG 20010904//EN"
 "http://www.w3.org/TR/2001/REC-SVG-20010904/DTD/svg10.dtd">
<svg version="1.0" xmlns="http://www.w3.org/2000/svg"
 width="300.000000pt" height="300.000000pt" viewBox="0 0 300.000000 300.000000"
 preserveAspectRatio="xMidYMid meet">
<metadata>
Created by potrace 1.10, written by Peter Selinger 2001-2011
</metadata>
<g transform="translate(0.000000,300.000000) scale(0.100000,-0.100000)"
fill="#000000" stroke="none">
<path d="M1432 2661 c-111 -42 -227 -145 -340 -305 -84 -118 -182 -271 -182
-284 0 -6 -16 -27 -35 -46 -41 -42 -44 -69 -10 -92 30 -19 32 -30 6 -37 -11
-3 -22 -19 -29 -43 -10 -38 -10 -38 -11 -8 -1 16 4 35 11 42 6 6 8 15 4 19 -4
5 -17 -3 -28 -17 -16 -19 -18 -32 -13 -60 12 -58 10 -67 -60 -265 -88 -250
-179 -539 -205 -645 -39 -167 -22 -274 56 -338 78 -65 57 -63 837 -68 496 -3
726 -2 769 6 135 25 211 72 249 155 26 57 23 128 -11 283 -47 207 -189 741
-213 796 -11 27 -22 59 -22 70 -1 12 -2 38 -3 59 -2 40 -21 49 -48 22 -17 -17
-44 -20 -44 -5 0 6 7 10 15 10 20 0 55 58 55 93 0 15 -9 36 -19 46 -12 12 -17
27 -14 40 3 12 0 28 -7 36 -6 8 -27 47 -47 87 -51 107 -152 254 -224 326 -42
42 -88 75 -137 99 -65 32 -85 37 -160 40 -68 3 -99 -1 -140 -16z m267 -80 c57
-30 132 -100 175 -166 47 -70 156 -313 156 -346 0 -18 9 -35 27 -49 15 -11 35
-34 44 -50 18 -28 17 -29 -1 -35 -11 -4 -20 -12 -21 -18 -4 -39 5 -75 24 -95
12 -13 17 -26 11 -31 -37 -32 -194 -137 -255 -170 -74 -40 -287 -116 -297
-106 -3 2 -12 0 -19 -7 -11 -9 -17 -9 -24 3 -7 12 -9 11 -9 -2 0 -27 -82 -44
-210 -43 -123 1 -132 3 -335 79 -55 21 -106 39 -112 41 -9 2 -6 23 13 76 15
40 27 74 29 76 3 4 91 -31 221 -89 186 -82 261 -102 394 -102 104 -1 124 2
209 31 157 54 400 213 361 237 -6 4 -52 -20 -103 -53 -192 -124 -307 -166
-457 -166 -118 0 -200 22 -382 103 -74 32 -154 65 -179 72 -56 16 -53 13 -34
43 12 18 16 37 12 62 -5 27 -1 40 14 55 10 10 19 27 19 38 0 10 11 26 25 35
15 10 27 30 31 53 4 21 20 65 37 98 119 241 241 382 374 436 68 27 200 22 262
-10z m373 -400 c17 -27 19 -35 7 -42 -8 -5 -17 -9 -20 -9 -7 0 -59 125 -59
142 0 12 37 -34 72 -91z m-1049 -19 c-14 -34 -32 -62 -40 -62 -7 0 -13 2 -13
5 0 8 74 124 77 121 2 -1 -9 -30 -24 -64z m1092 -85 c-12 -30 -55 -32 -55 -3
0 16 42 37 53 27 4 -4 5 -15 2 -24z m-1144 -17 c19 -11 26 -30 10 -30 -5 0
-19 9 -32 20 -26 21 -11 27 22 10z m1175 -44 c3 -14 4 -33 2 -43 -3 -14 -8
-11 -21 15 -17 31 -16 52 3 52 5 0 12 -11 16 -24z m-1232 -21 c-7 -40 11 -49
26 -12 5 13 9 16 9 6 1 -8 -5 -24 -13 -34 -13 -18 -15 -18 -40 -2 -30 20 -31
25 -10 55 23 33 36 27 28 -13z m-4 -130 c0 -12 -24 -55 -32 -55 -10 0 -11 44
-1 53 7 8 33 9 33 2z m1210 -5 c0 -5 -2 -10 -4 -10 -3 0 -8 5 -11 10 -3 6 -1
10 4 10 6 0 11 -4 11 -10z m58 -13 c2 -10 -3 -17 -12 -17 -10 0 -16 9 -16 21
0 24 23 21 28 -4z m16 -95 c20 -39 46 -132 37 -132 -4 0 -17 31 -30 70 -12 38
-26 72 -31 75 -6 4 -10 11 -10 16 0 16 19 0 34 -29z m-14 -75 l24 -78 -86 -87
c-47 -48 -129 -139 -183 -202 -224 -264 -401 -380 -579 -380 -99 0 -167 30
-248 108 -38 36 -68 70 -68 76 0 6 37 24 83 40 143 50 324 125 419 172 187 94
254 142 528 379 41 35 77 61 80 57 4 -4 17 -42 30 -85z m-390 -141 c0 -2 -37
-28 -82 -57 -116 -74 -313 -166 -523 -244 l-180 -67 -25 32 c-86 112 -111 138
-156 165 -33 20 -49 36 -46 45 26 84 45 120 62 120 11 0 50 -12 87 -26 242
-91 227 -88 373 -88 148 0 221 16 395 88 83 35 95 39 95 32z m480 -174 c24
-84 41 -154 39 -156 -2 -1 -40 -15 -84 -30 -115 -40 -277 -119 -476 -233 -257
-148 -300 -170 -417 -220 -145 -60 -274 -93 -417 -104 -162 -13 -204 -12 -238
9 -77 44 -93 123 -58 276 26 110 10 98 224 161 l128 37 75 -81 c56 -60 92 -88
142 -113 62 -31 73 -33 167 -33 88 1 109 5 176 31 145 58 278 168 453 374 118
139 229 252 237 242 4 -4 26 -76 49 -160z m-1459 -45 c38 -25 132 -144 126
-160 -3 -11 -259 -88 -267 -81 -9 10 82 264 94 264 7 0 28 -10 47 -23z m1549
-295 c20 -78 34 -142 31 -142 -3 0 -31 9 -61 21 -72 27 -187 49 -258 49 -181
-1 -400 -104 -577 -271 -38 -36 -80 -71 -92 -78 -14 -7 -82 -11 -195 -10 -135
1 -163 3 -128 11 168 35 392 133 636 279 238 142 560 296 598 285 5 -1 26 -66
46 -144z m-128 -151 c42 -11 98 -30 124 -43 l49 -23 -1 -61 c-1 -76 -24 -117
-81 -145 -42 -20 -51 -21 -440 -13 l-397 7 54 50 c228 210 461 287 692 228z
m-719 -318 c-7 -2 -21 -2 -30 0 -10 3 -4 5 12 5 17 0 24 -2 18 -5z m562 -3
c55 -5 6 -7 -155 -7 -129 0 -266 3 -305 7 -92 10 349 10 460 0z"/>
<path d="M890 1702 c0 -5 7 -13 16 -16 10 -4 14 -1 12 6 -5 15 -28 23 -28 10z"/>
<path d="M940 1680 c0 -5 5 -10 11 -10 5 0 7 5 4 10 -3 6 -8 10 -11 10 -2 0
-4 -4 -4 -10z"/>
<path d="M990 1660 c0 -5 5 -10 11 -10 5 0 7 5 4 10 -3 6 -8 10 -11 10 -2 0
-4 -4 -4 -10z"/>
<path d="M1040 1630 c0 -5 5 -10 10 -10 6 0 10 5 10 10 0 6 -4 10 -10 10 -5 0
-10 -4 -10 -10z"/>
<path d="M1075 1620 c3 -5 11 -10 16 -10 6 0 7 5 4 10 -3 6 -11 10 -16 10 -6
0 -7 -4 -4 -10z"/>
<path d="M1120 1600 c0 -5 5 -10 11 -10 5 0 7 5 4 10 -3 6 -8 10 -11 10 -2 0
-4 -4 -4 -10z"/>
<path d="M1165 1580 c3 -5 11 -10 16 -10 6 0 7 5 4 10 -3 6 -11 10 -16 10 -6
0 -7 -4 -4 -10z"/>
<path d="M1225 1560 c3 -5 8 -10 11 -10 2 0 4 5 4 10 0 6 -5 10 -11 10 -5 0
-7 -4 -4 -10z"/>
<path d="M1260 1550 c0 -5 5 -10 10 -10 6 0 10 5 10 10 0 6 -4 10 -10 10 -5 0
-10 -4 -10 -10z"/>
<path d="M1300 1540 c0 -7 3 -10 7 -7 3 4 3 10 0 14 -4 3 -7 0 -7 -7z"/>
<path d="M1330 1530 c0 -5 5 -10 11 -10 5 0 7 5 4 10 -3 6 -8 10 -11 10 -2 0
-4 -4 -4 -10z"/>
<path d="M1365 1520 c3 -5 8 -10 11 -10 2 0 4 5 4 10 0 6 -5 10 -11 10 -5 0
-7 -4 -4 -10z"/>
<path d="M1403 1513 c4 -3 10 -3 14 0 3 4 0 7 -7 7 -7 0 -10 -3 -7 -7z"/>
<path d="M1440 1510 c0 -7 3 -10 7 -7 3 4 3 10 0 14 -4 3 -7 0 -7 -7z"/>
<path d="M1475 1510 c-3 -5 -1 -10 4 -10 6 0 11 5 11 10 0 6 -2 10 -4 10 -3 0
-8 -4 -11 -10z"/>
</g>
</svg>
