<?xml version="1.0" standalone="no"?>
<!DOCTYPE svg PUBLIC "-//W3C//DTD SVG 20010904//EN"
 "http://www.w3.org/TR/2001/REC-SVG-20010904/DTD/svg10.dtd">
<svg version="1.0" xmlns="http://www.w3.org/2000/svg"
 width="300.000000pt" height="300.000000pt" viewBox="0 0 300.000000 300.000000"
 preserveAspectRatio="xMidYMid meet">
<metadata>
Created by potrace 1.10, written by Peter Selinger 2001-2011
</metadata>
<g transform="translate(0.000000,300.000000) scale(0.100000,-0.100000)"
fill="#000000" stroke="none">
<path d="M2404 2594 c-161 -101 -294 -208 -553 -448 -234 -217 -287 -254 -391
-275 -58 -12 -150 -2 -191 20 -17 9 -41 7 -118 -11 -372 -85 -433 -105 -456
-151 -25 -47 -4 -74 89 -119 199 -95 637 -218 809 -227 158 -9 195 12 362 212
51 61 117 133 148 162 54 51 160 113 173 101 15 -16 2 -129 -38 -325 -27 -138
-39 -216 -33 -222 6 -6 29 -13 52 -17 40 -6 42 -5 48 22 67 299 123 456 224
627 88 147 112 211 118 313 7 98 -14 200 -58 294 -35 75 -55 100 -79 100 -9 0
-57 -25 -106 -56z m87 -41 c-24 -46 -78 -114 -275 -343 -279 -326 -357 -409
-418 -450 -160 -107 -333 -92 -521 46 -27 20 -47 38 -44 41 3 2 37 -13 75 -36
109 -63 211 -94 302 -89 103 5 156 32 256 132 73 74 461 524 579 673 56 71 75
81 46 26z m86 -79 c20 -54 27 -92 29 -169 4 -118 -18 -195 -85 -298 -94 -146
-177 -348 -220 -537 -29 -126 -31 -131 -42 -125 -12 8 -12 60 1 105 5 19 11
46 14 60 2 14 13 74 25 133 24 126 26 194 6 221 -8 11 -15 23 -15 27 0 4 33
20 73 35 66 26 112 52 104 61 -7 7 -143 -40 -202 -70 -111 -56 -186 -113 -251
-194 -223 -272 -254 -293 -420 -293 -59 0 -123 4 -143 10 -31 8 -132 33 -181
45 -59 13 -76 20 -85 30 -5 7 -80 36 -165 65 -163 56 -287 107 -278 115 3 3
47 -11 99 -31 107 -41 339 -124 346 -124 3 0 0 7 -7 15 -16 19 -71 45 -155 73
-33 12 -98 35 -144 51 -46 17 -92 31 -102 31 -26 0 -24 16 4 34 30 20 414 115
421 104 1 -2 10 -15 19 -30 9 -15 45 -46 79 -69 108 -74 232 -107 338 -90 57
9 153 46 182 70 48 40 123 114 160 157 24 28 104 120 179 205 190 216 325 383
350 431 25 49 32 44 66 -48z m-177 59 c0 -5 -13 -22 -28 -39 -15 -17 -45 -53
-67 -80 -22 -26 -58 -69 -80 -94 -22 -25 -60 -70 -85 -100 -355 -423 -397
-459 -534 -460 -93 0 -225 38 -211 61 4 5 10 7 14 5 12 -8 113 19 156 42 67
35 154 104 305 243 268 247 369 331 478 400 50 32 52 32 52 22z"/>
<path d="M2333 2005 c-76 -24 -183 -87 -233 -137 -66 -66 -66 -93 0 -36 27 24
78 60 112 81 62 37 199 87 241 87 18 0 19 2 7 10 -20 13 -76 11 -127 -5z"/>
<path d="M1745 1508 c-11 -7 -58 -22 -105 -34 -60 -15 -80 -24 -67 -29 43 -18
167 15 222 59 20 15 20 15 -5 15 -14 0 -34 -5 -45 -11z"/>
<path d="M266 1475 c-27 -27 -40 -96 -40 -215 1 -203 61 -339 209 -470 203
-179 318 -322 444 -552 55 -101 60 -104 110 -79 22 12 42 25 46 30 3 6 -38 88
-91 183 -112 200 -164 309 -164 344 0 29 26 31 110 9 76 -20 156 -61 299 -155
216 -142 273 -162 385 -136 100 24 294 129 521 284 245 167 395 298 395 344
-1 74 -79 95 -301 78 -354 -26 -345 -24 -385 -55 -62 -48 -140 -74 -218 -75
-94 0 -192 35 -471 168 -318 152 -482 218 -672 270 -157 44 -160 44 -177 27z
m127 -103 c70 -47 592 -379 750 -476 253 -157 412 -138 631 77 127 123 133
125 50 16 -92 -121 -203 -195 -331 -219 -52 -11 -73 -10 -139 5 -91 20 -156
53 -404 207 -469 290 -627 395 -638 426 -6 20 5 15 81 -36z m109 19 c71 -21
246 -84 275 -100 10 -6 54 -26 98 -45 44 -18 141 -63 215 -99 194 -93 247
-116 320 -143 83 -31 190 -41 259 -24 64 15 76 6 36 -27 -153 -126 -299 -154
-440 -83 -60 29 -338 200 -521 320 -12 8 -56 35 -96 59 -100 60 -215 138 -223
151 -9 14 0 13 77 -9z m29 -190 c74 -46 163 -103 199 -126 36 -23 124 -77 195
-120 72 -43 141 -86 155 -95 60 -41 189 -101 252 -116 156 -38 304 6 435 130
63 59 110 129 127 187 3 12 32 18 138 28 187 18 335 22 363 9 23 -10 22 -12
-38 -51 -34 -21 -84 -58 -112 -81 -27 -23 -77 -61 -110 -85 -66 -48 -125 -105
-125 -121 0 -11 181 121 325 236 87 70 119 87 79 43 -21 -24 -220 -178 -327
-253 -37 -26 -65 -52 -62 -56 3 -5 -14 -22 -38 -38 -82 -57 -291 -172 -311
-172 -12 0 -45 -9 -74 -20 -29 -11 -72 -20 -95 -20 -67 0 -177 44 -284 113
-54 35 -116 74 -138 87 -22 13 -42 27 -45 31 -11 14 -73 40 -157 65 -68 20
-117 27 -218 31 -105 4 -128 3 -118 -8 7 -7 52 -15 108 -20 53 -3 98 -9 101
-12 3 -3 1 -14 -4 -24 -20 -39 10 -117 133 -343 52 -96 95 -180 95 -187 0 -26
-30 -12 -53 24 -13 21 -50 81 -82 133 -104 169 -211 294 -366 432 -148 130
-205 244 -215 425 -4 69 -2 118 5 136 l11 29 59 -54 c32 -29 119 -91 192 -137z"/>
<path d="M625 862 c-27 -2 -60 -11 -73 -20 -21 -16 -18 -17 84 -14 123 4 218
-14 325 -59 37 -16 71 -29 75 -29 18 0 -26 35 -78 61 -92 47 -213 69 -333 61z"/>
<path d="M1617 544 c-3 -3 -58 -6 -121 -6 -64 -1 -116 -4 -116 -8 0 -11 82
-30 128 -30 44 0 138 26 147 40 7 11 -28 14 -38 4z"/>
</g>
</svg>
