<?xml version="1.0" standalone="no"?>
<!DOCTYPE svg PUBLIC "-//W3C//DTD SVG 20010904//EN"
 "http://www.w3.org/TR/2001/REC-SVG-20010904/DTD/svg10.dtd">
<svg version="1.0" xmlns="http://www.w3.org/2000/svg"
 width="300.000000pt" height="300.000000pt" viewBox="0 0 300.000000 300.000000"
 preserveAspectRatio="xMidYMid meet">
<metadata>
Created by potrace 1.10, written by Peter Selinger 2001-2011
</metadata>
<g transform="translate(0.000000,300.000000) scale(0.050000,-0.050000)"
fill="#000000" stroke="none">
<path d="M1092 4899 c-162 -142 -240 -505 -241 -1129 -2 -955 167 -1187 768
-1052 101 22 101 10 0 -89 -146 -141 -439 -569 -439 -640 0 -70 1026 -1059
1071 -1033 21 11 59 122 109 317 114 445 286 1049 425 1482 l122 385 205 0
204 0 95 -255 c202 -545 549 -1685 549 -1803 0 -47 57 -122 92 -122 45 0 1028
989 1028 1035 0 89 -306 524 -450 640 -89 70 -88 85 5 63 245 -56 483 0 573
135 293 443 229 1835 -95 2075 -219 163 -918 -142 -1467 -640 l-156 -141 -88
46 c-124 66 -464 69 -595 6 l-85 -42 -168 147 c-600 522 -1254 798 -1462 615z
m339 -170 c415 -108 1188 -625 1205 -807 11 -113 -2 -125 -100 -90 -430 153
-856 168 -856 29 0 -60 133 -99 520 -151 537 -73 549 -89 170 -229 -856 -315
-1101 -428 -1137 -522 -29 -78 -56 -66 -97 46 -156 420 -121 1306 67 1680 43
85 58 88 228 44z m3542 -72 c44 -41 124 -262 155 -427 97 -510 -3 -1308 -169
-1360 -23 -8 -44 -11 -46 -7 -1 4 -17 34 -33 66 -39 75 -160 136 -800 404
-640 268 -640 269 -67 356 476 73 583 120 458 202 -118 78 -419 55 -720 -54
-87 -31 -161 -57 -165 -57 -3 0 -6 44 -6 99 0 326 1176 982 1393 778z m-1614
-656 c79 -43 85 -486 8 -563 -79 -79 -486 -75 -529 6 -39 72 -34 459 7 520 48
74 397 99 514 37z m-630 -703 c-6 -10 3 -18 20 -18 41 0 40 -48 -2 -82 -29
-25 -31 -22 -20 22 7 28 7 39 1 25 -22 -48 -47 -25 -28 25 12 32 12 50 0 50
-11 0 -20 10 -20 22 0 16 9 15 30 -2 16 -13 25 -33 19 -42z m-149 6 c0 -95
-883 -443 -1125 -444 -100 0 -57 38 90 81 335 98 416 125 635 210 127 50 262
108 300 129 78 42 100 48 100 24z m1175 -52 c150 -75 620 -263 830 -331 264
-86 173 -110 -121 -31 -316 85 -864 346 -864 413 0 26 10 23 155 -51z m-1095
-178 c0 -4 -28 -82 -61 -174 -101 -276 -369 -1267 -428 -1580 -9 -46 -42 -19
-389 318 l-380 368 124 181 c198 290 307 390 614 565 149 84 320 192 380 239
98 77 140 101 140 83z m1002 -66 c40 -49 278 -205 558 -366 280 -162 368 -239
532 -467 l114 -158 -371 -372 -372 -372 -21 89 c-136 552 -376 1349 -471 1563
-51 115 -34 161 31 83z"/>
</g>
</svg>
