<?xml version="1.0" standalone="no"?>
<!DOCTYPE svg PUBLIC "-//W3C//DTD SVG 20010904//EN"
 "http://www.w3.org/TR/2001/REC-SVG-20010904/DTD/svg10.dtd">
<svg version="1.0" xmlns="http://www.w3.org/2000/svg"
 width="300.000000pt" height="300.000000pt" viewBox="0 0 300.000000 300.000000"
 preserveAspectRatio="xMidYMid meet">
<metadata>
Created by potrace 1.10, written by Peter Selinger 2001-2011
</metadata>
<g transform="translate(0.000000,300.000000) scale(0.050000,-0.050000)"
fill="#000000" stroke="none">
<path d="M2969 5600 c-197 -77 -484 -357 -528 -514 -11 -42 -21 -243 -21 -448
l0 -372 -50 -23 c-84 -38 -93 -99 -88 -613 4 -459 3 -480 -34 -487 -76 -14
-108 -64 -108 -171 0 -87 -7 -105 -45 -122 l-45 -20 -5 -1043 -5 -1044 47 -37
c91 -72 886 -256 987 -229 121 32 591 257 621 297 19 26 25 264 25 1029 l0
996 -49 32 c-41 27 -50 51 -55 144 -6 110 -17 127 -100 153 -31 9 -33 52 -23
506 12 552 5 599 -93 619 l-60 12 0 491 c0 829 -60 965 -371 844z m151 -205
c0 -71 -195 -295 -322 -369 l-58 -35 0 -402 c0 -437 2 -428 -70 -414 l-50 10
0 417 c0 321 6 418 25 418 46 1 293 201 369 300 77 100 106 120 106 75z m-50
-415 c-7 -11 1 -14 19 -8 34 13 45 -41 12 -61 -11 -7 -11 -36 0 -73 9 -34 12
-104 7 -155 -6 -51 -13 -111 -15 -133 -3 -22 9 -62 26 -89 20 -31 22 -44 6
-34 -16 10 -25 4 -25 -17 0 -19 9 -27 23 -18 15 9 18 5 8 -11 -10 -15 -5 -34
11 -45 21 -15 19 -17 -9 -8 -27 9 -34 5 -26 -16 6 -16 -2 -40 -18 -53 -16 -13
-29 -18 -29 -10 0 8 -14 0 -31 -17 -50 -50 -85 -1 -73 102 5 49 -1 97 -13 113
-13 15 -17 33 -9 40 22 22 21 121 -2 152 -17 22 -15 26 10 17 31 -12 40 32 14
74 -26 42 -1 164 44 216 45 51 96 76 70 34z m265 -905 c-17 -54 -127 -84 -340
-91 l-215 -8 0 -468 c0 -410 -4 -468 -31 -468 -17 0 -94 10 -170 23 l-139 23
0 499 0 499 48 -12 c228 -57 540 -54 742 7 86 25 114 24 105 -4z m-63 -281
c16 -16 17 -203 1 -229 -7 -12 -5 -28 7 -35 11 -7 20 -21 20 -32 0 -11 -11
-14 -25 -5 -19 11 -20 7 -4 -14 11 -16 18 -69 16 -119 -2 -49 -5 -129 -5 -177
-2 -77 -7 -86 -42 -77 -22 6 -45 2 -51 -7 -6 -10 -30 -10 -55 -1 -24 9 -64 9
-88 0 -62 -23 -61 -27 -62 338 l0 326 49 19 c65 25 106 24 67 -1 -26 -17 -25
-19 5 -20 19 0 35 13 35 30 0 28 105 32 132 4z m-742 -865 c203 -47 541 -42
730 9 172 47 180 48 180 25 0 -21 -257 -98 -387 -116 l-97 -13 10 -77 c13
-101 -31 -100 -491 6 l-175 40 0 89 c0 82 4 88 45 79 25 -6 108 -25 185 -42z
m-30 -316 c393 -87 495 -88 730 -3 110 40 218 77 240 83 93 24 -66 -74 -234
-144 l-174 -74 -6 -886 c-5 -676 -12 -893 -31 -912 -20 -20 -25 158 -25 889
l0 914 -65 0 c-36 0 -155 14 -265 31 -110 17 -243 36 -295 43 l-95 12 0 -875
c0 -790 -3 -874 -32 -863 -17 7 -35 12 -40 12 -4 0 -8 419 -8 931 0 880 2 929
35 912 19 -10 139 -42 265 -70z m1000 -153 c28 0 16 -247 -16 -296 -16 -25
-24 -51 -17 -58 7 -6 21 10 31 36 16 40 20 30 21 -58 0 -61 -7 -101 -18 -95
-28 18 -38 -14 -18 -59 16 -35 17 -34 9 8 -8 36 -4 42 14 24 17 -17 17 -32 -1
-62 -15 -23 -17 -43 -5 -50 11 -7 19 -88 18 -181 -1 -93 -8 -165 -17 -159 -9
5 -21 -8 -26 -29 -8 -27 -2 -35 18 -27 32 12 30 -35 -3 -58 -13 -10 -11 -29 5
-54 17 -29 18 -44 2 -54 -14 -9 -13 -19 6 -32 22 -15 22 -21 1 -29 -20 -8 -20
-17 -3 -39 13 -15 19 -40 13 -55 -6 -14 -3 -39 6 -53 10 -16 3 -47 -17 -78
-18 -28 -23 -44 -10 -36 16 9 20 1 13 -26 -6 -22 -19 -35 -28 -29 -10 6 -18
-2 -18 -18 0 -17 -26 -36 -60 -43 -33 -7 -56 -20 -52 -27 5 -8 -17 -17 -49
-19 -51 -4 -58 1 -51 41 4 25 0 54 -9 65 -9 12 -8 90 3 174 10 85 16 165 13
180 -3 14 8 23 23 20 23 -5 24 -1 4 24 -32 39 -45 612 -13 612 11 0 9 8 -6 18
-21 13 -22 26 -4 59 12 24 15 43 5 43 -9 0 -14 34 -10 75 4 41 9 102 12 135 7
73 53 149 84 137 12 -4 35 15 50 43 16 30 39 47 55 41 16 -6 36 -11 45 -11z
m-736 -179 c18 -20 28 -42 21 -49 -6 -7 -1 -12 13 -12 13 0 19 -9 12 -20 -7
-12 -21 -15 -32 -9 -20 12 -10 -86 11 -107 6 -6 1 -22 -12 -37 -17 -21 -15
-27 9 -27 20 0 27 -13 20 -40 -6 -22 -19 -40 -28 -40 -10 0 -18 -10 -18 -21 0
-12 8 -16 18 -10 9 6 22 -12 27 -39 5 -27 2 -45 -6 -40 -8 6 -20 -4 -27 -21
-6 -18 -3 -26 8 -19 11 7 20 -7 20 -30 0 -23 -9 -37 -20 -30 -11 7 -20 3 -20
-9 0 -11 9 -21 20 -21 11 0 20 -13 20 -30 0 -16 -8 -30 -19 -30 -10 0 -7 -23
7 -50 30 -58 19 -156 -15 -136 -13 7 -7 -5 13 -28 31 -36 32 -43 4 -66 -24
-20 -25 -31 -7 -54 19 -23 18 -33 -4 -47 -18 -11 -20 -19 -5 -19 36 0 41 -67
7 -95 -27 -22 -25 -23 9 -11 37 12 38 10 10 -24 -22 -27 -24 -39 -6 -45 17 -5
19 -22 6 -56 -11 -27 -14 -61 -9 -76 26 -67 19 -186 -11 -190 -70 -8 -151 0
-167 16 -10 10 -32 13 -49 6 -23 -9 -28 -2 -20 28 7 28 0 40 -27 42 -20 1 -37
-6 -37 -17 0 -11 11 -14 25 -6 14 8 21 9 15 3 -44 -51 -76 95 -37 170 12 22
11 35 -2 35 -12 0 -21 10 -21 21 0 12 7 17 15 12 8 -5 15 199 14 454 -1 294 7
474 20 492 15 21 15 25 -2 15 -14 -9 -22 -2 -19 15 5 38 32 65 32 33 0 -13 10
-18 23 -10 15 9 7 25 -23 48 -38 29 -43 46 -33 122 6 48 11 95 12 103 1 9 23
10 49 4 26 -7 53 -3 61 9 16 27 108 -7 155 -57z"/>
</g>
</svg>
