<?xml version="1.0" standalone="no"?>
<!DOCTYPE svg PUBLIC "-//W3C//DTD SVG 20010904//EN"
 "http://www.w3.org/TR/2001/REC-SVG-20010904/DTD/svg10.dtd">
<svg version="1.0" xmlns="http://www.w3.org/2000/svg"
 width="300.000000pt" height="300.000000pt" viewBox="0 0 300.000000 300.000000"
 preserveAspectRatio="xMidYMid meet">
<metadata>
Created by potrace 1.10, written by Peter Selinger 2001-2011
</metadata>
<g transform="translate(0.000000,300.000000) scale(0.100000,-0.100000)"
fill="#000000" stroke="none">
<path d="M1453 2941 c-149 -51 -231 -179 -418 -651 -53 -135 -113 -285 -132
-334 -19 -48 -31 -92 -26 -96 4 -4 25 -13 46 -20 32 -10 37 -15 31 -33 -9 -31
-11 -32 -39 -19 -62 29 -89 4 -134 -121 -38 -106 -38 -121 -6 -153 14 -14 25
-28 25 -31 0 -4 -23 -65 -51 -137 -46 -117 -51 -137 -46 -187 3 -32 -1 -78 -8
-107 -22 -84 -37 -315 -34 -502 4 -175 4 -176 37 -243 36 -73 68 -103 152
-141 53 -24 167 -49 182 -39 4 2 -8 20 -27 39 -44 44 -88 130 -109 215 -9 36
-30 175 -46 310 -33 266 -47 360 -56 383 -7 17 20 23 30 7 3 -5 17 -80 31
-167 91 -568 97 -592 176 -697 29 -38 64 -73 78 -79 89 -35 974 93 1183 172
98 36 149 111 156 230 5 89 -11 185 -74 432 -76 299 -106 368 -177 404 -26 14
-49 16 -137 10 -381 -25 -1124 -136 -1236 -186 -26 -11 -48 -20 -50 -20 -12 0
2 49 44 165 43 118 50 130 74 133 38 5 57 31 89 127 35 105 36 125 4 163 l-25
30 29 21 c31 23 38 38 136 306 210 573 260 671 376 729 66 33 111 33 176 0 66
-32 118 -90 155 -171 28 -62 42 -114 147 -558 27 -115 77 -311 110 -435 50
-189 64 -229 86 -247 31 -27 57 -29 76 -7 11 14 9 34 -15 128 -36 141 -288
1022 -315 1100 -50 142 -141 238 -260 276 -77 25 -140 25 -208 1z m-36 -103
c-42 -43 -86 -98 -104 -133 -37 -71 -108 -244 -152 -370 -17 -49 -35 -99 -40
-110 -5 -11 -26 -65 -46 -120 -20 -55 -41 -109 -45 -120 -5 -11 -16 -42 -26
-68 -20 -56 -22 -57 -51 -46 -31 11 -29 30 16 145 148 373 178 449 216 536 97
218 174 314 285 351 8 3 16 6 17 6 2 1 -30 -32 -70 -71z m636 -770 c123 -423
163 -575 153 -586 -4 -3 -11 0 -16 8 -9 15 -55 180 -91 325 -12 50 -25 99 -30
110 -14 37 -46 195 -39 195 4 0 14 -24 23 -52z m-1138 -343 c45 -16 45 -12 9
-113 -21 -59 -30 -72 -43 -66 -9 4 -26 6 -38 6 -35 -2 -36 13 -8 90 14 40 28
79 30 86 5 15 1 15 50 -3z m1294 -409 c25 -26 25 -26 7 -57 -18 -31 -17 -51
11 -174 19 -84 43 -236 43 -269 0 -94 -36 -117 -238 -152 l-152 -26 -37 32
c-36 32 -38 33 -112 27 -137 -10 -181 -24 -227 -73 -39 -41 -44 -43 -124 -53
-47 -6 -121 -11 -165 -11 -139 0 -155 21 -214 285 -42 188 -59 243 -87 288
-29 44 -26 53 18 60 18 2 130 21 248 41 207 36 530 80 675 92 39 4 104 10 145
14 118 13 179 6 209 -24z m55 -148 c38 -129 78 -297 83 -359 7 -69 -19 -134
-69 -172 -38 -29 -137 -56 -314 -83 l-111 -17 5 -46 c6 -67 -16 -90 -104 -107
-38 -7 -94 -13 -125 -14 -67 0 -88 17 -96 79 -3 23 -9 41 -13 41 -5 0 -68 -7
-142 -16 -214 -25 -322 -8 -376 61 -30 38 -57 127 -103 340 -22 105 -49 207
-60 228 -17 33 -17 38 -4 44 42 16 70 -53 125 -302 55 -253 82 -305 167 -321
36 -7 224 0 336 12 51 6 57 9 57 30 0 52 62 78 213 91 56 5 70 3 87 -12 11
-10 20 -26 20 -37 0 -10 2 -18 5 -18 28 0 354 64 379 74 73 30 96 95 78 221
-10 67 -59 285 -78 348 -3 9 -1 17 5 17 6 0 21 -37 35 -82z m-1490 -65 l-19
-28 -5 40 c-8 53 -2 61 23 37 20 -20 20 -21 1 -49z m-10 -59 c4 -15 20 -138
36 -273 38 -320 54 -409 90 -495 17 -39 30 -75 30 -80 0 -14 -57 2 -100 29
-22 14 -51 43 -66 64 -45 69 -54 119 -54 311 0 308 36 556 64 444z m1636 -381
c0 -16 -6 -23 -18 -23 -26 0 -50 -29 -57 -70 -8 -50 -14 -70 -32 -113 -15 -35
-15 -40 0 -67 10 -16 14 -31 10 -33 -5 -3 -39 -14 -78 -25 -214 -62 -803 -153
-1009 -156 l-98 -1 -37 41 c-61 69 -110 187 -111 267 l0 28 23 -21 c53 -51 96
-64 207 -65 58 0 146 4 196 8 l91 9 12 -30 c7 -16 25 -42 41 -57 24 -23 37
-28 83 -27 66 0 173 20 209 39 33 16 58 52 67 95 4 17 13 35 21 39 8 4 80 19
159 34 176 32 227 55 272 125 33 51 49 52 49 3z m-10 -102 c0 -52 -40 -145
-67 -155 -24 -9 -28 1 -10 22 26 29 47 88 47 135 0 24 3 47 6 50 14 14 24 -7
24 -52z"/>
<path d="M1710 1280 c-132 -17 -160 -22 -250 -36 -52 -9 -111 -18 -130 -21
-155 -22 -340 -92 -340 -129 0 -23 32 -46 54 -40 127 37 295 73 497 106 265
44 376 67 385 81 8 13 -6 12 -261 -26 -330 -48 -523 -89 -617 -128 -22 -9 -40
-12 -43 -6 -23 36 353 120 783 175 72 9 132 21 132 25 0 10 -131 10 -210 -1z"/>
<path d="M1676 595 c-101 -17 -107 -23 -95 -100 6 -33 14 -64 19 -69 5 -5 41
-4 87 3 125 20 117 13 110 94 -5 61 -17 89 -37 86 -3 -1 -41 -7 -84 -14z m78
-51 c9 -24 7 -52 -4 -59 -6 -4 -34 -9 -61 -12 -55 -6 -69 3 -69 44 0 17 7 24
28 29 15 3 32 7 37 9 27 9 63 4 69 -11z"/>
</g>
</svg>
