<?xml version="1.0" standalone="no"?>
<!DOCTYPE svg PUBLIC "-//W3C//DTD SVG 20010904//EN"
 "http://www.w3.org/TR/2001/REC-SVG-20010904/DTD/svg10.dtd">
<svg version="1.0" xmlns="http://www.w3.org/2000/svg"
 width="300.000000pt" height="300.000000pt" viewBox="0 0 300.000000 300.000000"
 preserveAspectRatio="xMidYMid meet">
<metadata>
Created by potrace 1.10, written by Peter Selinger 2001-2011
</metadata>
<g transform="translate(0.000000,300.000000) scale(0.100000,-0.100000)"
fill="#000000" stroke="none">
<path d="M1465 2947 c-121 -41 -204 -134 -298 -336 -43 -95 -284 -697 -287
-721 -5 -32 1 -40 40 -51 34 -10 39 -15 34 -33 -9 -29 -9 -29 -48 -15 -55 20
-83 -6 -123 -117 -39 -109 -40 -124 -8 -162 l25 -30 -51 -134 c-45 -118 -51
-139 -46 -189 3 -32 -1 -78 -9 -108 -35 -138 -48 -579 -20 -684 21 -76 64
-137 123 -175 56 -35 140 -62 195 -62 l38 0 -36 47 c-83 108 -102 180 -149
557 -19 154 -38 298 -42 320 -5 30 -3 38 8 34 17 -6 21 -25 70 -339 59 -383
83 -462 173 -563 42 -48 46 -50 105 -54 158 -11 910 103 1109 169 118 39 172
111 180 239 5 87 -11 183 -68 412 -65 257 -96 345 -140 392 l-39 41 -113 -1
c-262 -3 -1067 -116 -1246 -175 -35 -12 -66 -18 -70 -15 -3 4 0 21 6 39 7 18
29 78 49 135 32 93 38 104 64 109 40 8 57 31 90 125 35 102 36 128 4 166 l-25
30 29 21 c33 23 30 17 206 491 141 378 196 481 293 537 91 54 201 29 281 -62
66 -76 87 -138 176 -520 37 -158 97 -403 135 -544 59 -218 73 -259 95 -278 31
-27 57 -29 76 -7 11 14 8 36 -20 148 -41 161 -250 892 -297 1036 -53 165 -132
265 -249 315 -54 22 -169 29 -220 12z m-521 -1237 c7 -7 3 -32 -13 -78 -30
-84 -38 -95 -61 -82 -10 6 -25 7 -33 4 -8 -3 -18 -1 -21 4 -5 9 34 138 50 163
7 12 63 4 78 -11z m923 -456 c-3 -3 -12 -4 -19 -1 -8 3 -5 6 6 6 11 1 17 -2
13 -5z m-47 -10 c-8 -2 -91 -15 -185 -29 -226 -34 -501 -90 -564 -114 -28 -10
-51 -15 -51 -11 0 32 332 104 695 153 38 5 125 6 105 1z m458 -136 c76 -267
85 -361 39 -430 -42 -62 -95 -79 -389 -129 l-68 -11 0 -48 c0 -67 -20 -87
-105 -105 -38 -8 -95 -15 -126 -15 -67 0 -88 17 -96 80 l-6 42 -41 -5 c-23 -4
-104 -12 -181 -18 -126 -11 -146 -10 -200 5 -113 33 -134 75 -206 401 -23 105
-48 207 -56 228 -18 45 -12 55 20 34 29 -18 54 -94 97 -292 55 -253 82 -305
167 -321 38 -7 265 2 342 14 40 6 46 10 53 40 11 42 43 56 160 73 104 14 133
8 153 -32 14 -26 20 -29 48 -24 323 55 364 68 401 118 32 43 27 166 -12 337
-46 204 -44 197 -34 180 6 -8 24 -63 40 -122z m112 -541 c0 -49 -18 -104 -45
-134 -34 -40 -40 -23 -10 28 14 25 25 60 25 81 0 20 3 43 6 52 9 25 24 8 24
-27z"/>
<path d="M1671 595 c-92 -15 -101 -25 -89 -102 5 -32 13 -62 18 -67 5 -5 41
-4 87 3 124 19 116 13 110 87 -5 63 -19 95 -41 93 -6 -1 -44 -7 -85 -14z"/>
</g>
</svg>
