<?xml version="1.0" standalone="no"?>
<!DOCTYPE svg PUBLIC "-//W3C//DTD SVG 20010904//EN"
 "http://www.w3.org/TR/2001/REC-SVG-20010904/DTD/svg10.dtd">
<svg version="1.0" xmlns="http://www.w3.org/2000/svg"
 width="300.000000pt" height="300.000000pt" viewBox="0 0 300.000000 300.000000"
 preserveAspectRatio="xMidYMid meet">
<metadata>
Created by potrace 1.10, written by Peter Selinger 2001-2011
</metadata>
<g transform="translate(0.000000,300.000000) scale(0.100000,-0.100000)"
fill="#000000" stroke="none">
<path d="M1808 2381 c-29 -26 -33 -35 -32 -79 0 -42 14 -75 101 -238 56 -104
178 -342 273 -529 239 -470 300 -585 311 -585 15 0 11 21 -22 105 -44 114
-222 598 -350 955 -130 359 -133 367 -170 385 -42 22 -75 18 -111 -14z m115
-101 c36 -72 56 -165 39 -182 -16 -16 -29 -2 -77 77 -44 73 -58 121 -44 147
19 35 51 18 82 -42z m169 -490 c89 -188 209 -462 205 -466 -4 -5 -186 368
-254 519 -80 180 -40 137 49 -53z"/>
<path d="M605 1840 c-3 -5 -3 -32 1 -59 l6 -50 -28 2 c-25 2 -29 -2 -29 -22 0
-20 7 -27 33 -33 43 -11 52 -36 23 -59 -16 -13 -31 -16 -53 -12 -20 4 -33 1
-39 -8 -14 -23 -11 -28 28 -46 66 -31 55 -75 -19 -77 -58 -1 -64 -28 -11 -53
39 -19 55 -49 31 -64 -7 -5 -32 -9 -54 -9 -59 0 -65 -23 -14 -55 40 -25 52
-56 29 -71 -7 -4 -30 -7 -53 -8 -56 -1 -61 -29 -9 -53 69 -33 49 -86 -28 -76
-35 5 -39 3 -39 -16 0 -16 10 -26 34 -36 39 -16 48 -32 34 -58 -7 -15 -19 -18
-51 -15 -37 3 -42 0 -45 -19 -3 -17 5 -26 33 -37 31 -13 36 -20 33 -43 -3 -26
-6 -28 -53 -28 -59 0 -74 -24 -30 -48 l27 -13 -26 -31 c-30 -36 -33 -61 -9
-70 11 -5 30 9 63 47 26 30 50 49 53 43 4 -6 -1 -32 -10 -58 -15 -45 -15 -49
2 -61 24 -18 32 -11 46 36 7 22 21 47 31 57 17 15 20 15 35 1 14 -14 14 -23 4
-64 -10 -40 -10 -50 3 -62 12 -13 18 -13 30 -2 9 7 16 21 16 31 0 26 20 67 36
73 15 6 44 -19 44 -37 0 -7 -4 -28 -10 -46 -7 -24 -6 -39 2 -48 20 -24 39 -9
56 42 14 42 21 50 42 50 24 0 25 -2 25 -65 0 -58 2 -65 20 -65 14 0 24 12 35
44 19 55 45 74 65 47 9 -12 12 -29 8 -45 -14 -52 -9 -76 14 -79 17 -3 24 3 28
25 16 73 43 99 73 70 13 -14 14 -24 5 -62 -9 -38 -8 -49 4 -61 20 -20 39 -4
47 40 4 18 15 41 26 51 17 15 22 16 36 5 12 -11 14 -25 9 -70 -6 -49 -4 -58
11 -64 22 -8 28 -1 42 50 15 53 36 72 58 53 11 -9 14 -28 12 -73 -3 -55 -1
-61 17 -61 13 0 22 10 28 30 20 66 26 75 51 75 31 0 39 -22 25 -72 -12 -48 -7
-68 21 -68 15 0 22 10 31 45 13 50 29 68 56 63 15 -3 18 -14 18 -68 0 -57 2
-65 19 -65 14 0 23 13 35 50 10 31 23 51 33 53 18 3 18 3 35 -88 6 -36 12 -45
28 -45 17 0 20 8 23 52 l3 52 33 -6 c23 -4 35 -1 39 9 7 21 -3 33 -38 45 -41
13 -48 59 -11 69 13 3 33 3 43 0 10 -3 24 -2 31 3 23 14 9 44 -25 53 -67 17
-50 81 21 76 35 -3 41 0 44 18 2 14 -6 24 -29 35 -43 19 -57 42 -39 64 10 13
23 15 51 11 26 -4 40 -2 49 9 16 19 6 32 -36 50 -61 25 -38 79 33 73 32 -3 38
0 41 19 2 16 -4 24 -32 33 -37 12 -56 44 -36 64 6 6 30 11 53 11 35 0 42 3 45
22 2 16 -4 24 -32 33 -36 12 -49 30 -40 55 7 17 11 18 69 19 55 1 61 30 10 52
-68 28 -58 79 16 79 33 0 44 4 47 17 2 12 -6 21 -23 28 l-26 10 30 37 c64 78
23 101 -49 28 -24 -25 -48 -41 -53 -36 -4 4 -3 29 4 55 9 36 9 50 0 59 -18 18
-43 -4 -56 -49 -9 -34 -14 -39 -40 -39 l-30 0 3 63 c3 61 3 63 -18 60 -16 -2
-27 -16 -39 -48 -14 -37 -21 -45 -41 -45 -24 0 -25 3 -25 60 0 53 -3 60 -20
63 -16 2 -24 -7 -35 -39 -19 -53 -43 -70 -66 -47 -14 14 -15 23 -6 60 9 35 8
46 -3 57 -19 20 -38 2 -53 -48 -13 -41 -31 -55 -58 -44 -12 5 -15 18 -12 67 3
55 1 61 -17 61 -14 0 -24 -13 -36 -45 -14 -39 -20 -45 -45 -45 l-29 0 3 63 c4
61 3 63 -19 60 -18 -2 -26 -13 -34 -42 -13 -44 -34 -63 -59 -53 -15 6 -17 17
-14 65 3 52 1 57 -18 60 -18 3 -24 -5 -35 -39 -17 -53 -42 -70 -65 -47 -14 14
-15 23 -6 60 9 35 8 46 -3 57 -19 20 -38 2 -53 -48 -13 -40 -31 -55 -58 -44
-12 4 -15 19 -12 67 3 55 1 61 -17 61 -14 0 -24 -12 -35 -45 -13 -36 -21 -46
-42 -48 -32 -4 -42 19 -28 66 11 40 4 62 -20 62 -13 0 -23 -14 -35 -49 -19
-58 -41 -72 -55 -35 -6 14 -10 37 -10 50 0 48 -36 84 -55 54z"/>
</g>
</svg>
