<?xml version="1.0" standalone="no"?>
<!DOCTYPE svg PUBLIC "-//W3C//DTD SVG 20010904//EN"
 "http://www.w3.org/TR/2001/REC-SVG-20010904/DTD/svg10.dtd">
<svg version="1.0" xmlns="http://www.w3.org/2000/svg"
 width="300.000000pt" height="300.000000pt" viewBox="0 0 300.000000 300.000000"
 preserveAspectRatio="xMidYMid meet">
<metadata>
Created by potrace 1.10, written by Peter Selinger 2001-2011
</metadata>
<g transform="translate(0.000000,300.000000) scale(0.100000,-0.100000)"
fill="#000000" stroke="none">
<path d="M1208 2649 c-50 -26 -70 -58 -70 -114 0 -46 33 -116 66 -144 19 -16
12 -31 -13 -31 -24 0 -61 -41 -61 -67 0 -22 43 -63 65 -63 6 0 17 -23 23 -51
16 -66 15 -89 -1 -89 -25 0 -182 -100 -219 -140 -29 -29 -38 -48 -38 -73 0
-78 108 -413 180 -558 57 -116 94 -149 165 -149 107 0 453 80 529 123 78 44
81 53 80 275 0 108 -6 240 -13 292 -28 217 -36 240 -96 264 -37 16 -169 36
-234 36 l-47 0 -12 62 c-11 60 -11 63 13 88 29 30 31 47 9 79 -14 19 -23 22
-61 19 -43 -3 -44 -2 -38 22 27 110 11 183 -50 220 -43 27 -126 26 -177 -1z
m137 -43 c46 -19 59 -48 51 -112 -10 -84 -19 -101 -63 -108 -21 -4 -46 -9 -55
-12 -11 -3 -18 0 -18 8 0 7 -13 33 -30 58 -55 83 -51 131 13 161 51 23 58 23
102 5z m153 -258 c-3 -7 -60 -24 -129 -39 -201 -42 -189 -40 -189 -24 0 8 10
17 23 20 223 52 302 64 295 43z m-36 -140 c8 -35 12 -68 10 -75 -6 -19 -96
-45 -144 -41 l-42 3 -13 60 c-7 33 -12 65 -13 71 0 9 120 39 172 43 12 1 20
-14 30 -61z m272 -118 c4 -4 0 -10 -10 -13 -11 -3 -51 -15 -90 -26 -154 -45
-549 -119 -563 -105 -7 7 28 30 99 65 59 30 72 33 147 30 65 -2 91 2 132 19
28 12 56 29 63 37 10 12 30 14 113 8 55 -4 104 -11 109 -15z m84 -47 c5 -10
15 -58 21 -108 7 -49 14 -103 16 -120 10 -75 17 -317 10 -370 -10 -80 -37
-106 -146 -139 -230 -70 -426 -97 -465 -65 -58 48 -166 315 -224 551 -12 49
-19 92 -15 97 3 5 29 10 58 10 113 0 441 60 587 107 53 17 63 16 66 -11 44
-411 42 -506 -11 -541 -30 -19 -290 -74 -354 -74 -78 0 -98 34 -196 343 -44
141 -65 179 -65 119 0 -36 104 -361 136 -424 13 -26 34 -54 46 -62 32 -23 105
-20 254 10 156 31 220 57 239 95 26 49 16 370 -15 523 -8 35 -7 52 1 62 16 19
47 17 57 -3z"/>
<path d="M228 1908 c-33 -36 -78 -120 -116 -218 -20 -51 -25 -83 -25 -150 0
-75 4 -96 38 -180 80 -202 165 -484 210 -702 9 -40 22 -97 30 -125 15 -51 17
-53 51 -53 50 0 88 39 80 83 -18 96 -36 249 -46 377 -5 80 -12 164 -15 188 -2
23 -1 42 3 42 4 0 45 -38 92 -84 81 -79 123 -136 236 -321 64 -106 114 -159
183 -192 51 -25 66 -28 156 -27 148 2 353 45 680 144 166 50 244 86 264 121
35 63 -42 108 -319 190 -175 52 -175 52 -330 54 -169 3 -207 11 -283 64 -55
38 -130 117 -258 271 -228 275 -521 550 -586 550 -8 0 -28 -14 -45 -32z m167
-106 c144 -126 278 -265 430 -447 180 -216 235 -267 333 -312 69 -33 85 -36
162 -36 47 0 101 3 120 8 32 7 33 6 21 -9 -25 -30 -144 -94 -200 -106 -75 -17
-170 -8 -234 23 -115 57 -264 242 -650 809 -121 178 -118 189 18 70z m-100
-27 c70 -110 333 -487 426 -610 114 -152 172 -214 252 -265 148 -97 334 -76
491 57 l59 49 71 -18 c214 -57 367 -110 403 -140 38 -31 -42 -63 -397 -159
-279 -75 -486 -107 -573 -89 -99 20 -155 79 -298 312 -111 180 -246 302 -445
401 -105 53 -112 58 -127 99 -42 112 -30 204 50 367 37 77 47 91 51 72 2 -14
19 -48 37 -76z m43 -538 c10 -8 9 -14 -4 -28 -22 -25 -21 -50 15 -231 79 -405
87 -458 66 -436 -3 2 -34 122 -70 266 -36 143 -83 312 -105 374 -22 62 -40
116 -40 121 0 7 114 -47 138 -66z m71 -239 c9 -82 14 -148 11 -148 -3 0 -18
68 -34 150 -25 132 -27 154 -15 178 l13 27 4 -30 c2 -16 11 -96 21 -177z"/>
<path d="M2644 1811 c-45 -11 -132 -61 -147 -85 -7 -12 -26 -64 -41 -117 -21
-71 -33 -98 -49 -105 -21 -9 -29 -31 -82 -216 -13 -45 -21 -57 -38 -60 -14 -2
-23 -11 -25 -26 -2 -13 -14 -27 -28 -32 -13 -5 -24 -16 -24 -23 0 -8 -31 -122
-70 -253 -38 -132 -70 -249 -70 -261 0 -16 22 -34 96 -78 133 -80 134 -80 237
-62 49 9 91 18 93 20 3 2 38 118 80 258 57 193 72 258 65 271 -8 12 -7 26 0
45 8 22 7 30 -6 39 -15 12 -13 24 24 150 37 128 39 140 24 156 -15 16 -13 28
21 146 20 70 36 149 36 175 0 42 -3 49 -26 57 -28 11 -26 11 -70 1z m37 -75
c-13 -13 -44 -34 -70 -45 l-48 -20 -28 -98 c-31 -108 -35 -115 -52 -105 -9 6
-4 35 19 113 l30 105 43 13 c24 7 58 23 76 36 44 31 59 31 30 1z m9 -53 c0 -5
-14 -57 -30 -118 -16 -60 -30 -113 -30 -117 0 -12 -78 -9 -85 2 -4 6 6 51 21
99 25 80 31 91 68 115 41 27 56 32 56 19z m-107 -277 c51 -9 67 -15 54 -21
-10 -4 -45 -1 -78 7 -33 8 -61 12 -63 9 -2 -3 -18 -57 -36 -118 -18 -62 -37
-113 -42 -113 -17 0 -68 31 -68 41 0 9 51 195 65 236 3 9 17 7 50 -8 26 -11
79 -26 118 -33z m47 -63 c2 -2 -7 -45 -20 -96 -13 -51 -24 -100 -24 -109 0
-21 -6 -21 -71 1 -34 11 -49 22 -46 31 14 60 44 156 52 172 9 16 17 18 57 12
26 -4 49 -8 52 -11z m-115 -231 c41 -2 75 -9 75 -14 0 -6 -29 -8 -67 -6 -58 3
-68 1 -71 -14 -2 -10 -6 -18 -9 -18 -3 0 -37 17 -75 37 -70 37 -85 51 -75 77
4 10 22 5 76 -22 56 -28 86 -36 146 -40z m-36 -92 c75 0 134 22 84 32 -13 2
-10 6 10 15 25 12 27 11 27 -12 0 -30 -10 -36 -83 -49 l-59 -11 -65 -220 c-35
-121 -71 -227 -80 -235 -14 -13 -15 -13 -9 3 15 44 136 460 134 461 -5 3 -153
68 -163 72 -7 3 -37 -86 -74 -213 -70 -239 -70 -238 -82 -226 -6 6 87 353 126
470 2 7 39 -7 100 -38 65 -34 108 -49 134 -49z m-126 -15 c20 -9 37 -25 37
-34 0 -9 -25 -107 -57 -218 -43 -152 -61 -203 -73 -203 -8 0 -36 14 -63 30
-47 30 -47 30 -33 59 8 15 38 106 67 202 46 157 62 194 79 185 3 -2 22 -11 43
-21z m211 -136 c-104 -354 -90 -326 -173 -336 -40 -5 -43 -4 -37 13 7 19 12
34 85 269 23 72 44 135 48 140 11 14 107 53 111 44 2 -4 -13 -63 -34 -130z"/>
</g>
</svg>
