<?xml version="1.0" standalone="no"?>
<!DOCTYPE svg PUBLIC "-//W3C//DTD SVG 20010904//EN"
 "http://www.w3.org/TR/2001/REC-SVG-20010904/DTD/svg10.dtd">
<svg version="1.0" xmlns="http://www.w3.org/2000/svg"
 width="300.000000pt" height="300.000000pt" viewBox="0 0 300.000000 300.000000"
 preserveAspectRatio="xMidYMid meet">
<metadata>
Created by potrace 1.10, written by Peter Selinger 2001-2011
</metadata>
<g transform="translate(0.000000,300.000000) scale(0.100000,-0.100000)"
fill="#000000" stroke="none">
<path d="M1382 2670 c-101 -46 -199 -196 -266 -410 -40 -124 -81 -313 -93
-425 l-8 -70 -86 -7 c-48 -3 -99 -13 -115 -21 -86 -45 -126 -145 -194 -490
-17 -87 -42 -200 -55 -251 -38 -149 -41 -206 -16 -258 53 -111 177 -130 1166
-185 262 -15 300 -12 380 29 81 41 225 145 249 179 11 16 16 45 16 91 0 105
-93 590 -141 735 -32 96 -63 114 -241 135 -89 10 -98 13 -98 32 0 56 -23 264
-41 372 -53 321 -128 482 -254 540 -63 30 -143 31 -203 4z m173 -68 c92 -57
159 -322 172 -681 l6 -183 -39 6 c-70 11 -387 27 -469 24 -44 -1 -79 1 -79 5
1 4 5 40 9 80 11 124 54 390 75 466 63 226 209 353 325 283z m140 -127 c56
-124 82 -298 97 -650 17 -395 14 -436 -35 -470 -29 -20 -43 -19 -67 5 -39 39
-16 225 33 265 23 19 25 29 32 140 7 131 -7 368 -31 504 -8 47 -28 124 -45
171 -16 47 -32 94 -35 105 -5 20 -5 20 11 0 10 -11 27 -42 40 -70z m-508 -182
c-63 -219 -96 -385 -112 -560 -6 -59 -4 -75 9 -88 20 -20 20 -52 0 -135 -19
-84 -37 -110 -72 -110 -41 0 -52 17 -52 80 0 72 21 141 54 181 14 17 26 40 26
52 0 12 16 104 35 205 30 154 48 222 100 380 7 19 18 14 12 -5z m627 -233 c8
-58 18 -156 22 -217 6 -101 5 -113 -10 -113 -14 0 -16 14 -16 103 0 56 -5 145
-10 197 -20 193 -21 198 -10 165 5 -16 16 -77 24 -135z m-677 -137 c-12 -90
-24 -163 -29 -163 -12 0 -10 20 12 165 19 124 29 170 34 163 1 -2 -6 -76 -17
-165z m270 -202 l113 -6 -111 -100 c-155 -140 -260 -213 -434 -302 -143 -72
-244 -134 -279 -168 -10 -10 -16 -12 -16 -5 0 29 73 379 92 438 34 112 49 124
176 137 71 8 79 -2 38 -44 -30 -31 -56 -125 -56 -199 0 -43 5 -58 25 -77 52
-53 125 -20 149 68 27 96 29 134 10 186 -27 76 -21 81 88 80 51 -1 144 -4 205
-8z m261 -17 c56 -7 69 -27 35 -55 -32 -27 -56 -101 -60 -189 -5 -76 -3 -88
17 -112 18 -23 29 -28 66 -28 71 0 93 35 109 171 5 38 2 76 -9 118 -9 35 -14
66 -11 70 5 9 194 -13 255 -29 32 -9 40 -14 31 -23 -6 -6 -11 -43 -11 -83 0
-104 -19 -320 -30 -346 -7 -16 -9 3 -5 67 15 283 16 370 6 360 -5 -6 -15 -105
-21 -230 -13 -282 -14 -288 -56 -376 -94 -195 -239 -329 -357 -329 -38 0 -53
6 -82 31 -48 43 -59 66 -101 221 -43 158 -74 228 -123 277 -61 61 -103 76
-208 76 -51 0 -89 3 -85 6 4 3 27 14 52 24 115 49 266 160 394 291 97 100 96
99 194 88z m500 -122 c6 -20 -27 -13 -38 8 -9 17 -8 19 12 11 12 -4 24 -13 26
-19z m-1448 -86 c-11 -44 -31 -145 -46 -225 -32 -175 -31 -171 -44 -171 -6 0
-9 3 -7 8 3 4 21 88 42 187 36 178 64 290 70 283 2 -2 -5 -39 -15 -82z m1444
38 c-10 -8 -13 -12 -6 -9 11 6 11 3 1 -13 -7 -12 -17 -18 -21 -16 -5 3 -5 10
-2 16 4 7 2 8 -4 4 -6 -4 -9 -13 -6 -20 3 -8 2 -16 -3 -19 -5 -3 -9 12 -9 32
-1 34 2 38 23 35 12 -1 26 2 29 8 3 5 9 7 12 4 3 -4 -3 -13 -14 -22z m81 -230
c79 -375 97 -524 66 -524 -4 0 -11 33 -14 73 -3 39 -31 199 -61 353 -30 155
-54 291 -53 303 3 49 21 -8 62 -205z m-25 -119 c29 -148 54 -296 57 -327 5
-53 4 -58 -14 -58 -20 0 -135 -69 -147 -89 -15 -24 -28 -10 -22 24 4 19 11
131 16 249 5 117 16 267 25 332 9 65 15 129 12 142 -4 20 -2 22 8 10 7 -7 36
-134 65 -283z m-1029 54 c94 -29 145 -107 194 -303 57 -228 101 -286 223 -293
91 -6 122 2 191 48 64 42 138 128 190 219 17 30 31 51 31 45 1 -81 -36 -342
-50 -350 -4 -2 -73 0 -154 6 -100 8 -155 8 -175 1 -17 -6 -31 -7 -33 -2 -3 10
-82 18 -534 55 -398 33 -459 45 -470 91 -5 20 16 135 47 254 15 61 184 178
317 221 65 21 167 24 223 8z m895 -146 c-3 -10 -10 -94 -16 -187 -15 -243 -19
-275 -42 -287 -11 -6 -21 -9 -23 -7 -1 2 3 32 10 67 8 35 17 116 20 180 6 100
26 218 41 243 9 15 15 8 10 -9z m202 -325 c-5 -15 -177 -127 -195 -127 -15 -1
-16 8 -5 25 4 6 42 34 86 63 75 49 122 65 114 39z"/>
</g>
</svg>
