<?xml version="1.0" standalone="no"?>
<!DOCTYPE svg PUBLIC "-//W3C//DTD SVG 20010904//EN"
 "http://www.w3.org/TR/2001/REC-SVG-20010904/DTD/svg10.dtd">
<svg version="1.0" xmlns="http://www.w3.org/2000/svg"
 width="300.000000pt" height="375.000000pt" viewBox="0 0 300.000000 375.000000"
 preserveAspectRatio="xMidYMid meet">
<metadata>
Created by potrace 1.10, written by Peter Selinger 2001-2011
</metadata>
<g transform="translate(0.000000,375.000000) scale(0.100000,-0.100000)"
fill="#000000" stroke="none">
<path d="M1271 3598 c-5 -13 -14 -56 -21 -97 -22 -151 -80 -227 -211 -275 -39
-14 -157 -47 -262 -72 -289 -69 -377 -94 -430 -122 -160 -85 -225 -237 -247
-576 -11 -179 -6 -206 39 -206 15 0 33 6 38 13 6 6 13 66 17 132 12 221 49
392 102 468 14 21 47 52 72 68 55 35 210 86 221 73 8 -9 92 -703 91 -753 0
-14 -7 -32 -15 -41 -8 -9 -56 -119 -106 -245 -50 -127 -104 -255 -121 -285
l-30 -55 115 -405 c64 -223 136 -468 161 -544 l45 -140 -29 -90 c-79 -248 -86
-302 -44 -335 34 -27 39 -27 480 4 651 46 1154 93 1180 110 33 21 31 63 -6
177 l-29 92 38 106 c102 276 301 923 301 976 0 12 -40 130 -89 261 -113 299
-117 308 -141 331 -20 18 -20 19 34 253 30 129 66 291 82 362 15 70 32 127 37
127 20 0 131 -66 173 -103 25 -22 54 -57 65 -78 21 -42 38 -150 33 -209 -28
-325 -36 -450 -31 -464 8 -21 44 -21 56 2 17 32 53 294 58 427 10 229 -28 323
-165 412 -65 42 -205 103 -238 103 -23 0 -180 40 -319 82 -104 31 -278 98
-292 111 -16 15 -39 106 -54 210 -12 79 -29 131 -22 65 21 -197 43 -280 81
-307 56 -39 315 -135 505 -186 61 -16 68 -21 63 -39 -3 -12 -31 -133 -62 -271
-31 -137 -68 -299 -83 -360 l-26 -109 -35 -8 c-78 -16 -405 -149 -606 -248
l-119 -58 -160 92 c-301 174 -515 279 -567 278 -33 -1 -26 -33 -73 363 -20
165 -39 324 -44 353 -10 65 -21 58 177 107 167 41 284 84 340 125 82 59 137
176 149 317 5 67 4 78 -12 89 -28 21 -54 17 -64 -8z m172 -1875 c-11 -4 -193
93 -193 103 0 2 46 -19 103 -47 56 -29 97 -54 90 -56z m-230 22 c56 -30 96
-55 88 -55 -14 0 -201 98 -201 106 0 9 14 3 113 -51z m-583 -167 c0 -16 -3
-19 -11 -11 -6 6 -8 16 -5 22 11 17 16 13 16 -11z m1890 -44 c0 -24 -96 -332
-222 -712 -61 -187 -98 -315 -96 -331 l4 -28 -50 10 c-28 5 -125 7 -216 4
-113 -3 -158 -2 -146 5 10 6 90 34 178 64 195 65 225 87 182 135 -14 15 -12
19 21 39 19 12 43 36 51 53 14 26 152 406 250 685 16 45 32 82 36 82 5 0 8 -3
8 -6z m-220 -49 c0 -2 -5 -15 -11 -29 -9 -19 -22 -26 -58 -31 -127 -18 -461
-109 -981 -268 -190 -58 -361 -108 -380 -112 -46 -7 761 262 955 320 162 48
442 123 463 124 6 1 12 -1 12 -4z m-1361 -125 c22 -43 26 -60 13 -60 -5 0 -15
23 -24 50 -9 28 -15 50 -13 50 2 0 12 -18 24 -40z m136 11 c3 -5 1 -12 -5 -16
-5 -3 -10 1 -10 9 0 18 6 21 15 7z m1169 -16 c-3 -8 -30 -21 -59 -30 -30 -8
-138 -42 -242 -76 -278 -90 -357 -109 -463 -115 -63 -3 -90 -2 -80 4 8 6 123
42 255 80 207 61 288 83 505 141 56 15 90 13 84 -4z m-39 -92 c-21 -85 -26
-89 -116 -102 -46 -7 -176 -34 -288 -62 -112 -27 -206 -48 -207 -46 -7 6 573
230 610 236 4 0 5 -11 1 -26z m-1488 -50 c-4 -3 -7 0 -7 7 0 7 3 10 7 7 3 -4
3 -10 0 -14z m103 -173 c0 -5 -6 -10 -12 -11 -7 0 -25 -3 -40 -5 -16 -3 -28 0
-28 5 0 5 15 12 33 14 17 2 35 5 40 5 4 1 7 -2 7 -8z m805 -112 c-22 -12 -130
-60 -240 -109 -317 -138 -469 -209 -485 -225 -12 -12 -12 -18 -1 -35 9 -15 10
-24 2 -32 -21 -21 -13 -57 15 -67 28 -11 42 -9 162 27 46 14 86 22 89 19 6 -6
-7 -12 -227 -106 -91 -39 -170 -73 -177 -76 -21 -10 38 188 64 213 13 12 23
27 23 32 0 10 -74 306 -86 344 -8 26 56 24 79 -3 23 -27 119 -26 335 3 89 13
162 20 162 16 0 -3 -24 -16 -54 -27 -104 -40 -415 -184 -426 -197 -16 -19 -3
-55 19 -55 10 0 103 36 206 81 206 89 541 219 565 218 8 0 -3 -9 -25 -21z
m476 -46 c-9 -17 -101 -47 -101 -33 0 9 80 50 98 50 9 1 10 -4 3 -17z m163
-551 c9 -30 13 -58 9 -62 -10 -10 -137 -23 -603 -59 -400 -31 -496 -35 -450
-20 29 10 210 28 660 66 212 18 322 31 338 40 26 17 29 49 5 63 -15 8 -15 11
-3 25 17 22 25 13 44 -53z"/>
<path d="M830 2943 c50 -22 281 -79 376 -93 126 -18 142 -7 19 13 -60 10 -179
36 -264 58 -85 21 -157 39 -160 38 -3 0 10 -8 29 -16z"/>
<path d="M2240 2909 c-102 -26 -281 -57 -425 -74 l-120 -14 115 4 c63 3 156
12 205 20 138 24 305 66 305 76 0 5 -1 9 -2 8 -2 -1 -37 -10 -78 -20z"/>
</g>
</svg>
