<?xml version="1.0" standalone="no"?>
<!DOCTYPE svg PUBLIC "-//W3C//DTD SVG 20010904//EN"
 "http://www.w3.org/TR/2001/REC-SVG-20010904/DTD/svg10.dtd">
<svg version="1.0" xmlns="http://www.w3.org/2000/svg"
 width="300.000000pt" height="300.000000pt" viewBox="0 0 300.000000 300.000000"
 preserveAspectRatio="xMidYMid meet">
<metadata>
Created by potrace 1.10, written by Peter Selinger 2001-2011
</metadata>
<g transform="translate(0.000000,300.000000) scale(0.050000,-0.050000)"
fill="#000000" stroke="none">
<path d="M1991 5456 c-32 -46 -48 -749 -19 -825 25 -63 119 -91 307 -91 l181
0 0 -200 0 -200 -461 0 c-734 0 -658 210 -659 -1830 0 -1785 -8 -1687 138
-1785 l69 -46 1515 6 1515 5 53 50 c115 107 110 22 110 1774 0 2029 80 1810
-675 1826 l-487 10 -4 195 -4 195 206 0 c273 0 302 24 307 254 12 565 10 599
-41 654 l-49 52 -985 0 -986 0 -31 -44z m1929 -426 c0 -262 -5 -310 -30 -310
-25 0 -30 42 -30 260 l0 259 -740 6 -740 5 0 -264 c0 -298 9 -281 -145 -270
l-115 8 0 308 0 308 900 0 900 0 0 -310z m-938 19 c37 3 79 -3 93 -14 17 -14
36 -11 59 8 18 15 28 17 20 4 -8 -13 3 -27 26 -33 22 -6 35 -2 29 8 -12 19 13
23 211 26 72 1 140 9 153 17 46 30 125 -81 114 -161 -19 -142 -28 -168 -56
-157 -15 6 -43 -7 -62 -28 -19 -21 -44 -32 -55 -25 -12 7 -14 2 -5 -12 8 -14
-6 -40 -36 -63 -28 -22 -56 -58 -63 -80 -7 -21 -27 -39 -44 -39 -22 0 -25 -7
-10 -25 23 -28 19 -194 -6 -235 -10 -16 -8 -21 5 -13 14 8 13 -4 -2 -37 -26
-56 -63 -65 -81 -19 -7 20 -21 25 -37 16 -14 -9 -32 -18 -40 -19 -8 -2 -17 -5
-20 -8 -3 -2 -50 -7 -105 -9 -55 -3 -89 -1 -75 4 14 4 20 18 13 29 -7 11 -12
91 -12 178 1 86 -7 163 -17 169 -12 7 -11 27 2 50 14 27 14 39 0 39 -12 0 -21
-11 -21 -25 0 -14 -23 4 -52 40 -28 36 -63 65 -77 65 -15 0 -32 14 -38 30 -15
39 -42 38 -82 -1 -17 -18 -31 -26 -31 -20 0 7 -17 3 -39 -8 -42 -23 -85 12
-45 37 15 9 16 39 4 93 -33 143 5 229 99 223 42 -2 73 -10 69 -17 -4 -7 10 -9
32 -3 22 6 35 18 29 28 -6 10 10 10 37 0 26 -10 78 -16 116 -13z m-182 -689
l0 -180 -80 0 -80 0 0 180 0 180 80 0 80 0 0 -180z m1696 -431 l44 -31 0
-1588 0 -1588 -44 -42 c-44 -41 -54 -41 -1462 -36 l-1417 6 -49 56 -48 56 0
1559 c0 1532 1 1560 40 1599 55 55 2857 64 2936 9z"/>
<path d="M1651 3836 c-55 -79 -46 -3021 9 -3076 59 -59 2713 -63 2766 -4 52
58 55 3059 2 3098 -29 21 -305 26 -1391 26 l-1355 0 -31 -44z m369 -191 c-14
19 -17 36 -7 37 9 1 44 4 77 7 33 3 69 8 80 11 11 2 25 3 30 0 6 -2 78 -7 160
-10 226 -9 215 -7 180 -30 -24 -16 -21 -19 15 -20 25 0 45 12 45 27 0 19 28
26 93 26 51 -1 83 -4 70 -9 -13 -4 -23 -21 -23 -38 0 -21 -13 -27 -40 -20 -23
6 -35 2 -28 -9 17 -28 -52 -73 -94 -62 -19 5 -52 -8 -75 -28 -68 -62 -101 -87
-115 -87 -7 0 -35 -23 -61 -51 -26 -29 -57 -45 -70 -37 -13 8 -18 5 -11 -6 7
-11 -21 -56 -63 -100 -41 -44 -72 -90 -67 -103 4 -13 -2 -23 -13 -23 -11 0
-26 -19 -33 -41 -8 -25 -25 -38 -42 -31 -31 12 -60 -37 -58 -98 1 -22 -6 -45
-16 -52 -9 -7 -20 -34 -24 -60 -3 -26 -16 -79 -28 -116 -11 -37 -16 -75 -10
-85 6 -9 2 -17 -9 -17 -11 0 -15 -18 -9 -40 7 -27 1 -40 -19 -40 -23 0 -30 24
-28 102 2 56 -4 106 -12 111 -9 6 -11 17 -5 27 5 9 11 67 13 129 1 69 14 125
31 142 24 24 24 31 2 39 -30 12 -41 550 -11 550 9 0 35 17 58 39 41 38 42 38
92 -15 27 -30 39 -38 25 -19z m1495 45 c58 0 105 6 105 14 0 8 14 9 31 3 17
-7 91 -14 165 -17 74 -3 154 -6 179 -8 25 -1 45 -15 45 -30 0 -19 14 -25 44
-17 25 7 34 16 21 20 -18 6 -18 14 0 34 18 18 40 20 79 7 51 -18 93 -86 69
-110 -7 -6 -3 -28 8 -47 12 -24 12 -41 -1 -49 -11 -7 -15 -21 -9 -31 6 -11 0
-19 -15 -19 -18 -1 -19 -5 -4 -15 45 -30 45 -120 0 -144 -23 -12 -28 -18 -10
-13 24 6 33 -7 36 -55 8 -132 6 -365 -4 -403 -6 -22 -12 -44 -13 -50 -1 -5
-10 4 -21 20 -16 24 -19 25 -20 2 0 -22 -9 -20 -40 8 -22 20 -39 46 -38 58 9
74 -5 173 -22 162 -28 -18 -25 17 5 47 20 20 18 23 -10 12 -25 -10 -32 -5 -25
14 7 18 -4 30 -30 31 -25 2 -36 -5 -27 -18 8 -13 4 -16 -10 -8 -13 8 -23 26
-23 39 0 14 -18 45 -41 69 -22 24 -31 44 -20 44 11 0 15 13 8 29 -6 17 -17 29
-24 28 -41 -5 -61 9 -83 64 -14 33 -30 56 -35 50 -16 -16 -130 49 -203 116
-37 35 -61 51 -53 37 12 -22 8 -22 -25 -2 -23 15 -36 38 -29 57 7 20 -1 17
-22 -9 -17 -22 -32 -29 -32 -16 -1 14 -12 21 -26 15 -14 -5 -35 13 -48 41 -13
28 -16 45 -7 40 10 -6 23 -1 31 12 8 12 20 14 27 5 6 -10 59 -17 117 -17z
m-226 -261 c995 -259 984 -1905 -14 -2162 -742 -191 -1385 564 -1176 1381 152
592 653 921 1190 781z m957 -705 c38 -32 42 -184 5 -184 -17 0 -23 15 -17 40
6 22 2 40 -9 40 -11 0 -15 23 -10 50 8 40 3 48 -23 38 -21 -8 -32 -2 -32 18 0
35 42 34 86 -2z m-2394 -439 c-6 -19 -3 -68 6 -108 13 -57 11 -72 -9 -64 -14
5 -23 32 -20 59 3 27 -2 54 -11 59 -10 6 -6 28 7 50 30 48 41 50 27 4z m39
-226 c7 -11 3 -32 -9 -47 -16 -19 -12 -35 16 -60 22 -20 34 -50 27 -73 -5 -22
0 -39 14 -39 13 0 19 -7 14 -16 -14 -22 61 -184 85 -184 10 0 25 -16 31 -36 6
-20 36 -63 67 -95 30 -33 71 -84 91 -115 19 -30 42 -51 51 -45 9 5 28 -13 42
-40 15 -27 37 -49 49 -49 25 0 192 -116 216 -149 8 -12 16 -4 17 19 2 34 4 35
12 5 7 -29 66 -48 94 -30 4 3 28 -13 53 -35 25 -22 39 -29 31 -15 -8 14 -5 25
7 25 11 0 21 -13 21 -30 0 -20 22 -31 65 -32 36 -2 93 -4 128 -5 35 -2 58 5
52 15 -6 11 3 13 21 6 18 -7 39 -2 46 10 9 15 24 9 42 -16 18 -25 32 -30 42
-16 27 41 100 70 116 45 9 -15 20 -11 32 12 15 26 25 28 47 10 22 -18 31 -17
41 9 7 17 20 27 30 21 10 -6 18 -2 18 8 0 19 45 41 90 44 11 1 28 21 37 45 11
27 21 34 27 19 14 -38 40 -30 52 17 6 23 21 36 33 29 12 -8 27 3 35 23 7 20
46 68 85 106 39 39 89 103 110 143 23 43 49 69 64 63 37 -14 78 87 91 224 3
33 13 65 22 72 9 6 17 31 19 55 2 27 14 40 29 34 14 -5 26 3 26 19 0 19 -12
24 -35 16 -30 -12 -32 -9 -8 20 25 31 30 30 64 -11 30 -38 32 -49 10 -72 -23
-23 -22 -39 2 -98 24 -57 25 -74 4 -87 -20 -12 -17 -25 12 -57 23 -25 28 -41
13 -41 -14 0 -22 -16 -19 -35 3 -19 -2 -48 -12 -63 -11 -18 -10 -24 4 -15 14
8 24 -26 28 -97 6 -97 3 -110 -31 -110 -36 0 -36 -2 -5 -37 18 -20 33 -53 33
-75 -1 -32 -4 -34 -22 -8 -17 24 -18 22 -6 -10 18 -45 19 -175 2 -250 -6 -27
-12 -59 -13 -70 -1 -11 -10 -6 -21 10 -13 20 -19 22 -20 5 0 -35 -52 -31 -116
10 -51 33 -53 33 -26 -1 24 -31 24 -33 -5 -22 -18 7 -33 4 -33 -5 0 -10 -35
-18 -77 -17 -59 0 -75 7 -67 28 8 21 3 24 -18 10 -40 -25 -123 -25 -157 0 -21
16 -25 16 -15 -1 8 -13 -2 -29 -21 -36 -19 -7 -37 -4 -41 8 -4 12 -16 16 -26
10 -52 -32 -361 -13 -390 24 -20 26 -27 28 -23 7 3 -17 -14 -32 -42 -36 -33
-5 -43 0 -33 16 10 17 1 16 -33 -2 -68 -38 -97 -39 -97 -4 0 27 -5 27 -34 3
-23 -18 -29 -19 -19 -2 11 18 -4 25 -56 25 -43 0 -71 -10 -71 -25 -1 -17 -7
-15 -20 5 -15 25 -26 26 -59 5 -59 -36 -121 -31 -122 10 -2 30 -4 29 -19 -5
-9 -22 -18 -29 -19 -15 0 14 -15 25 -32 25 -17 0 -26 -8 -20 -19 21 -34 -326
-35 -363 -1 -17 17 -26 20 -19 7 9 -16 -26 -22 -117 -20 -72 2 -130 10 -130
18 0 8 -12 15 -26 15 -22 0 -27 110 -25 570 1 554 10 633 62 549z"/>
<path d="M2914 3318 c-498 -72 -831 -680 -683 -1247 278 -1068 1651 -837 1655
279 3 622 -424 1047 -972 968z m292 -108 c542 -141 767 -900 416 -1410 -316
-460 -959 -420 -1210 76 -346 682 143 1504 794 1334z"/>
</g>
</svg>
