<?xml version="1.0" standalone="no"?>
<!DOCTYPE svg PUBLIC "-//W3C//DTD SVG 20010904//EN"
 "http://www.w3.org/TR/2001/REC-SVG-20010904/DTD/svg10.dtd">
<svg version="1.0" xmlns="http://www.w3.org/2000/svg"
 width="300.000000pt" height="300.000000pt" viewBox="0 0 300.000000 300.000000"
 preserveAspectRatio="xMidYMid meet">
<metadata>
Created by potrace 1.10, written by Peter Selinger 2001-2011
</metadata>
<g transform="translate(0.000000,300.000000) scale(0.100000,-0.100000)"
fill="#000000" stroke="none">
<path d="M1000 2730 c-19 -19 -20 -33 -20 -212 1 -245 2 -248 159 -248 l91 0
0 -100 0 -100 -231 0 c-255 0 -268 -3 -305 -64 -18 -30 -19 -68 -22 -841 -3
-764 -2 -812 15 -845 10 -19 33 -45 52 -57 l34 -23 746 0 c727 0 747 1 779 20
18 11 41 34 52 52 19 32 20 52 20 841 0 897 4 843 -67 892 l-38 25 -240 0
-240 0 0 100 0 100 103 0 c96 0 105 2 127 25 25 24 25 26 25 213 0 176 -1 191
-21 216 l-20 26 -490 0 c-476 0 -490 -1 -509 -20z m960 -215 c0 -131 -2 -155
-15 -155 -13 0 -15 21 -15 130 l0 130 -370 2 -369 3 -3 -135 -3 -134 -60 1
-60 1 -3 156 -3 156 451 0 450 0 0 -155z m-74 62 c4 -3 9 -53 11 -109 3 -93 6
-105 29 -129 l25 -26 -73 -2 c-53 -1 -80 -7 -98 -20 -23 -17 -25 -25 -28 -115
-3 -96 -2 -97 27 -126 28 -29 28 -30 8 -31 -34 -2 -581 1 -582 4 -1 1 15 19
36 39 37 36 38 37 61 19 44 -34 76 -35 108 -2 28 27 30 35 30 104 0 60 -4 79
-21 101 -27 34 -71 34 -115 1 l-34 -26 -27 26 c-15 14 -33 25 -40 25 -17 0
-16 10 3 31 11 13 15 42 16 119 1 64 5 106 13 113 9 9 96 12 328 12 174 0 319
-4 323 -8z m-486 -397 l0 -90 -40 0 -40 0 0 90 0 90 40 0 40 0 0 -90z m-590
-160 c0 -5 -7 -10 -15 -10 -8 0 -24 -9 -36 -21 -11 -11 -25 -19 -31 -17 -16 6
43 58 64 58 10 0 18 -4 18 -10z m1481 -20 l34 -29 3 -786 c1 -523 -1 -800 -8
-825 -11 -41 -63 -89 -75 -70 -3 5 -2 10 4 10 6 0 22 12 36 27 l25 28 0 795 0
796 -29 32 c-17 17 -36 32 -43 32 -9 0 -9 3 2 10 8 5 16 10 16 10 1 0 17 -13
35 -30z m-43 -36 l22 -15 0 -792 c0 -436 -4 -797 -8 -803 -21 -33 -49 -34
-732 -34 -727 0 -733 0 -759 48 -8 14 -11 260 -11 796 0 763 0 776 20 796 20
20 33 20 733 20 629 0 715 -2 735 -16z m-1479 -1647 c14 -15 19 -27 12 -27
-17 0 -61 46 -61 65 0 18 -2 20 49 -38z"/>
<path d="M827 1922 c-16 -17 -17 -85 -17 -770 0 -739 0 -752 20 -772 20 -20
33 -20 694 -20 600 0 676 2 690 16 14 13 16 67 18 422 5 996 4 1108 -11 1125
-12 16 -73 17 -696 17 -648 0 -683 -1 -698 -18z m1361 -39 c10 -14 12 -162 11
-736 -1 -689 -2 -720 -20 -738 -18 -18 -44 -18 -658 -16 -515 2 -642 5 -655
16 -14 12 -16 85 -16 748 0 717 0 734 19 741 11 4 309 6 663 5 603 -2 644 -3
656 -20z"/>
<path d="M1426 1760 c-118 -21 -230 -95 -311 -205 -184 -248 -156 -636 60
-832 75 -68 78 -70 138 -97 215 -95 458 -36 606 147 49 61 108 191 125 277 46
230 -46 493 -216 618 -112 82 -263 117 -402 92z m219 -45 c168 -44 294 -177
351 -370 27 -90 25 -259 -3 -350 -43 -135 -149 -272 -254 -325 -124 -64 -289
-66 -416 -6 -324 154 -394 648 -131 922 121 126 284 173 453 129z"/>
<path d="M1403 1645 c-181 -56 -303 -245 -303 -468 0 -199 101 -377 255 -452
54 -27 70 -30 160 -30 89 0 107 3 159 28 121 56 207 157 248 291 32 101 30
243 -5 343 -46 134 -149 245 -262 285 -60 21 -191 23 -252 3z m265 -61 c267
-131 309 -558 75 -764 -81 -71 -218 -101 -321 -71 -161 47 -272 224 -272 431
0 167 71 310 193 387 92 58 226 65 325 17z"/>
</g>
</svg>
