<?xml version="1.0" standalone="no"?>
<!DOCTYPE svg PUBLIC "-//W3C//DTD SVG 20010904//EN"
 "http://www.w3.org/TR/2001/REC-SVG-20010904/DTD/svg10.dtd">
<svg version="1.0" xmlns="http://www.w3.org/2000/svg"
 width="300.000000pt" height="300.000000pt" viewBox="0 0 300.000000 300.000000"
 preserveAspectRatio="xMidYMid meet">
<metadata>
Created by potrace 1.10, written by Peter Selinger 2001-2011
</metadata>
<g transform="translate(0.000000,300.000000) scale(0.050000,-0.050000)"
fill="#000000" stroke="none">
<path d="M4786 5122 c-300 -102 -789 -567 -1778 -1692 l-282 -321 -208 -83
c-290 -115 -274 -116 -346 24 -214 413 -673 514 -1127 247 -627 -368 -653
-1133 -43 -1289 263 -68 492 11 995 341 404 265 683 391 683 309 0 -94 -154
-252 -430 -441 -716 -492 -951 -763 -967 -1118 -29 -624 813 -741 1368 -189
337 335 408 824 167 1151 -19 26 5 67 131 230 306 393 338 415 1161 779 1056
466 1788 969 1662 1141 -33 44 -99 32 -342 -62 -99 -39 -337 -125 -530 -192
-305 -106 -630 -233 -885 -345 -96 -42 -95 -33 22 115 632 801 1024 1367 970
1398 -52 30 -129 29 -221 -3z m-11 -187 c-101 -133 -1132 -1510 -1320 -1763
-238 -320 -287 -384 -582 -756 -252 -319 -247 -306 -151 -447 246 -364 72
-864 -401 -1151 -433 -263 -945 -103 -914 286 24 304 261 575 843 965 473 316
581 459 546 718 -22 162 -30 145 229 449 689 808 1365 1494 1663 1687 144 94
150 94 87 12z m755 -915 c-63 -102 -832 -539 -1375 -781 -201 -90 -445 -204
-542 -253 -97 -48 -181 -85 -185 -80 -5 4 75 114 177 245 214 273 97 209 985
541 308 115 637 240 730 277 180 71 230 83 210 51z m-3782 -744 c106 -32 243
-170 328 -331 93 -175 184 -186 456 -54 125 60 125 60 113 0 -12 -66 -28 -77
-207 -148 -179 -71 -404 -201 -614 -354 -432 -316 -801 -359 -1022 -119 -330
358 135 1028 716 1030 81 0 184 -11 230 -24z"/>
<path d="M2944 2996 c-71 -71 15 -181 109 -138 46 21 59 68 35 130 -14 38
-109 43 -144 8z"/>
<path d="M2253 1949 c-390 -200 -753 -604 -753 -837 0 -524 915 -366 1174 202
184 404 -84 808 -421 635z m287 -172 c234 -323 -244 -904 -698 -847 -372 47
-234 442 275 788 251 170 334 182 423 59z"/>
<path d="M1256 3152 c-455 -187 -631 -693 -307 -882 356 -209 991 145 991 553
0 323 -322 478 -684 329z m417 -105 c145 -68 175 -281 61 -430 -241 -317 -705
-389 -806 -126 -117 309 420 710 745 556z"/>
</g>
</svg>
