<?xml version="1.0" standalone="no"?>
<!DOCTYPE svg PUBLIC "-//W3C//DTD SVG 20010904//EN"
 "http://www.w3.org/TR/2001/REC-SVG-20010904/DTD/svg10.dtd">
<svg version="1.0" xmlns="http://www.w3.org/2000/svg"
 width="300.000000pt" height="439.000000pt" viewBox="0 0 300.000000 439.000000"
 preserveAspectRatio="xMidYMid meet">
<metadata>
Created by potrace 1.10, written by Peter Selinger 2001-2011
</metadata>
<g transform="translate(0.000000,439.000000) scale(0.100000,-0.100000)"
fill="#000000" stroke="none">
<path d="M910 4268 c-12 -29 -40 -153 -40 -179 0 -11 7 -19 18 -19 13 0 20 17
34 86 10 48 20 89 23 92 15 16 15 -15 -1 -88 -10 -48 -13 -84 -8 -89 12 -12
285 -48 464 -62 232 -18 607 4 706 41 28 11 29 24 13 117 -9 50 -17 67 -38 82
-24 17 -35 18 -116 9 -122 -14 -626 -3 -795 16 -74 9 -161 16 -193 16 -50 0
-59 -3 -67 -22z m1155 -48 c-3 -5 -11 -10 -16 -10 -6 0 -7 5 -4 10 3 6 11 10
16 10 6 0 7 -4 4 -10z m15 -120 c0 -5 -2 -10 -4 -10 -3 0 -8 5 -11 10 -3 6 -1
10 4 10 6 0 11 -4 11 -10z"/>
<path d="M866 3998 c-9 -24 -51 -142 -95 -263 -90 -249 -132 -358 -137 -352
-7 7 43 159 130 399 47 130 86 240 86 244 0 57 -235 -537 -294 -741 -33 -115
-46 -210 -96 -705 -92 -914 -118 -1233 -144 -1770 -9 -173 -18 -353 -20 -399
-5 -86 3 -121 29 -121 8 0 17 11 21 24 l6 23 111 -28 c281 -72 796 -174 1027
-204 181 -23 479 -47 545 -43 53 3 61 6 71 28 15 31 80 685 114 1140 16 213
39 636 46 860 9 245 17 222 33 -95 7 -126 16 -286 21 -355 5 -69 19 -258 30
-420 25 -360 58 -731 70 -785 12 -55 60 -86 60 -38 0 14 3 13 21 -3 21 -19 21
-18 38 2 13 16 22 19 34 12 24 -13 37 -2 37 33 0 17 -16 171 -35 342 -60 542
-106 999 -103 1026 4 30 73 -499 123 -939 19 -168 39 -345 45 -395 5 -49 10
-104 10 -121 l0 -32 -220 6 c-175 4 -223 2 -236 -9 -14 -12 -14 -14 2 -26 12
-9 59 -13 153 -14 75 0 176 -4 225 -8 121 -9 130 -3 134 78 7 153 -219 1978
-339 2731 -45 286 -169 843 -199 900 -14 26 -30 26 -37 0 -7 -26 -17 -25 -35
1 l-14 22 -139 -18 c-259 -33 -596 -20 -932 35 -65 11 -121 20 -125 20 -3 0
-13 -19 -22 -42z m1303 -255 c1 -7 -8 -13 -18 -13 -18 0 -19 3 -9 32 10 28 12
30 19 12 4 -10 8 -25 8 -31z m-149 -12 c0 -5 -21 -30 -47 -54 -399 -371 -493
-451 -659 -563 -154 -102 -401 -214 -474 -214 -18 0 -36 17 -28 26 3 2 32 11
64 20 84 22 227 86 343 155 173 102 307 211 659 537 101 92 142 119 142 93z
m-220 -699 c0 -5 -7 -17 -15 -28 -15 -19 -20 -8 -9 20 6 17 24 22 24 8z m-119
-194 c-47 -117 -251 -520 -251 -496 0 13 63 184 114 313 29 72 61 151 70 177
15 40 98 145 117 147 4 1 -19 -63 -50 -141z m-687 -33 c-6 -16 -24 -21 -24 -7
0 11 11 22 21 22 5 0 6 -7 3 -15z m542 -42 c-8 -15 -15 -22 -16 -15 0 17 20
55 27 49 2 -3 -2 -18 -11 -34z m-509 -150 c-4 -3 -7 0 -7 7 0 7 3 10 7 7 3 -4
3 -10 0 -14z m-531 -554 c-23 -429 -37 -762 -61 -1444 -4 -88 -11 -170 -18
-183 -17 -35 -35 -29 287 -97 66 -14 122 -28 125 -31 10 -12 -99 5 -239 35
-74 16 -159 32 -188 36 l-53 7 6 81 c3 45 10 181 15 302 19 414 66 1036 115
1532 14 138 25 255 25 259 0 4 3 5 6 2 3 -3 -6 -228 -20 -499z m1739 -44 c-8
-159 -22 -369 -30 -465 -8 -96 -21 -263 -30 -370 -17 -212 -82 -831 -90 -868
-7 -27 -31 -24 -29 4 1 10 11 98 22 194 12 96 37 355 57 575 50 572 53 610 75
915 11 151 24 316 28 365 l7 90 3 -75 c2 -41 -4 -205 -13 -365z m222 -77 c-3
-7 -5 -2 -5 12 0 14 2 19 5 13 2 -7 2 -19 0 -25z m10 -85 c-3 -10 -5 -2 -5 17
0 19 2 27 5 18 2 -10 2 -26 0 -35z m-527 -359 c-5 -27 -14 -94 -20 -149 -5
-55 -14 -136 -20 -180 -5 -44 -19 -163 -30 -265 -11 -102 -30 -259 -41 -350
-11 -91 -18 -177 -15 -192 5 -25 3 -28 -22 -28 -29 0 -189 19 -209 25 -8 3 -2
22 18 58 50 93 185 542 330 1101 14 54 21 39 9 -20z m-788 -706 c-8 -8 -9 -4
-5 13 4 13 8 18 11 10 2 -7 -1 -18 -6 -23z m-19 -48 c-5 -19 -23 -29 -23 -12
0 7 20 32 26 32 1 0 0 -9 -3 -20z m-13 -51 c0 -5 -9 -29 -19 -52 -10 -23 -21
-51 -23 -62 -2 -14 -10 -19 -23 -17 -29 5 -29 5 0 61 15 30 30 49 36 45 7 -4
9 1 4 15 -5 15 -2 21 9 21 9 0 16 -5 16 -11z m-336 -48 c-4 -22 -10 -41 -15
-41 -12 0 -11 5 3 51 14 49 21 44 12 -10z m33 -43 c-3 -8 -6 -5 -6 6 -1 11 2
17 5 13 3 -3 4 -12 1 -19z m70 8 c11 -10 -8 -24 -27 -19 -27 7 -26 33 1 28 12
-3 24 -6 26 -9z m-217 -160 c25 -8 36 -15 24 -15 -34 -1 -84 11 -84 20 0 12 7
11 60 -5z m863 -60 c7 -18 -1 -26 -18 -19 -8 2 -11 11 -8 19 7 18 19 18 26 0z
m-204 -62 c9 -8 -45 -2 -64 6 -14 7 -8 8 20 3 22 -3 42 -7 44 -9z m747 -101
c-3 -16 -8 -45 -12 -65 -5 -30 -11 -38 -28 -38 -12 0 -26 4 -31 9 -6 5 -19 11
-30 13 -22 5 -28 2 48 30 32 12 35 31 6 52 -20 13 -20 14 -2 19 46 12 55 8 49
-20z"/>
</g>
</svg>
