<?xml version="1.0" standalone="no"?>
<!DOCTYPE svg PUBLIC "-//W3C//DTD SVG 20010904//EN"
 "http://www.w3.org/TR/2001/REC-SVG-20010904/DTD/svg10.dtd">
<svg version="1.0" xmlns="http://www.w3.org/2000/svg"
 width="300.000000pt" height="144.000000pt" viewBox="0 0 300.000000 144.000000"
 preserveAspectRatio="xMidYMid meet">
<metadata>
Created by potrace 1.10, written by Peter Selinger 2001-2011
</metadata>
<g transform="translate(0.000000,144.000000) scale(0.100000,-0.100000)"
fill="#000000" stroke="none">
<path d="M407 1355 c-96 -16 -202 -58 -217 -86 -13 -24 -13 -83 1 -112 6 -13
31 -37 55 -52 l44 -28 0 -313 c0 -293 -1 -313 -18 -318 -10 -4 -33 -22 -52
-41 -45 -47 -53 -114 -18 -165 35 -52 117 -96 224 -121 80 -18 114 -21 246
-17 131 4 165 9 234 31 132 44 204 110 204 189 0 40 -30 84 -74 107 -17 10
-26 23 -26 39 0 23 2 24 48 20 68 -7 138 -45 186 -101 75 -89 163 -120 236
-82 41 21 38 26 -14 19 -82 -12 -111 0 -190 81 -83 85 -137 114 -213 115 l-53
0 0 284 0 285 41 23 c42 23 69 61 69 97 0 60 -63 107 -181 137 -91 22 -414 28
-532 9z m486 -39 c97 -18 172 -53 172 -81 0 -29 -75 -62 -187 -81 -119 -21
-407 -15 -513 10 -133 31 -171 77 -97 115 36 18 155 45 247 55 70 7 297 -4
378 -18z m-523 -188 c149 -38 485 -34 602 8 47 16 67 18 52 5 -16 -15 -119
-49 -185 -61 -156 -29 -432 -7 -536 42 -40 19 -64 49 -25 33 9 -4 51 -16 92
-27z m600 -78 c0 -16 -4 -31 -10 -31 -14 -2 -19 -3 -66 -18 -31 -10 -46 -10
-62 -2 -11 6 -32 11 -46 11 -52 0 -24 18 57 35 45 9 89 21 97 26 25 14 30 10
30 -21z m-505 -41 c67 -15 125 -21 225 -21 102 1 130 -2 115 -10 -28 -16 -269
-15 -335 2 -58 14 -140 47 -140 57 0 3 10 2 23 -1 12 -4 63 -16 112 -27z m-63
-40 c26 -10 91 -24 144 -31 119 -14 280 2 367 37 65 26 72 12 11 -22 -67 -37
-192 -56 -323 -50 -135 6 -209 26 -254 68 -34 33 -33 33 55 -2z m77 -85 c135
-28 340 -14 439 31 62 29 66 12 6 -22 -68 -38 -148 -53 -284 -53 -134 0 -202
13 -269 51 -55 31 -55 54 0 27 23 -11 71 -26 108 -34z m8 -64 c94 -19 324 -9
393 17 30 11 64 23 75 27 14 6 12 1 -9 -17 -111 -96 -493 -99 -593 -5 -36 34
-27 39 25 13 26 -13 75 -29 109 -35z m-32 -56 c83 -25 295 -25 385 -1 36 10
79 26 97 37 40 23 44 10 6 -19 -54 -44 -156 -66 -303 -66 -151 0 -226 16 -279
61 -41 34 -40 48 2 24 17 -10 59 -26 92 -36z m32 -69 c153 -33 353 -10 476 53
4 2 7 0 7 -6 0 -17 -99 -63 -167 -77 -85 -18 -250 -19 -324 -2 -68 17 -143 56
-147 79 -3 15 3 14 41 -8 25 -13 76 -31 114 -39z m-131 -15 c48 -48 313 -76
450 -47 58 13 109 30 157 55 4 2 7 -1 7 -7 0 -16 -57 -49 -115 -66 -112 -34
-297 -37 -413 -6 -43 12 -103 49 -110 69 -4 14 10 16 24 2z m93 -101 c52 -17
92 -21 191 -21 133 -1 216 14 291 53 28 14 40 16 37 7 -6 -22 -108 -67 -188
-84 -101 -22 -262 -14 -342 16 -65 24 -108 55 -108 76 0 12 5 11 26 -5 15 -12
57 -30 93 -42z m51 -75 c137 -29 350 -6 438 48 40 25 42 7 2 -22 -61 -43 -138
-62 -270 -68 -144 -5 -230 11 -294 56 -57 39 -56 56 1 27 26 -14 82 -32 123
-41z m-25 -58 c77 -21 259 -21 345 0 35 8 84 26 107 39 47 26 58 18 17 -14
-130 -102 -479 -101 -591 2 -37 33 -26 40 20 13 23 -14 69 -32 102 -40z m0
-62 c73 -21 242 -24 330 -5 33 7 82 24 108 37 59 29 65 30 43 5 -24 -26 -105
-60 -185 -77 -157 -33 -340 -3 -418 69 -36 32 -27 38 20 12 23 -13 69 -31 102
-41z m-118 -67 c79 -50 137 -62 293 -62 126 0 154 3 213 23 64 23 127 68 140
102 4 12 11 9 32 -14 23 -25 25 -31 12 -50 -7 -11 -42 -36 -78 -54 -194 -98
-631 -77 -719 36 -25 32 -25 34 6 72 l27 31 18 -30 c10 -17 35 -41 56 -54z
m123 2 c27 -8 96 -13 170 -13 109 1 135 4 204 28 91 31 110 29 34 -4 -144 -62
-358 -62 -485 0 -35 17 -63 35 -63 40 0 5 21 -1 48 -15 26 -13 67 -29 92 -36z
m-69 -135 c83 -22 314 -24 422 -5 107 19 107 8 0 -14 -221 -44 -466 -20 -555
56 -22 18 -22 18 23 -1 25 -11 75 -27 110 -36z"/>
<path d="M525 1283 c-55 -15 -59 -48 -7 -70 78 -35 312 -15 312 26 0 6 -12 19
-27 28 -21 14 -51 18 -143 20 -63 1 -124 -1 -135 -4z m195 -33 c10 -7 -11 -10
-67 -10 -49 0 -83 4 -83 10 0 13 130 13 150 0z"/>
<path d="M2791 1143 c-36 -37 -140 -148 -231 -245 l-165 -177 -3 121 -3 121
36 29 c55 46 46 97 -23 132 -75 37 -253 53 -423 37 -127 -12 -197 -31 -246
-68 -56 -41 -41 -103 34 -142 22 -11 22 -14 25 -286 3 -252 2 -276 -14 -281
-28 -9 -68 -64 -68 -93 0 -50 42 -86 134 -116 17 -5 15 -10 -22 -48 -39 -40
-53 -67 -34 -67 4 0 33 23 65 50 l56 51 68 -12 c91 -16 260 -6 343 20 139 43
188 125 115 190 l-35 31 67 34 c93 46 165 66 242 66 91 0 147 -28 173 -87 24
-55 13 -98 -37 -142 -37 -33 -146 -71 -201 -71 -19 0 -34 -5 -34 -11 0 -9 20
-10 69 -5 168 15 259 88 249 198 -6 60 -30 95 -89 128 -38 22 -56 25 -134 24
-100 0 -185 -24 -268 -75 -26 -16 -48 -29 -50 -29 -1 0 -1 45 1 99 l3 100 157
154 c86 85 202 195 258 245 98 88 129 131 122 169 -2 12 -14 19 -37 21 -29 3
-40 -4 -100 -65z m99 17 c0 -14 -86 -100 -100 -100 -22 0 -8 30 35 69 44 41
65 51 65 31z m-650 -30 c100 -13 173 -44 178 -77 4 -29 -52 -66 -138 -90 -94
-26 -363 -26 -437 0 -64 22 -103 52 -103 78 0 68 272 117 500 89z m290 -328
c-353 -360 -568 -568 -577 -559 -6 7 759 767 766 761 3 -2 -83 -93 -189 -202z
m-190 129 c0 -10 -67 -36 -130 -50 -116 -27 -327 -6 -361 35 -12 15 -11 16 6
11 104 -32 333 -33 425 -4 56 19 60 19 60 8z m-296 -89 c121 -4 218 8 268 34
24 13 28 13 28 0 0 -23 -103 -56 -215 -68 -88 -10 -111 -9 -171 5 -67 17 -114
41 -122 65 -2 7 17 2 45 -10 38 -18 72 -23 167 -26z m277 -43 c-41 -34 -128
-53 -241 -53 -118 -1 -183 13 -226 51 -33 28 -22 27 56 -3 73 -28 264 -24 355
7 39 14 72 23 75 21 3 -2 -6 -12 -19 -23z m-457 -44 c72 -48 280 -55 409 -15
73 23 67 22 67 11 0 -17 -102 -52 -183 -63 -108 -14 -202 -4 -269 30 -29 15
-54 33 -56 40 -5 16 4 15 32 -3z m9 -64 c105 -54 310 -51 452 4 20 8 20 8 1
-13 -42 -48 -240 -77 -354 -52 -63 13 -133 47 -140 68 -5 16 -3 15 41 -7z m6
-60 c80 -41 292 -53 375 -21 46 17 42 4 -6 -22 -38 -20 -56 -23 -168 -23 -119
0 -128 1 -185 30 -32 17 -61 36 -63 43 -5 16 2 15 47 -7z m89 -92 c37 -7 102
-10 159 -7 82 5 94 3 78 -8 -48 -35 -234 -31 -311 7 -27 13 -50 32 -52 42 -3
16 -1 16 30 -2 18 -11 61 -25 96 -32z m377 -18 c-9 -16 -84 -53 -97 -49 -6 2
13 18 43 35 54 31 67 34 54 14z m-450 -21 c39 -19 71 -25 148 -28 82 -4 96 -7
86 -18 -28 -34 -215 -8 -273 37 -23 18 -38 47 -18 37 4 -2 30 -15 57 -28z
m445 -38 c0 -13 -70 -49 -129 -66 -66 -19 -66 -19 -51 -1 6 8 37 21 68 30 31
9 65 23 76 31 23 16 36 18 36 6z m-447 -22 c26 -12 76 -23 112 -27 72 -7 85
-26 21 -31 -50 -4 -139 23 -173 53 -34 30 -20 32 40 5z m447 -34 c0 -26 -118
-76 -195 -82 -94 -9 -76 13 26 31 77 14 143 37 154 55 9 14 15 12 15 -4z
m-394 -41 c60 -17 72 -24 61 -33 -27 -23 -167 36 -167 70 0 6 6 5 16 -2 8 -8
49 -23 90 -35z m-106 -79 c18 -15 46 -30 61 -33 34 -6 36 -14 11 -36 -17 -15
-21 -15 -63 1 -98 38 -118 66 -78 108 22 23 24 24 30 6 4 -10 22 -31 39 -46z
m26 54 c6 -6 33 -19 60 -30 38 -14 45 -20 31 -25 -20 -8 -108 33 -115 53 -5
15 10 16 24 2z m474 2 c0 -5 -18 -18 -40 -31 -70 -39 -268 -69 -258 -38 3 7
34 14 84 18 79 6 179 32 189 50 8 11 25 12 25 1z m90 -48 c0 -22 -52 -63 -100
-79 -67 -23 -227 -39 -315 -30 -74 7 -76 7 -59 26 15 17 32 19 135 19 171 0
289 42 289 103 0 20 1 19 25 -3 14 -13 25 -29 25 -36z"/>
<path d="M1985 1094 c-11 -2 -48 -12 -82 -20 -112 -29 -107 -64 12 -89 124
-26 245 -17 347 27 42 18 47 23 32 29 -41 16 -320 4 -412 -17 -21 -5 -24 -4
-16 5 35 38 281 63 413 42 82 -13 103 -9 44 9 -38 12 -301 23 -338 14z"/>
</g>
</svg>
