<?xml version="1.0" standalone="no"?>
<!DOCTYPE svg PUBLIC "-//W3C//DTD SVG 20010904//EN"
 "http://www.w3.org/TR/2001/REC-SVG-20010904/DTD/svg10.dtd">
<svg version="1.0" xmlns="http://www.w3.org/2000/svg"
 width="300.000000pt" height="429.000000pt" viewBox="0 0 300.000000 429.000000"
 preserveAspectRatio="xMidYMid meet">
<metadata>
Created by potrace 1.10, written by Peter Selinger 2001-2011
</metadata>
<g transform="translate(0.000000,429.000000) scale(0.050000,-0.050000)"
fill="#000000" stroke="none">
<path d="M2864 8460 c-304 -34 -467 -239 -743 -934 -83 -211 -80 -221 94 -312
211 -111 186 -162 -165 -327 -144 -68 -143 -47 -17 -427 140 -420 334 -894
540 -1320 205 -424 587 -1147 599 -1134 5 4 -19 142 -53 306 -374 1840 -605
3862 -462 4035 38 45 65 22 43 -36 -9 -26 -20 -89 -24 -140 l-6 -92 467 -5
468 -4 -11 110 c-6 61 -17 126 -24 145 -10 25 -5 35 17 35 153 0 18 -1243
-320 -2966 -158 -801 -171 -952 -85 -1005 79 -49 1098 2193 1098 2416 0 14
-90 68 -201 120 -277 132 -280 160 -36 288 165 87 164 72 44 401 -138 382
-282 646 -421 771 -73 66 -517 107 -802 75z"/>
<path d="M2030 7969 c-99 -38 -342 -123 -540 -191 -207 -70 -374 -138 -393
-160 -54 -62 -106 -345 -287 -1568 -210 -1423 -248 -1680 -380 -2550 -365
-2404 -358 -2300 -161 -2277 22 3 61 -6 85 -19 63 -35 81 -30 115 31 l29 55 1
-56 c1 -68 50 -90 99 -46 35 32 38 31 48 -7 18 -70 98 -52 157 35 31 45 32 44
29 -28 -3 -95 38 -110 66 -24 55 172 296 1464 462 2486 208 1276 204 1216 131
1922 -27 263 -59 600 -71 748 -28 335 -85 721 -150 1010 -59 260 -63 348 -9
180 72 -222 140 -606 219 -1255 118 -956 192 -1390 303 -1779 l62 -214 162
-82 c225 -114 402 -241 409 -296 8 -54 -11 -56 -65 -6 -43 41 -470 302 -493
302 -19 0 -268 -593 -308 -734 -14 -50 -9 -52 209 -85 517 -79 515 -78 388
-471 -82 -255 -67 -248 -437 -180 -189 34 -318 50 -329 38 -45 -45 -501 -2128
-501 -2287 0 -58 76 -90 424 -180 704 -183 908 -179 1125 20 262 242 551 1347
730 2798 74 597 70 624 -159 1030 -503 895 -804 1559 -1048 2310 -146 447
-149 428 85 533 243 109 248 115 140 169 -258 129 -257 119 -58 584 75 173
125 314 113 314 -12 -1 -103 -33 -202 -70z m1063 -4227 c31 -64 6 -127 -61
-151 -66 -24 -115 2 -141 75 -41 118 146 188 202 76z"/>
<path d="M4020 8010 c0 -5 33 -88 73 -185 111 -267 188 -509 176 -548 -6 -20
-79 -73 -162 -119 -173 -95 -175 -89 63 -195 99 -44 188 -93 198 -108 71 -111
-710 -1911 -1081 -2491 l-71 -111 36 -211 c71 -420 23 -1030 -155 -1972 -90
-475 -89 -468 -19 -761 304 -1259 486 -1376 1682 -1087 441 107 415 80 372
383 -64 458 -369 1922 -430 2067 l-18 41 -307 -50 c-424 -69 -418 -72 -496
232 -89 349 -83 355 399 425 247 36 242 33 227 95 -20 84 -269 732 -292 761
-15 17 -14 39 2 70 55 106 246 916 353 1494 228 1231 370 1830 441 1854 11 3
-8 -81 -43 -189 -161 -493 -359 -1754 -343 -2175 10 -250 10 -255 -14 -125
-31 172 -42 181 -69 56 -46 -214 -45 -312 7 -721 100 -791 175 -1226 400
-2310 231 -1112 254 -1193 317 -1108 18 24 32 27 58 11 24 -15 49 -13 89 6 32
15 77 25 102 23 26 -3 50 9 57 27 10 25 19 27 40 9 21 -17 30 -15 40 10 9 24
20 27 37 13 58 -49 151 33 154 135 l2 94 17 -70 c25 -107 1 273 -33 530 -58
436 -192 1663 -310 2840 -192 1916 -305 2849 -358 2949 -11 20 -98 62 -205 99
-102 35 -348 122 -547 193 -360 129 -389 138 -389 119z m540 -1979 c0 -38
-202 -114 -335 -126 -168 -16 -124 24 100 90 250 73 235 71 235 36z m-80 -288
c0 -10 -54 -42 -121 -72 -130 -58 -356 -95 -331 -54 8 13 30 23 48 24 19 0
111 26 204 58 196 66 200 67 200 44z"/>
<path d="M1524 3303 c-28 -18 -144 -350 -144 -413 0 -56 610 -177 642 -128 35
56 141 400 131 426 -6 17 -101 43 -256 70 -347 61 -346 61 -373 45z"/>
<path d="M4450 3265 c-146 -16 -522 -90 -538 -106 -21 -20 61 -382 99 -433 23
-32 44 -31 321 12 408 64 375 28 288 305 -66 211 -82 231 -170 222z"/>
<path d="M93 1125 c-26 -42 522 -186 701 -185 67 0 75 38 12 62 -176 67 -692
156 -713 123z"/>
<path d="M5570 980 c-294 -70 -350 -90 -350 -130 0 -44 49 -38 366 41 272 69
334 93 334 131 0 30 -98 18 -350 -42z"/>
</g>
</svg>
