<?xml version="1.0" standalone="no"?>
<!DOCTYPE svg PUBLIC "-//W3C//DTD SVG 20010904//EN"
 "http://www.w3.org/TR/2001/REC-SVG-20010904/DTD/svg10.dtd">
<svg version="1.0" xmlns="http://www.w3.org/2000/svg"
 width="300.000000pt" height="300.000000pt" viewBox="0 0 300.000000 300.000000"
 preserveAspectRatio="xMidYMid meet">
<metadata>
Created by potrace 1.10, written by Peter Selinger 2001-2011
</metadata>
<g transform="translate(0.000000,300.000000) scale(0.050000,-0.050000)"
fill="#000000" stroke="none">
<path d="M3176 3786 c-2630 -2646 -2805 -2824 -2812 -2852 -3 -13 6 -40 20
-59 33 -44 4616 -57 4668 -13 52 43 41 4710 -12 4738 -36 19 -227 -167 -1864
-1814z m1764 1334 l0 -200 -120 0 c-115 0 -120 -2 -120 -50 0 -48 5 -50 120
-50 l120 0 0 -120 0 -120 -131 0 -132 0 7 -55 c6 -53 11 -55 132 -61 l126 -6
-6 -114 -6 -114 -120 0 c-115 0 -120 -2 -120 -50 0 -47 7 -50 125 -56 l125 -6
0 -119 0 -119 -130 0 -130 0 0 -61 0 -62 125 5 125 6 6 -124 6 -124 -131 0
c-126 0 -131 -2 -131 -50 0 -48 5 -50 130 -50 l130 0 0 -120 0 -120 -130 0
c-125 0 -130 -2 -130 -50 0 -48 5 -50 127 -50 l126 0 0 -120 0 -120 -128 0
c-127 0 -128 0 -121 -55 6 -53 10 -55 126 -55 l120 -1 3 -114 3 -115 -129 0
c-130 0 -130 0 -123 -55 6 -53 10 -55 126 -55 l120 -1 -2 -119 -2 -120 -78 7
c-153 12 -248 -14 -248 -68 0 -48 3 -49 172 -49 149 0 171 -4 160 -32 -7 -17
-12 -76 -12 -131 l0 -99 -122 14 -121 14 6 -58 c7 -57 10 -58 122 -57 l115 0
0 -127 0 -128 -115 7 c-113 7 -115 6 -122 -50 l-6 -57 116 7 c136 8 127 23
127 -193 l0 -170 -109 0 -109 0 -6 95 c-9 149 -96 155 -96 6 l0 -101 -129 0
-129 0 -6 95 c-9 141 -83 141 -92 0 l-6 -95 -129 0 -129 0 0 101 c0 94 -3 101
-45 95 -39 -5 -45 -18 -47 -96 l-1 -90 -129 0 -128 0 0 90 c0 78 -6 91 -44 96
-49 7 -72 -45 -62 -136 6 -48 1 -50 -120 -56 l-126 -6 5 92 c3 63 -5 99 -24
110 -46 29 -79 -18 -79 -112 l0 -88 -119 0 -119 0 -6 95 c-9 149 -96 155 -96
6 l0 -101 -129 0 -129 0 -6 95 c-9 149 -96 155 -96 6 l0 -101 -132 0 -131 0 3
75 c6 120 3 128 -45 121 -38 -5 -46 -20 -51 -101 l-6 -95 -129 0 -129 0 0 98
c0 61 -10 102 -25 107 -54 19 -75 -11 -75 -108 l0 -99 -125 6 -125 6 0 90 c0
83 -4 90 -50 90 -46 0 -50 -7 -50 -90 l0 -90 -135 -2 -135 -2 0 98 c0 142 -89
140 -92 -2 l-1 -87 -194 -6 c-106 -3 -193 -1 -193 4 0 6 917 934 2037 2064
1120 1129 2080 2100 2133 2158 52 58 99 105 103 105 4 0 7 -90 7 -200z"/>
<path d="M3478 3085 c-1470 -1480 -1415 -1420 -1354 -1481 18 -18 297 -24
1130 -24 l1107 0 19 51 c12 31 20 481 20 1139 0 1126 -2 1150 -78 1150 -8 0
-388 -376 -844 -835z m742 -410 l0 -926 -900 1 c-495 0 -900 3 -900 7 0 4 382
395 848 870 467 475 868 888 892 918 23 30 47 55 51 55 5 0 9 -416 9 -925z"/>
</g>
</svg>
