<?xml version="1.0" standalone="no"?>
<!DOCTYPE svg PUBLIC "-//W3C//DTD SVG 20010904//EN"
 "http://www.w3.org/TR/2001/REC-SVG-20010904/DTD/svg10.dtd">
<svg version="1.0" xmlns="http://www.w3.org/2000/svg"
 width="300.000000pt" height="300.000000pt" viewBox="0 0 300.000000 300.000000"
 preserveAspectRatio="xMidYMid meet">
<metadata>
Created by potrace 1.10, written by Peter Selinger 2001-2011
</metadata>
<g transform="translate(0.000000,300.000000) scale(0.100000,-0.100000)"
fill="#000000" stroke="none">
<path d="M1497 2550 c-170 -54 -310 -268 -370 -567 l-14 -68 -68 -8 c-38 -4
-83 -16 -101 -26 -18 -11 -41 -17 -52 -14 -30 7 -78 -22 -92 -57 -11 -27 -10
-33 5 -50 10 -11 24 -20 32 -20 24 0 14 -18 -22 -40 -41 -25 -120 -119 -144
-170 -9 -19 -27 -44 -40 -56 -18 -15 -24 -30 -23 -56 1 -21 -5 -41 -13 -48
-23 -19 -55 -116 -55 -166 0 -37 5 -51 31 -76 29 -29 33 -30 90 -25 l61 5 -7
-26 c-17 -65 -35 -202 -35 -262 0 -78 22 -130 75 -182 79 -78 152 -85 645 -64
206 8 485 18 619 22 137 3 262 11 285 18 48 14 80 55 90 116 9 60 -43 535 -70
628 -3 12 -2 22 3 22 9 0 25 -32 54 -107 5 -13 13 -23 19 -23 17 0 60 47 60
66 0 29 -39 100 -80 147 -53 60 -66 94 -44 118 20 22 14 54 -21 105 -14 20
-25 40 -25 45 0 4 -9 11 -20 14 -22 7 -28 35 -7 35 24 0 57 -31 57 -54 0 -12
3 -26 7 -29 10 -10 33 13 33 33 0 27 -57 80 -86 80 -17 0 -27 9 -37 33 -21 50
-39 58 -152 70 l-105 11 0 52 c0 73 -26 216 -56 306 -76 229 -235 330 -427
268z m207 -44 c86 -36 157 -149 203 -324 21 -79 26 -125 29 -246 2 -120 6
-151 18 -158 24 -14 40 -78 40 -163 0 -94 -15 -147 -51 -175 -35 -27 -49 -25
-85 11 l-31 30 6 102 c5 105 27 185 52 200 12 6 15 35 15 143 0 308 -88 523
-228 559 -201 53 -347 -170 -402 -615 -10 -82 -9 -86 12 -101 18 -14 22 -29
26 -101 5 -100 -14 -182 -52 -217 -32 -30 -72 -25 -100 12 -18 24 -21 41 -19
112 3 99 29 186 59 199 18 8 23 24 33 101 46 354 145 565 293 630 43 18 139
19 182 1z m-13 -71 c82 -43 146 -208 164 -430 l7 -80 -271 0 c-149 0 -271 3
-271 6 0 20 42 204 59 259 48 153 146 260 238 260 24 0 57 -7 74 -15z m-365
-92 c-42 -69 -88 -202 -114 -333 -13 -65 -23 -95 -33 -95 -18 0 -15 23 16 142
33 127 74 228 119 296 50 74 59 66 12 -10z m534 -503 c0 -12 -9 -33 -20 -48
-44 -61 -66 -265 -36 -337 16 -37 67 -75 102 -75 37 0 88 43 106 90 31 81 19
280 -18 311 -8 6 -14 24 -14 40 l0 29 73 -1 c128 -2 129 -3 149 -90 17 -76 58
-347 99 -659 26 -195 31 -398 10 -423 -11 -14 -33 -17 -120 -17 l-107 0 -19
56 c-27 81 -96 193 -160 263 -52 56 -57 65 -66 126 -15 107 -39 215 -65 295
-74 223 -246 397 -412 417 -33 4 -52 11 -52 19 0 14 59 18 388 22 157 2 162 1
162 -18z m-962 -7 c-3 -5 -10 -23 -17 -41 -15 -37 -44 -40 -49 -5 -2 15 5 26
25 37 31 17 47 20 41 9z m292 -1 c0 -5 -11 -19 -24 -32 -37 -34 -57 -103 -63
-212 -6 -108 3 -146 45 -178 60 -48 144 -11 179 78 26 67 25 236 0 276 -10 15
-16 30 -14 32 11 11 161 -57 211 -94 97 -73 190 -223 230 -369 19 -71 56 -256
51 -261 -2 -2 -18 10 -36 26 -95 81 -259 171 -394 215 -90 30 -312 82 -393 92
l-53 7 5 42 c3 22 10 91 16 151 6 61 13 124 16 140 3 22 2 26 -5 15 -8 -13
-27 -137 -47 -306 -4 -31 -10 -43 -24 -47 -25 -6 -25 -9 5 148 33 168 50 228
73 248 25 23 222 48 222 29z m-340 -150 c0 -11 -149 -196 -161 -200 -28 -11
16 57 99 156 42 49 62 63 62 44z m1465 -32 c9 -17 13 -35 10 -41 -4 -5 -15 7
-26 28 -22 43 -22 43 -9 43 5 0 17 -14 25 -30z m-1509 -141 c-13 -52 -36 -153
-52 -226 l-27 -132 -45 -10 c-45 -9 -92 -1 -92 17 0 5 9 35 20 68 23 65 63
132 92 153 25 17 38 52 27 73 -7 12 4 34 43 87 29 38 54 69 55 67 2 -1 -8 -45
-21 -97z m1610 -151 c16 -35 14 -68 -4 -68 -4 0 -14 16 -21 35 -6 19 -28 53
-47 76 -20 25 -34 51 -34 67 1 26 3 25 45 -23 24 -27 52 -67 61 -87z m-1723
88 c10 -8 15 -20 11 -30 -7 -19 -4 -19 -42 -1 -20 10 -29 21 -25 30 6 18 32
19 56 1z m-33 -60 c0 -2 -15 -29 -34 -61 -19 -31 -38 -70 -41 -86 -4 -16 -10
-29 -15 -29 -17 0 18 105 51 151 17 25 39 38 39 25z m245 -63 c-7 -60 -35
-389 -35 -408 0 -13 -58 -45 -79 -45 -7 0 25 241 55 408 15 86 18 92 41 92 22
0 23 -2 18 -47z m160 22 c111 -20 258 -59 339 -89 148 -56 283 -143 310 -201
18 -36 36 -202 36 -327 l0 -68 -83 0 c-82 0 -83 0 -118 36 -49 51 -197 148
-266 174 -120 45 -257 61 -347 41 l-38 -9 6 66 c8 91 26 341 26 375 0 23 3 27
23 23 12 -3 63 -13 112 -21z m-290 -230 c-11 -70 -12 -70 -19 -31 -6 29 -3 47
10 72 10 18 19 32 20 31 1 -1 -4 -33 -11 -72z m1006 -74 c31 -33 32 -37 54
-230 8 -73 18 -138 21 -142 3 -5 -13 -9 -34 -9 l-39 0 -5 168 c-4 123 -9 177
-21 205 -19 45 -13 47 24 8z m-1016 -28 c-4 -16 -8 -61 -10 -102 -2 -50 -8
-79 -19 -90 -15 -14 -16 -13 -16 9 0 44 34 210 43 210 5 0 6 -12 2 -27z m1148
-112 c47 -64 127 -213 127 -235 0 -3 -35 -6 -78 -6 l-78 0 -13 128 c-7 70 -15
142 -18 160 -3 17 -3 32 -1 32 3 0 30 -35 61 -79z m-752 -35 c111 -24 241 -93
349 -184 l34 -29 -333 -8 c-205 -4 -336 -4 -342 2 -6 6 -3 49 8 114 18 102 19
104 48 110 54 12 168 9 236 -5z m-304 -28 c-4 -13 -11 -56 -18 -96 -13 -79
-20 -81 -60 -16 -18 30 -19 38 -8 68 8 21 24 40 43 49 42 21 49 21 43 -5z
m770 -214 c-9 -9 -229 -21 -502 -28 -199 -5 -200 -5 -55 5 128 8 321 19 505
27 33 2 56 0 52 -4z m206 -1 c-34 -2 -93 -2 -130 0 -37 2 -9 3 62 3 72 0 102
-1 68 -3z"/>
<path d="M2174 1699 c4 -24 18 -143 32 -264 26 -230 83 -627 90 -634 15 -15
12 31 -15 215 -25 174 -59 432 -88 667 -3 26 -10 50 -15 53 -6 4 -7 -11 -4
-37z"/>
</g>
</svg>
