<?xml version="1.0" standalone="no"?>
<!DOCTYPE svg PUBLIC "-//W3C//DTD SVG 20010904//EN"
 "http://www.w3.org/TR/2001/REC-SVG-20010904/DTD/svg10.dtd">
<svg version="1.0" xmlns="http://www.w3.org/2000/svg"
 width="300.000000pt" height="300.000000pt" viewBox="0 0 300.000000 300.000000"
 preserveAspectRatio="xMidYMid meet">
<metadata>
Created by potrace 1.10, written by Peter Selinger 2001-2011
</metadata>
<g transform="translate(0.000000,300.000000) scale(0.100000,-0.100000)"
fill="#000000" stroke="none">
<path d="M1213 2865 c-86 -24 -151 -62 -183 -107 -29 -40 -153 -263 -219 -395
l-31 -62 -57 -6 c-89 -11 -278 -71 -381 -122 -111 -54 -136 -83 -129 -152 9
-85 116 -163 390 -285 70 -31 135 -56 143 -56 9 0 14 -3 12 -7 -2 -5 -23 -46
-46 -92 -60 -116 -52 -157 42 -196 29 -12 36 -20 31 -33 -15 -38 -17 -82 -5
-97 7 -8 17 -36 21 -62 5 -25 16 -55 25 -64 13 -15 15 -28 9 -66 -19 -113 13
-157 123 -170 43 -5 253 20 273 32 4 3 15 -5 22 -17 26 -41 42 -131 41 -228
-2 -114 -26 -188 -88 -268 -22 -30 -53 -70 -68 -89 -40 -52 -38 -94 8 -131
118 -97 409 -108 684 -25 179 54 330 145 330 199 0 24 -26 67 -60 99 -107 102
-180 331 -180 565 0 92 17 211 33 226 2 3 31 -2 63 -10 89 -23 300 -55 411
-62 166 -11 263 24 263 94 0 62 -100 207 -253 368 -96 101 -97 102 -97 152 0
40 6 56 30 87 36 45 37 63 9 99 l-21 27 17 126 c21 148 17 243 -14 305 -47 98
-235 245 -416 326 -178 79 -288 102 -515 108 -125 3 -178 0 -217 -11z m447
-74 c223 -45 423 -146 572 -289 97 -93 113 -153 86 -317 -6 -38 -12 -82 -12
-97 -1 -16 -3 -27 -6 -25 -3 1 -28 11 -55 21 -62 24 -60 23 -46 40 17 20 41
113 41 158 0 42 -19 58 -70 58 -41 0 -129 -42 -164 -79 l-29 -30 -20 39 c-22
45 -94 114 -153 146 -58 32 -81 20 -89 -49 -4 -31 -4 -73 0 -95 l7 -41 -104
46 c-129 57 -311 117 -431 143 -102 22 -238 40 -249 33 -15 -8 -8 7 43 99 110
197 144 229 272 254 92 17 278 11 407 -15z m-650 -402 c98 -12 279 -55 395
-94 157 -53 345 -137 345 -154 0 -5 -21 -15 -47 -21 -27 -6 -58 -14 -71 -17
-24 -6 -48 1 -267 72 -163 53 -359 101 -447 110 -38 4 -68 12 -68 17 0 18 52
98 64 98 6 0 50 -5 96 -11z m827 -70 c68 -59 83 -85 83 -146 0 -29 -4 -53 -8
-53 -4 0 -16 23 -26 51 -19 53 -39 70 -59 50 -8 -8 -5 -24 12 -63 12 -29 25
-59 28 -65 11 -27 -23 -11 -44 20 -29 43 -50 111 -59 185 -8 77 4 80 73 21z
m338 -76 c-11 -61 -43 -125 -78 -154 -24 -20 -32 -35 -32 -60 0 -19 -4 -35
-10 -36 -5 -1 -9 7 -8 18 2 11 -4 22 -12 25 -8 4 -15 13 -15 21 0 8 4 12 9 9
18 -11 71 66 71 103 0 32 -15 25 -57 -24 -40 -49 -41 -49 -62 -36 -39 25 117
169 183 171 16 0 17 -5 11 -37z m-1253 -18 c131 -20 307 -65 462 -120 72 -25
138 -45 148 -45 25 0 23 -7 -12 -37 -28 -23 -41 -63 -21 -63 5 0 44 -17 88
-37 71 -34 86 -37 166 -38 70 0 87 -3 87 -15 0 -26 46 -114 74 -141 39 -39
100 -79 143 -94 55 -19 65 -5 67 89 0 42 4 76 8 76 3 0 37 -18 75 -40 74 -42
188 -152 293 -280 34 -41 74 -86 90 -100 21 -18 26 -30 20 -40 -7 -12 -10 -12
-16 3 -3 10 -27 28 -53 41 -53 27 -282 103 -421 140 -216 57 -362 116 -560
227 -500 279 -807 385 -1112 383 -32 -1 -58 2 -58 6 0 8 246 78 315 89 76 13
111 12 217 -4z m-328 -160 c101 -13 125 -23 126 -49 0 -5 15 -38 32 -74 26
-52 34 -82 37 -141 4 -85 13 -82 -108 -31 -197 82 -355 173 -394 226 -23 31
-15 60 21 73 40 14 162 13 286 -4z m1208 -2 c29 -26 22 -33 -31 -33 -28 0 -52
-4 -56 -9 -8 -14 26 -30 71 -33 27 -3 40 -9 42 -21 6 -28 -43 -41 -103 -28
-59 13 -135 43 -135 53 0 13 64 52 114 69 65 22 75 23 98 2z m183 -27 c29 -24
29 -26 15 -53 -14 -24 -22 -28 -60 -28 -40 0 -44 2 -47 29 -3 20 3 36 18 52
28 30 37 30 74 0z m260 -15 c72 -38 95 -80 56 -101 -11 -5 -54 -10 -96 -10
-81 0 -135 18 -135 46 0 12 7 13 38 7 55 -11 95 -10 99 3 4 13 -47 34 -83 34
-25 0 -29 7 -16 26 18 27 82 25 137 -5z m-1357 -22 c194 -64 369 -145 606
-282 133 -77 320 -164 436 -203 30 -10 56 -19 58 -20 2 -1 -17 -40 -42 -86
-105 -195 -116 -513 -26 -760 37 -100 66 -150 126 -217 57 -64 55 -70 -38
-124 -180 -105 -525 -165 -693 -122 -84 22 -145 51 -145 69 0 9 22 40 49 70
58 64 92 121 117 196 23 71 23 237 0 335 -9 39 -18 76 -19 83 -1 7 32 26 78
45 104 42 184 96 266 177 68 68 125 152 114 170 -12 20 -44 9 -66 -22 -82
-121 -227 -227 -391 -288 -126 -46 -308 -76 -372 -61 -61 15 -62 18 -55 132 2
44 -1 61 -19 86 -12 17 -22 34 -22 37 0 3 27 6 60 6 45 0 62 4 67 15 8 22 5
23 -71 34 -38 5 -70 12 -73 15 -3 3 0 25 6 48 25 88 27 82 -25 96 -90 24 -93
40 -30 156 78 145 85 245 24 365 -18 36 -34 69 -36 74 -6 13 16 8 116 -24z
m1174 -129 c23 -35 25 -44 16 -76 -5 -20 -8 -48 -5 -61 2 -13 1 -26 -4 -29 -8
-5 -52 16 -102 50 -41 27 -97 146 -70 146 4 0 33 -26 65 -57 32 -31 60 -54 64
-50 4 3 -1 24 -10 47 -9 22 -16 47 -16 55 0 29 37 15 62 -25z m186 -10 l42 0
0 -40 c0 -38 -12 -52 -25 -30 -3 5 -28 21 -55 36 -52 28 -67 51 -27 40 12 -3
41 -6 65 -6z m-39 -425 c212 -62 427 -147 416 -165 -9 -15 -76 -30 -135 -30
-123 0 -520 64 -520 84 0 11 25 56 63 113 12 18 29 33 39 33 9 0 70 -16 137
-35z"/>
</g>
</svg>
