<?xml version="1.0" standalone="no"?>
<!DOCTYPE svg PUBLIC "-//W3C//DTD SVG 20010904//EN"
 "http://www.w3.org/TR/2001/REC-SVG-20010904/DTD/svg10.dtd">
<svg version="1.0" xmlns="http://www.w3.org/2000/svg"
 width="300.000000pt" height="300.000000pt" viewBox="0 0 300.000000 300.000000"
 preserveAspectRatio="xMidYMid meet">
<metadata>
Created by potrace 1.10, written by Peter Selinger 2001-2011
</metadata>
<g transform="translate(0.000000,300.000000) scale(0.050000,-0.050000)"
fill="#000000" stroke="none">
<path d="M1371 4618 c-395 -152 -725 -289 -734 -303 -33 -50 -15 -131 83 -386
131 -339 149 -351 379 -258 69 28 129 48 132 44 4 -4 34 -71 66 -150 l58 -143
-143 -54 c-609 -230 -632 -244 -632 -380 0 -66 891 -2431 950 -2521 85 -130
73 -133 1302 334 1213 461 1222 465 1242 617 8 59 18 78 33 63 37 -37 520 0
563 43 44 44 390 1309 369 1349 -18 32 -18 60 -3 106 19 52 16 67 -17 97 -38
36 -37 41 61 373 98 334 104 393 38 415 -15 5 8 114 70 327 160 548 151 620
-78 605 -146 -9 -324 -91 -410 -190 -54 -60 -75 -115 -170 -451 -25 -88 -42
-115 -71 -115 -51 0 -78 -61 -168 -380 -41 -148 -79 -281 -83 -295 -4 -14 -29
-25 -56 -25 -38 0 -54 -15 -72 -71 -14 -42 -42 -79 -69 -89 -41 -15 -252 -668
-251 -775 0 -47 -36 -25 -49 30 -15 59 -468 1254 -534 1407 -90 210 -168 215
-623 40 -349 -135 -357 -137 -373 -95 -9 24 -36 91 -60 151 -23 59 -40 109
-37 111 3 3 69 27 146 55 86 32 154 71 178 103 l38 51 -97 266 c-95 259 -170
379 -232 374 -15 -1 -350 -127 -746 -280z m840 -108 c46 -121 81 -227 76 -235
-22 -37 -43 -3 -106 170 -38 102 -73 192 -80 200 -11 12 -1090 -387 -1117
-414 -6 -6 22 -94 63 -196 40 -102 73 -191 73 -198 0 -14 -180 -85 -188 -74
-29 35 -176 466 -161 471 10 4 307 119 659 256 352 136 653 246 668 244 15 -2
65 -101 113 -224z m2928 99 c-37 -44 -221 -149 -263 -149 -18 0 -38 -16 -43
-35 -160 -553 -144 -511 -193 -485 -37 20 -37 23 0 135 21 63 56 179 79 257
l41 143 115 42 c63 23 151 64 195 91 86 53 112 53 69 1z m-3145 -202 c-8 -7
-1 -23 14 -35 53 -42 57 -106 8 -153 -25 -25 -32 -38 -16 -30 17 8 11 -3 -12
-24 -24 -20 -49 -57 -57 -81 -8 -25 -21 -40 -30 -34 -18 11 40 -186 80 -275
31 -67 17 -86 -41 -55 -37 20 -44 17 -54 -19 -12 -45 -45 -56 -47 -16 -1 14
-8 8 -17 -12 -13 -36 -16 -36 -48 -4 -19 19 -30 41 -24 50 5 9 -14 40 -43 69
-29 28 -46 52 -38 52 8 0 -19 35 -62 78 -77 78 -78 78 -222 59 -14 -2 -25 -16
-25 -31 0 -56 -78 14 -99 89 -28 101 -27 108 14 102 20 -4 62 12 95 35 33 23
71 38 85 33 14 -4 25 1 25 13 0 12 14 22 30 22 17 0 30 8 30 19 0 10 18 15 40
11 21 -4 45 2 52 13 8 14 19 12 30 -6 13 -21 17 -19 18 9 0 20 9 31 20 24 11
-7 20 -2 20 11 0 14 17 19 40 13 22 -6 35 -2 29 8 -6 10 11 18 39 18 27 0 56
10 63 21 7 12 25 17 40 11 15 -6 33 -2 40 9 6 10 17 19 24 19 6 0 6 -6 -1 -13z
m2726 -594 c61 -17 162 -37 225 -44 63 -8 110 -22 104 -31 -18 -28 -151 -21
-267 13 -58 18 -108 29 -111 25 -3 -3 -42 -136 -88 -294 -45 -159 -86 -292
-90 -296 -13 -13 -193 76 -193 97 0 15 126 467 171 612 5 18 25 14 73 -14 36
-21 116 -52 176 -68z m-1712 2 c47 -73 652 -1674 652 -1726 0 -25 -9 -52 -20
-59 -11 -7 -20 -3 -20 9 0 23 -610 1634 -636 1680 -45 78 -63 73 -1036 -299
-527 -201 -991 -378 -1032 -394 -119 -47 -122 -35 333 -1226 450 -1176 451
-1180 517 -1180 48 0 1963 729 2031 773 53 35 52 84 -6 216 l-35 78 47 -30
c85 -56 140 -221 93 -281 -26 -35 -2037 -812 -2146 -830 -107 -17 -130 32
-593 1243 -517 1353 -499 1208 -163 1338 1886 734 1967 761 2014 688z m-1457
-125 c60 -148 61 -137 -12 -164 -55 -21 -63 -19 -79 20 -10 24 -35 86 -57 137
l-39 93 43 21 c71 35 93 18 144 -107z m1311 -190 c29 -27 50 -55 47 -61 -4 -7
5 -35 19 -62 15 -28 33 -84 40 -124 8 -40 24 -73 36 -73 13 0 17 -6 10 -13 -8
-7 -4 -25 8 -40 13 -15 17 -40 11 -57 -7 -16 -3 -30 8 -30 27 0 24 -37 -6 -68
-24 -27 -95 26 -95 70 0 9 -23 39 -51 67 -28 28 -43 51 -33 51 10 0 14 25 8
55 l-11 55 -18 -67 c-16 -64 -19 -65 -61 -34 -24 17 -73 47 -109 65 -36 18
-65 41 -65 51 0 9 -9 12 -21 4 -11 -7 -43 2 -69 19 -62 41 -77 40 -61 -2 11
-30 8 -30 -28 3 -43 39 -35 81 12 63 16 -7 24 -3 18 7 -7 10 -3 24 7 30 11 6
25 2 32 -9 7 -11 21 -15 32 -9 10 6 13 20 7 30 -10 17 32 28 76 21 8 -1 15 13
15 30 0 26 14 30 70 19 61 -11 70 -8 70 28 0 52 34 45 102 -19z m2018 -20
c-14 -9 -19 -26 -11 -38 7 -12 0 -27 -16 -34 -17 -6 -27 -31 -24 -59 3 -27 -2
-49 -12 -49 -22 0 -15 103 10 137 14 18 13 31 -5 42 -17 10 -7 16 28 16 33 0
45 -6 30 -15z m-537 -340 c173 -82 320 -120 470 -120 52 0 87 -9 87 -23 0 -16
-48 -19 -170 -10 l-170 13 0 -50 c0 -64 6 -65 -197 40 -236 123 -227 116 -212
177 16 65 -6 68 192 -27z m-1944 -20 c984 -186 959 -1780 -27 -1780 -989 0
-1191 1589 -227 1779 119 23 136 23 254 1z m-880 -85 c0 14 9 25 19 25 10 0
16 -11 12 -25 -19 -78 -36 -113 -51 -104 -21 12 -104 -170 -92 -201 5 -13 -8
-34 -29 -47 -24 -14 -38 -46 -38 -84 0 -34 -8 -56 -18 -50 -28 17 -37 -31 -21
-105 11 -46 7 -74 -14 -95 -42 -41 -53 -36 -42 20 5 28 3 46 -5 41 -29 -18
-63 93 -38 123 19 22 17 25 -9 15 -22 -8 -33 -2 -33 18 0 17 -9 34 -20 37 -10
4 -22 40 -25 80 -3 40 -13 68 -22 63 -16 -10 -14 107 3 140 4 9 20 0 35 -20
27 -35 28 -35 28 0 1 20 10 31 21 24 11 -7 15 1 8 18 -8 21 5 34 40 43 29 7
52 22 52 34 0 12 11 11 28 -4 20 -16 32 -16 42 -2 7 12 20 17 28 12 9 -5 37
13 63 41 44 46 49 47 62 14 8 -20 15 -25 16 -11z m2771 -115 c106 -76 300
-122 457 -110 202 16 173 -22 -34 -42 -75 -7 -139 -24 -143 -36 -4 -12 -67
-229 -141 -482 -153 -526 -203 -670 -233 -670 -11 0 -15 15 -8 33 26 67 332
1123 332 1145 0 12 -10 22 -23 22 -12 0 -108 41 -213 90 -105 50 -192 88 -195
85 -3 -3 -56 -180 -118 -395 -142 -490 -131 -461 -153 -402 -15 37 8 138 102
452 66 222 120 415 120 428 0 21 162 -56 250 -118z m-2 -291 c0 -22 -7 -66
-15 -99 -7 -33 -17 -79 -22 -103 -4 -23 -30 -113 -57 -200 -28 -86 -55 -184
-60 -217 -6 -33 -20 -100 -31 -150 -11 -49 -26 -121 -33 -159 -21 -118 -43
-90 -138 175 -62 175 -64 204 -13 204 22 0 50 19 62 42 12 22 34 36 50 31 17
-7 23 -1 16 18 -6 16 -1 29 12 29 13 0 17 10 10 22 -8 12 7 49 31 83 25 33 33
53 18 44 -22 -13 -23 -11 -6 12 13 16 20 45 17 64 -3 19 4 35 15 35 11 0 15
14 9 30 -7 17 -3 30 7 30 11 0 25 25 32 55 25 102 98 143 96 54z m-908 -520
c0 -17 9 -26 20 -19 11 7 20 3 20 -9 0 -12 41 -50 90 -85 82 -58 89 -70 78
-128 -10 -56 -3 -70 60 -118 l72 -55 -52 -48 c-30 -29 -47 -61 -40 -79 7 -17
3 -25 -8 -18 -18 11 -24 -3 -18 -43 4 -35 -54 -43 -80 -12 -26 33 -27 33 -15
-1 7 -21 4 -31 -7 -24 -11 7 -38 -5 -61 -27 -26 -23 -66 -37 -102 -35 -40 3
-66 -7 -79 -32 -11 -21 -28 -32 -38 -26 -9 6 -23 1 -30 -10 -7 -12 -32 -16
-54 -9 -30 10 -37 7 -25 -12 11 -18 6 -22 -18 -13 -19 7 -33 3 -33 -10 0 -12
-6 -17 -13 -10 -7 8 -25 4 -38 -7 -45 -37 -129 -43 -129 -9 0 16 10 30 21 30
12 0 15 10 7 23 -8 13 -5 18 5 11 27 -17 131 83 114 110 -8 13 -4 17 9 9 25
-16 127 86 112 111 -6 9 5 16 23 16 20 0 29 11 22 28 -6 16 0 33 14 38 13 5
36 55 50 112 21 78 36 102 65 102 26 0 38 14 37 45 -2 40 -3 41 -17 7 -9 -22
-15 16 -16 95 -1 100 6 133 27 133 15 0 27 -14 27 -31z m380 -244 c0 -25 -8
-45 -19 -45 -32 0 -45 40 -32 95 16 62 50 28 51 -50z m-1980 -524 c0 18 6 21
15 8 8 -11 53 -37 99 -57 46 -20 88 -49 94 -64 6 -16 24 -22 45 -14 24 9 29 6
17 -14 -11 -17 -8 -21 6 -12 13 7 45 -1 72 -18 28 -19 53 -24 60 -13 13 21 88
8 127 -22 17 -13 34 -12 53 3 21 18 35 16 60 -9 59 -58 37 -101 -44 -90 -15 2
-42 -8 -59 -23 -27 -22 -30 -21 -16 2 12 19 10 24 -6 14 -13 -8 -23 -26 -23
-40 0 -16 -22 -24 -55 -22 -30 1 -75 -10 -99 -25 -24 -16 -55 -22 -68 -14 -15
9 -19 7 -11 -6 8 -13 -6 -28 -31 -36 -27 -9 -47 -5 -52 8 -4 13 -16 23 -27 23
-11 0 -13 -11 -5 -23 10 -16 4 -20 -20 -11 -19 8 -29 5 -23 -5 21 -33 -18 -38
-69 -10 -44 25 -46 28 -10 28 36 1 34 5 -12 36 -29 19 -48 46 -43 60 4 14 -1
25 -12 25 -11 0 -17 27 -13 59 6 44 1 56 -19 48 -20 -7 -26 5 -22 41 3 29 -1
52 -10 52 -8 0 -25 28 -37 63 -28 79 -27 82 3 67 14 -7 8 1 -12 17 -20 17 -31
40 -24 52 7 11 3 21 -9 21 -12 0 -17 9 -10 20 7 11 2 20 -10 20 -12 0 -17 9
-10 20 7 11 57 -26 111 -83 55 -58 99 -91 99 -76z"/>
<path d="M2052 2981 c-369 -148 -525 -519 -395 -938 254 -814 1306 -761 1358
69 36 572 -500 1056 -963 869z m464 -109 c453 -230 567 -936 196 -1219 -320
-244 -739 -101 -937 322 -271 578 213 1164 741 897z"/>
</g>
</svg>
