<?xml version="1.0" standalone="no"?>
<!DOCTYPE svg PUBLIC "-//W3C//DTD SVG 20010904//EN"
 "http://www.w3.org/TR/2001/REC-SVG-20010904/DTD/svg10.dtd">
<svg version="1.0" xmlns="http://www.w3.org/2000/svg"
 width="300.000000pt" height="404.000000pt" viewBox="0 0 300.000000 404.000000"
 preserveAspectRatio="xMidYMid meet">
<metadata>
Created by potrace 1.10, written by Peter Selinger 2001-2011
</metadata>
<g transform="translate(0.000000,404.000000) scale(0.100000,-0.100000)"
fill="#000000" stroke="none">
<path d="M1096 3842 c-54 -61 -84 -111 -148 -241 -44 -90 -81 -178 -82 -195
-1 -28 4 -34 48 -55 27 -14 68 -26 90 -27 22 -1 42 -6 44 -12 1 -5 -38 -31
-88 -57 -50 -25 -94 -53 -97 -62 -7 -17 67 -249 137 -433 53 -139 145 -341
200 -440 20 -36 83 -149 139 -252 57 -104 108 -188 113 -188 5 0 7 8 4 18 -10
36 -67 273 -100 417 -72 310 -144 738 -172 1030 -11 121 -15 227 -11 368 2
108 1 199 -3 202 -4 2 -37 -30 -74 -73z"/>
<path d="M1644 3903 c27 -85 25 -347 -4 -633 -22 -216 -116 -728 -181 -985
-20 -76 -20 -174 -2 -222 7 -19 21 -16 27 5 4 10 38 77 77 148 105 191 172
327 238 481 71 168 171 450 171 484 0 20 -14 31 -88 69 -100 52 -115 75 -50
76 47 1 126 36 135 60 6 17 -26 98 -107 269 -46 95 -71 135 -125 193 -64 69
-103 92 -91 55z"/>
<path d="M850 3677 c-52 -21 -169 -65 -260 -98 -91 -33 -172 -69 -182 -80 -36
-42 -71 -323 -122 -969 -51 -646 -81 -1044 -106 -1407 -11 -158 -27 -391 -36
-518 -8 -126 -16 -266 -17 -310 l-2 -80 55 -7 c208 -27 285 -36 296 -31 17 6
33 63 36 128 3 46 1 50 -27 62 -79 35 -80 36 -83 84 -3 46 36 215 133 584 24
94 45 189 45 212 0 24 13 166 30 315 72 665 72 677 36 898 -14 85 -32 229 -41
320 -17 182 -42 341 -80 508 -27 119 -31 152 -16 137 28 -29 95 -371 146 -747
32 -231 84 -512 146 -776 10 -45 19 -97 19 -115 0 -18 -20 -87 -44 -152 -24
-66 -41 -123 -37 -126 3 -3 69 -14 146 -23 77 -10 144 -22 150 -27 12 -11 -9
-139 -30 -178 -8 -16 -21 -31 -30 -34 -8 -4 -81 5 -162 18 -80 14 -148 23
-151 21 -16 -16 -212 -774 -212 -820 0 -33 27 -47 171 -85 197 -52 435 -93
512 -89 64 4 72 6 102 39 37 41 74 146 129 364 44 173 48 205 87 645 35 391
34 415 -19 493 -46 68 -239 418 -319 578 -40 82 -98 208 -127 281 -59 144
-166 471 -166 504 0 28 25 48 88 70 28 10 51 23 49 28 -2 5 -23 15 -48 22 -52
15 -89 46 -89 75 0 24 71 196 107 257 39 68 29 72 -77 29z m93 -1362 c21 -108
70 -535 63 -543 -3 -3 -8 -3 -10 -1 -2 2 -18 114 -35 249 -17 135 -35 272 -41
305 -22 131 -2 122 23 -10z m471 -571 c35 -35 6 -89 -42 -78 -38 9 -52 23 -52
50 0 40 63 59 94 28z"/>
<path d="M1883 3698 c3 -7 31 -69 62 -138 32 -69 60 -141 62 -161 5 -32 2 -40
-21 -54 -14 -10 -43 -23 -63 -30 -37 -13 -57 -35 -31 -35 7 0 37 -11 66 -25
50 -23 52 -26 52 -64 0 -21 -22 -104 -50 -184 -27 -80 -50 -147 -50 -149 0 -2
44 4 98 13 53 10 103 18 110 19 16 0 16 -52 -2 -94 -16 -38 -32 -43 -161 -53
-73 -6 -79 -5 -67 10 8 9 37 18 70 22 82 9 120 23 127 46 4 11 5 22 3 23 -7 6
-155 -16 -177 -27 -18 -9 -35 -38 -63 -107 -50 -123 -176 -379 -272 -550 -42
-74 -80 -150 -85 -167 -7 -23 -4 -68 10 -154 22 -136 23 -119 -26 -684 -13
-159 -25 -316 -25 -348 0 -63 54 -304 89 -398 12 -30 35 -69 52 -85 30 -28 33
-29 127 -28 97 1 258 30 496 90 121 30 146 45 146 82 0 32 -63 285 -149 600
-34 122 -61 224 -61 225 0 2 -39 -5 -87 -15 -49 -9 -120 -21 -159 -24 -68 -6
-73 -6 -88 17 -17 27 -49 166 -41 180 8 13 67 26 183 40 57 7 105 16 108 20 2
4 -17 67 -42 140 l-47 132 13 66 c7 36 30 136 51 222 67 274 97 428 134 678
46 309 105 595 136 653 23 44 24 11 2 -79 -44 -183 -72 -338 -98 -543 -14
-113 -37 -275 -51 -360 -29 -176 -31 -122 27 -775 40 -465 39 -449 61 -528 20
-72 134 -507 159 -605 19 -76 7 -101 -64 -134 -44 -21 -57 -33 -57 -50 0 -46
22 -147 33 -151 16 -5 343 36 352 45 4 3 0 109 -9 235 -9 125 -23 343 -31 483
-8 140 -28 476 -45 745 -17 270 -35 555 -40 635 -37 595 -80 1081 -101 1148
-14 42 -34 52 -284 141 -110 39 -215 78 -233 86 -40 18 -56 19 -49 3z m23
-1330 c-5 -21 -26 -159 -72 -493 -9 -60 -17 -112 -20 -114 -14 -14 -12 27 11
205 32 246 64 424 77 424 6 0 8 -10 4 -22z"/>
<path d="M705 1434 c-9 -22 -17 -55 -18 -74 l-2 -34 120 -22 c163 -30 163 -30
180 9 7 17 16 53 20 78 l7 46 -119 12 c-65 7 -130 15 -145 18 -24 5 -29 1 -43
-33z"/>
<path d="M2025 1465 c-5 -2 -56 -9 -112 -15 -116 -14 -115 -13 -92 -105 18
-69 21 -70 170 -41 72 14 134 27 136 30 7 6 -17 88 -33 114 -13 20 -41 27 -69
17z"/>
<path d="M165 170 c-18 -29 29 -44 191 -61 62 -7 116 -10 120 -6 4 3 4 12 1
20 -4 10 -42 20 -119 31 -181 26 -186 27 -193 16z"/>
<path d="M2475 160 c-139 -22 -157 -27 -153 -48 3 -14 13 -16 48 -14 60 5 260
39 267 46 3 3 3 12 0 21 -8 18 -21 18 -162 -5z"/>
</g>
</svg>
