<?xml version="1.0" standalone="no"?>
<!DOCTYPE svg PUBLIC "-//W3C//DTD SVG 20010904//EN"
 "http://www.w3.org/TR/2001/REC-SVG-20010904/DTD/svg10.dtd">
<svg version="1.0" xmlns="http://www.w3.org/2000/svg"
 width="300.000000pt" height="300.000000pt" viewBox="0 0 300.000000 300.000000"
 preserveAspectRatio="xMidYMid meet">
<metadata>
Created by potrace 1.10, written by Peter Selinger 2001-2011
</metadata>
<g transform="translate(0.000000,300.000000) scale(0.100000,-0.100000)"
fill="#000000" stroke="none">
<path d="M1513 2656 c-65 -21 -107 -51 -176 -127 -121 -130 -220 -370 -257
-626 l-12 -82 -57 -6 c-31 -4 -74 -10 -96 -13 l-39 -7 -37 -165 c-49 -221
-158 -651 -225 -888 -30 -106 -54 -203 -54 -216 0 -32 40 -79 85 -100 57 -28
134 -36 435 -46 157 -5 413 -17 570 -26 410 -24 612 -24 672 -1 127 49 189
206 292 740 87 447 100 553 73 575 -7 7 -81 25 -163 42 -82 17 -174 38 -205
46 -31 8 -62 14 -68 14 -20 0 -8 -305 25 -635 18 -186 79 -564 93 -578 16 -16
77 221 171 658 29 138 56 251 81 349 43 164 -34 -293 -106 -629 -63 -294 -120
-463 -162 -479 -61 -24 -172 785 -173 1255 0 122 2 119 -89 119 l-58 0 -7 78
c-20 223 -82 477 -143 581 -36 62 -89 118 -141 148 -54 32 -163 41 -229 19z
m174 -85 c20 -13 42 -42 62 -83 57 -118 81 -264 81 -500 l0 -148 -255 0 c-140
0 -258 0 -262 0 -21 2 15 244 59 400 33 120 96 254 136 293 61 58 123 71 179
38z m-333 -173 c-47 -110 -88 -273 -110 -435 l-18 -133 -38 0 c-36 0 -38 2
-38 30 0 91 64 317 125 445 35 73 100 175 112 175 1 0 -14 -37 -33 -82z m575
-313 c11 -66 22 -148 26 -182 l6 -63 -31 0 -30 0 0 158 c0 86 -2 182 -5 212
-8 88 12 16 34 -125z m-96 -336 c-2 -13 -6 -71 -9 -129 -6 -94 -5 -107 13
-129 14 -17 25 -22 40 -17 44 14 63 117 39 219 -20 84 -20 87 -1 87 46 0 74
-198 40 -286 -34 -90 -131 -99 -171 -16 -33 69 -1 313 38 299 7 -2 12 -15 11
-28z m-757 -21 c-15 -97 -17 -213 -4 -238 19 -35 43 -36 65 -4 20 31 25 149
10 237 -7 40 -6 47 8 47 31 0 47 -65 43 -179 -3 -91 -6 -111 -26 -138 -41 -58
-117 -51 -144 15 -15 36 -13 190 2 238 24 75 57 90 46 22z m359 -1228 c328
-15 733 -57 775 -80 38 -22 -44 -22 -374 -1 -278 17 -826 40 -998 41 -38 0
-35 17 4 25 26 6 197 18 338 23 19 1 134 -3 255 -8z"/>
<path d="M625 1714 c-89 -22 -147 -42 -159 -54 -19 -19 -20 -26 -7 -227 23
-390 57 -733 71 -733 4 0 28 73 53 163 59 208 217 842 217 867 0 26 -9 25
-175 -16z"/>
</g>
</svg>
