<?xml version="1.0" standalone="no"?>
<!DOCTYPE svg PUBLIC "-//W3C//DTD SVG 20010904//EN"
 "http://www.w3.org/TR/2001/REC-SVG-20010904/DTD/svg10.dtd">
<svg version="1.0" xmlns="http://www.w3.org/2000/svg"
 width="300.000000pt" height="300.000000pt" viewBox="0 0 300.000000 300.000000"
 preserveAspectRatio="xMidYMid meet">
<metadata>
Created by potrace 1.10, written by Peter Selinger 2001-2011
</metadata>
<g transform="translate(0.000000,300.000000) scale(0.100000,-0.100000)"
fill="#000000" stroke="none">
<path d="M1513 2656 c-63 -21 -105 -50 -171 -121 -125 -133 -220 -365 -263
-637 -13 -86 -3 -80 -139 -93 l-65 -7 -19 -96 c-24 -129 -184 -764 -246 -979
-28 -95 -50 -183 -50 -197 0 -32 40 -79 85 -100 58 -28 134 -36 450 -46 165
-6 419 -17 565 -26 146 -9 346 -17 445 -18 165 -1 184 1 226 20 122 58 184
221 289 764 80 418 94 526 68 548 -7 6 -80 24 -163 41 -82 17 -180 39 -218 50
-37 10 -69 16 -71 12 -3 -6 6 -169 24 -441 16 -242 86 -748 108 -784 3 -5 9 1
14 15 18 47 88 337 138 569 72 338 102 464 111 475 20 22 12 -31 -76 -475 -82
-411 -123 -563 -175 -648 -11 -19 -26 -32 -33 -29 -57 18 -148 662 -165 1162
l-7 210 -71 3 -71 3 -7 77 c-10 119 -42 298 -71 395 -49 168 -119 279 -212
334 -55 32 -163 41 -230 19z m-27 -91 c-25 -26 -46 -51 -46 -56 0 -5 -6 -9
-12 -9 -16 0 -51 -51 -77 -112 -51 -119 -98 -320 -117 -495 l-6 -61 -40 -4
c-22 -2 -41 -1 -43 2 -7 11 26 178 56 280 36 124 90 243 150 331 24 35 42 68
41 73 -5 15 41 57 88 81 25 13 47 21 49 19 2 -2 -17 -24 -43 -49z m194 10 c91
-47 150 -276 150 -581 l0 -159 -265 0 c-201 0 -265 3 -265 12 0 45 36 254 59
347 78 306 195 446 321 381z m185 -142 c38 -81 47 -113 30 -113 -11 0 -11 -7
0 -44 15 -51 51 -270 60 -374 l7 -74 -28 4 -29 3 -6 195 c-4 107 -9 202 -12
210 -3 8 -8 28 -11 43 -4 15 -11 25 -16 22 -5 -3 -14 14 -20 37 -23 93 -33
125 -56 170 -13 26 -24 51 -24 55 1 19 80 -82 105 -134z m-572 -620 c17 -16
41 -18 236 -15 119 2 222 -1 229 -6 12 -8 11 -15 -3 -42 -12 -22 -19 -67 -22
-134 -5 -90 -3 -106 17 -148 38 -82 112 -109 178 -65 61 40 77 83 77 207 -1
100 -7 129 -37 173 -11 15 -10 20 6 33 18 12 22 12 41 -6 13 -12 35 -20 57
-20 62 0 64 -7 72 -227 6 -171 21 -367 42 -548 12 -106 55 -362 75 -444 24
-97 33 -118 63 -142 21 -18 21 -18 -16 -33 -53 -22 -71 -21 -63 5 9 27 -18 56
-64 69 -107 28 -510 65 -836 76 -204 7 -466 -7 -524 -27 -29 -10 -48 -40 -42
-68 3 -18 -72 -9 -122 15 -62 29 -64 54 -22 198 54 187 205 778 254 998 l22
96 40 7 c22 4 43 5 46 2 3 -3 0 -29 -7 -57 -20 -85 -18 -208 5 -255 55 -109
163 -107 223 6 22 40 23 54 20 154 -3 80 -9 119 -21 143 -14 25 -15 32 -4 32
8 0 22 9 32 20 22 24 24 24 48 3z m590 3 c3 -8 0 -17 -8 -19 -15 -7 -25 1 -25
20 0 17 26 17 33 -1z m-52 -102 c-14 -74 -14 -186 1 -219 17 -37 53 -33 75 8
22 41 22 165 -1 226 -20 55 -20 53 6 49 35 -5 52 -52 56 -151 6 -136 -29 -207
-101 -207 -41 0 -67 17 -83 55 -16 40 -18 160 -3 225 24 105 71 118 50 14z
m-755 9 c-15 -115 -17 -208 -4 -233 19 -35 43 -36 65 -4 20 31 25 138 10 232
-8 45 -7 52 8 52 27 0 47 -65 48 -159 1 -99 -14 -152 -50 -181 -35 -28 -69
-25 -103 8 -35 36 -45 102 -31 205 12 86 28 127 49 127 12 0 13 -9 8 -47z
m1366 -38 c61 -14 117 -25 124 -25 7 0 24 -4 38 -10 l26 -9 -23 -34 c-24 -35
-65 -192 -132 -507 -19 -91 -42 -190 -50 -220 -8 -30 -19 -74 -25 -97 -13 -52
-27 -62 -34 -26 -28 140 -69 545 -81 816 l-7 137 27 0 c14 0 76 -11 137 -25z
m-560 -104 c-2 -17 -8 -31 -13 -31 -11 0 -12 80 -2 107 6 15 8 12 14 -13 3
-17 4 -45 1 -63z m-417 -1081 c375 -19 755 -62 755 -87 0 -18 -45 -17 -411 7
-167 10 -461 24 -653 30 -192 5 -352 12 -355 15 -13 14 30 24 128 30 58 3 120
7 136 9 69 7 212 5 400 -4z"/>
<path d="M625 1714 c-77 -20 -148 -43 -157 -51 -13 -11 -18 -31 -18 -64 0
-132 63 -896 75 -908 3 -2 7 -2 9 0 7 7 131 478 201 759 35 144 67 271 70 281
9 27 -14 25 -180 -17z m116 -70 c-5 -22 -12 -50 -15 -64 -6 -29 -103 -411
-141 -555 -24 -92 -45 -140 -45 -104 0 7 -5 52 -10 99 -9 83 -40 519 -40 572
0 18 8 33 25 44 30 20 217 64 228 54 5 -4 4 -25 -2 -46z"/>
</g>
</svg>
