<?xml version="1.0" standalone="no"?>
<!DOCTYPE svg PUBLIC "-//W3C//DTD SVG 20010904//EN"
 "http://www.w3.org/TR/2001/REC-SVG-20010904/DTD/svg10.dtd">
<svg version="1.0" xmlns="http://www.w3.org/2000/svg"
 width="300.000000pt" height="319.000000pt" viewBox="0 0 300.000000 319.000000"
 preserveAspectRatio="xMidYMid meet">
<metadata>
Created by potrace 1.10, written by Peter Selinger 2001-2011
</metadata>
<g transform="translate(0.000000,319.000000) scale(0.050000,-0.050000)"
fill="#000000" stroke="none">
<path d="M2487 6172 c-668 -128 -1095 -560 -1163 -1176 l-14 -126 -80 -6
c-133 -11 -150 -41 -148 -262 3 -322 17 -386 93 -425 l66 -32 -500 -489 c-588
-576 -609 -612 -430 -753 219 -172 1122 -189 1664 -31 44 12 45 10 45 -167 0
-563 -217 -1000 -664 -1339 -97 -73 -95 -79 30 -105 203 -42 460 -190 847
-487 564 -432 844 -560 1084 -495 229 62 218 234 -35 543 -212 259 -209 456
13 1061 l76 207 79 -3 c44 -1 166 -18 270 -38 384 -72 539 28 540 348 0 57 14
105 41 139 27 34 40 78 38 123 -2 39 10 104 28 145 18 40 38 124 46 187 9 75
29 132 60 169 50 59 62 155 27 219 -10 20 -25 85 -32 144 l-12 107 186 90
c889 430 1468 1264 1062 1529 -169 110 -270 122 -1020 115 -820 -7 -739 -26
-853 207 -239 490 -743 716 -1344 601z m618 -131 c213 -54 305 -107 463 -265
157 -157 158 -165 10 -134 -370 80 -1014 -104 -1407 -401 -153 -116 -165 -119
-191 -51 -10 28 -30 50 -44 50 -40 0 -265 -250 -306 -339 -20 -45 -44 -81 -54
-81 -44 0 80 262 165 351 75 78 75 98 0 59 -93 -47 -202 -170 -256 -287 -108
-232 -85 89 25 361 233 573 946 903 1595 737z m-185 -676 c0 -8 -38 -27 -85
-42 -146 -45 -438 -199 -610 -323 -189 -135 -216 -129 -56 14 190 169 751 431
751 351z m1503 -94 c250 -1 452 -3 449 -6 -3 -2 -91 -26 -196 -53 -460 -117
-1179 -458 -2006 -951 -499 -298 -892 -505 -1200 -632 -170 -70 -1050 -369
-1050 -357 0 4 92 71 205 151 320 225 918 680 908 690 -9 10 -240 -127 -343
-203 -87 -64 -119 -81 -102 -53 23 36 307 248 472 351 141 88 156 92 250 81
169 -21 310 56 310 169 0 27 29 56 85 88 616 346 763 433 750 446 -14 14 -337
-141 -583 -281 -264 -150 -252 -146 -252 -82 0 137 545 461 1006 599 233 70
234 70 554 57 160 -7 494 -13 743 -14z m835 -32 c-463 -54 -1360 -454 -2508
-1119 -758 -440 -1359 -721 -1486 -696 -19 4 52 37 156 73 279 96 737 327
1180 594 1112 670 2244 1169 2640 1165 l150 -1 -132 -16z m231 -140 c-5 -9 9
-11 31 -5 24 7 40 1 40 -14 0 -14 16 -38 35 -52 31 -24 31 -30 5 -48 -27 -18
-27 -22 0 -40 24 -16 25 -23 4 -37 -14 -9 -25 -25 -23 -35 11 -57 -8 -110 -60
-170 -32 -36 -54 -74 -48 -82 5 -9 -5 -16 -22 -16 -17 0 -31 -13 -31 -30 0
-16 -9 -30 -20 -30 -11 0 -20 -10 -20 -22 0 -28 -193 -218 -222 -218 -11 0
-15 -9 -8 -20 7 -11 -2 -20 -19 -20 -17 0 -42 -18 -56 -40 -27 -43 -66 -56
-45 -15 7 14 -1 8 -19 -14 -17 -21 -31 -45 -31 -52 0 -11 -147 -81 -183 -87
-8 -1 -32 -24 -55 -50 -23 -26 -42 -42 -42 -34 0 8 -11 7 -25 -1 -49 -31 -95
-27 -98 8 -11 103 -6 165 12 165 12 0 8 9 -9 20 -16 11 -20 20 -8 20 21 0 21
96 -1 154 -5 12 4 34 20 47 30 25 41 69 13 52 -8 -6 -16 5 -17 23 -1 19 -5 88
-8 154 -3 66 -9 109 -14 95 -13 -38 -36 -30 -59 20 -23 50 -1 135 36 135 16 0
16 -8 -2 -30 -29 -35 -13 -39 41 -9 22 11 39 30 39 41 0 37 49 70 103 70 29 0
68 12 87 28 28 23 36 23 53 -1 15 -22 22 -23 30 -4 6 14 19 20 29 14 10 -6 18
2 18 18 0 16 27 34 65 41 70 13 125 27 125 32 0 2 26 7 57 13 36 6 52 1 44
-12 -8 -12 1 -21 18 -21 17 0 31 13 31 29 0 15 20 32 45 36 73 14 174 10 164
-6z m-3531 -74 c31 -75 81 -321 82 -397 l0 -63 -158 1 -158 1 98 89 c54 48 98
105 98 126 0 55 -18 48 -117 -47 -95 -92 -87 -50 18 85 29 39 59 86 66 105 24
71 -23 31 -125 -106 -58 -78 -110 -137 -116 -132 -29 29 227 393 276 393 7 0
23 -25 36 -55z m-596 -278 c25 -29 20 -31 -42 -17 -112 24 -141 49 -57 49 43
1 83 -12 99 -32z m2997 -198 l38 -196 -91 -81 c-225 -198 -220 -443 14 -793
124 -185 125 -216 10 -326 -49 -47 -90 -101 -90 -120 0 -46 29 -41 67 12 l31
45 1 -54 c2 -119 -29 -156 -134 -156 -54 0 -128 -16 -169 -37 -40 -20 -123
-57 -184 -82 -176 -72 -144 -88 138 -72 272 15 300 5 249 -90 -24 -45 -177
-49 -314 -8 -76 23 -50 -19 43 -70 48 -26 115 -48 148 -48 l60 0 -10 -111
c-23 -256 -166 -292 -638 -160 -580 162 -1088 520 -1088 767 0 17 -10 31 -21
31 -12 0 -17 -16 -11 -35 5 -19 16 -62 24 -95 31 -136 116 -263 274 -410 541
-503 511 -440 395 -826 -146 -488 -163 -814 -53 -965 44 -60 54 -27 31 99 -12
63 -18 130 -15 148 7 33 20 17 252 -310 116 -164 55 -258 -151 -237 -214 23
-354 100 -860 478 -361 271 -642 447 -740 465 -86 16 -84 22 53 143 382 337
614 1106 471 1563 -14 44 -11 47 33 34 187 -55 278 -18 278 113 l0 65 -47 -58
c-84 -106 -295 -9 -421 194 -56 91 -60 140 -7 100 138 -106 418 -140 358 -44
-14 23 -23 44 -19 46 3 3 38 24 76 47 39 23 127 106 197 184 282 316 954 555
1240 442 108 -43 143 -40 143 10 0 30 -137 109 -189 109 -56 0 -32 29 84 104
63 40 200 145 304 234 105 88 193 157 196 154 3 -4 23 -95 44 -203z m-2810 21
c1 -156 -15 -181 -74 -115 -68 78 -61 156 21 250 44 51 51 32 53 -135z m-218
-85 c-63 -92 -68 -135 -12 -106 49 27 107 27 91 1 -38 -62 -210 -97 -210 -44
0 54 114 224 150 224 25 0 21 -15 -19 -75z m639 -66 c26 -11 -5 -17 -93 -18
-134 -1 -197 11 -197 37 0 18 236 2 290 -19z m2430 -184 c0 -3 -14 -54 -30
-115 -16 -60 -30 -148 -30 -195 0 -71 -6 -85 -39 -85 -100 0 -99 181 2 318 49
66 98 105 97 77z m-48 -607 c43 -102 19 -109 -31 -10 -23 46 -32 82 -20 82 11
0 35 -32 51 -72z m-2617 -301 c25 15 51 -42 32 -72 -7 -12 -4 -15 8 -8 12 8
35 -13 52 -47 16 -33 22 -60 11 -60 -10 0 -18 -22 -18 -49 0 -29 -17 -58 -40
-71 -32 -17 -40 -15 -40 9 0 17 -9 31 -19 31 -11 0 -14 -16 -7 -35 11 -29 8
-31 -17 -10 -22 17 -36 18 -52 2 -16 -16 -39 -16 -83 -1 -44 16 -60 15 -57 0
3 -12 -26 -26 -64 -30 -38 -5 -88 -19 -110 -31 l-41 -21 40 46 40 45 -64 -32
c-75 -39 -166 -43 -166 -9 0 19 -5 19 -24 0 -29 -29 -228 -32 -246 -5 -7 12
-30 13 -61 1 -58 -22 -106 -8 -154 47 -19 21 -35 29 -35 16 0 -13 -10 -23 -21
-23 -12 0 -17 7 -12 16 6 8 -13 15 -42 15 -28 -1 -55 10 -59 23 -11 32 119 67
139 38 8 -13 15 -14 15 -2 0 11 8 8 18 -7 12 -20 20 -14 29 23 12 49 73 92 73
52 0 -11 9 -15 20 -8 11 7 20 1 21 -14 0 -16 8 -12 21 9 11 20 29 31 39 24 11
-6 19 -1 19 12 0 15 22 20 59 15 32 -5 55 -2 50 6 -5 8 29 21 76 28 47 8 101
28 120 45 32 28 35 28 35 -4 0 -26 7 -30 25 -15 17 14 49 12 103 -6 75 -26 80
-25 133 28 35 35 66 50 81 41 14 -9 43 -4 65 12 34 24 43 23 63 -5 13 -18 33
-26 45 -19z"/>
<path d="M3475 3999 c-91 -22 -243 -98 -228 -112 6 -6 54 3 107 20 185 59 296
62 344 11 82 -89 63 -98 -217 -98 -308 0 -328 -15 -131 -97 153 -65 303 -82
344 -41 12 12 52 28 88 36 77 15 100 60 40 76 -27 7 -42 27 -42 57 0 119 -144
188 -305 148z"/>
<path d="M3949 3235 c-42 -109 67 -189 167 -123 29 19 80 40 112 47 87 18 91
61 5 61 -46 0 -91 -18 -131 -51 -64 -54 -102 -51 -102 7 -1 59 -35 99 -51 59z"/>
</g>
</svg>
