<?xml version="1.0" standalone="no"?>
<!DOCTYPE svg PUBLIC "-//W3C//DTD SVG 20010904//EN"
 "http://www.w3.org/TR/2001/REC-SVG-20010904/DTD/svg10.dtd">
<svg version="1.0" xmlns="http://www.w3.org/2000/svg"
 width="900.000000pt" height="900.000000pt" viewBox="0 0 900.000000 900.000000"
 preserveAspectRatio="xMidYMid meet">
<metadata>
Created by potrace 1.10, written by Peter Selinger 2001-2011
</metadata>
<g transform="translate(0.000000,900.000000) scale(0.100000,-0.100000)"
fill="#000000" stroke="none">
<path d="M7569 7848 c-135 -97 -719 -667 -924 -903 -39 -44 -74 -85 -80 -91
-5 -6 -28 -33 -50 -59 -34 -41 -90 -106 -130 -151 -5 -6 -28 -32 -50 -59 -22
-26 -80 -95 -129 -152 -49 -57 -119 -143 -157 -191 -99 -127 -562 -745 -647
-865 -40 -56 -113 -158 -162 -227 -49 -69 -116 -162 -147 -207 -32 -46 -85
-120 -119 -165 -33 -46 -77 -108 -97 -138 -77 -113 -171 -244 -195 -271 -7 -8
-40 -52 -74 -99 -111 -154 -402 -499 -482 -570 -27 -25 -77 -70 -111 -100 -34
-30 -81 -68 -106 -85 -24 -16 -46 -32 -49 -35 -5 -5 -18 -13 -115 -67 -147
-81 -287 -134 -405 -153 -30 -5 -73 -14 -95 -21 -62 -20 -412 -16 -493 5 -80
20 -197 21 -248 1 -22 -9 -109 -50 -194 -91 -85 -42 -171 -83 -190 -91 -19 -8
-48 -21 -63 -29 -16 -8 -33 -14 -38 -14 -5 0 -37 -13 -71 -29 -35 -15 -130
-56 -213 -90 -82 -35 -177 -75 -210 -91 -70 -32 -198 -92 -270 -125 -104 -48
-382 -187 -440 -221 -33 -19 -82 -46 -110 -60 -27 -13 -59 -30 -70 -37 -11 -6
-42 -25 -70 -41 -125 -74 -283 -217 -316 -287 -34 -69 -43 -142 -28 -211 12
-54 21 -70 69 -119 54 -55 151 -111 225 -130 17 -4 44 -12 60 -17 77 -27 207
-58 295 -72 30 -5 71 -13 90 -19 19 -6 51 -11 70 -11 19 0 57 -7 84 -15 27 -8
72 -15 99 -15 28 0 73 -6 101 -14 70 -20 190 -38 441 -66 55 -6 132 -18 170
-26 39 -8 97 -14 130 -14 33 0 89 -5 125 -11 99 -16 213 -27 460 -43 124 -8
286 -19 360 -25 373 -30 1120 -47 1375 -31 329 20 436 34 513 66 18 8 44 14
57 14 13 0 39 6 57 14 18 8 53 22 78 31 269 105 459 273 666 590 60 91 97 157
179 320 26 50 50 97 54 105 5 8 19 35 32 60 13 25 38 72 55 105 18 33 46 87
63 120 35 69 90 169 132 238 16 26 29 49 29 52 0 4 213 360 242 404 10 14 21
33 25 41 4 8 47 69 97 135 76 102 269 307 371 395 43 37 147 115 165 124 8 4
26 13 40 21 14 8 34 15 46 15 54 0 119 -171 129 -345 4 -55 11 -118 17 -140 7
-27 10 -362 10 -1024 -1 -959 -1 -985 18 -1016 30 -49 61 -58 210 -63 105 -3
147 0 191 12 99 29 93 1 101 460 11 601 33 1016 67 1226 14 90 32 221 42 310
4 41 13 91 18 110 6 19 11 48 11 64 0 16 6 52 14 80 8 28 22 87 31 131 9 44
23 102 31 129 8 26 14 57 14 68 0 11 5 29 12 41 6 12 15 40 19 62 4 22 12 54
17 70 6 17 20 62 31 100 19 67 28 97 56 175 7 19 21 62 30 95 10 33 24 72 31
87 8 14 14 33 14 41 0 9 6 28 14 44 27 54 46 104 46 121 0 9 7 26 15 36 8 11
15 28 15 37 0 10 6 30 14 46 21 42 42 100 61 173 9 36 23 83 31 105 8 23 14
54 14 70 0 17 5 46 11 65 21 69 33 219 33 440 1 254 -20 454 -61 590 -6 19
-19 62 -28 95 -9 33 -21 74 -27 90 -5 17 -14 45 -18 64 -5 18 -13 38 -19 44
-6 6 -11 17 -11 24 0 16 -40 103 -126 278 -67 134 -70 141 -116 213 -16 24
-28 45 -28 47 0 7 -94 141 -183 260 -210 282 -345 365 -458 283z m203 -166
c21 -22 42 -42 46 -44 5 -1 36 -39 70 -83 34 -44 74 -93 88 -110 41 -48 84
-107 84 -116 0 -5 9 -16 19 -26 17 -16 53 -79 124 -218 11 -22 34 -57 50 -78
16 -20 30 -47 32 -60 5 -33 72 -193 100 -238 14 -21 25 -47 25 -56 0 -10 12
-49 25 -88 14 -38 25 -83 25 -98 0 -16 5 -37 11 -48 17 -32 43 -184 58 -343
16 -152 -2 -581 -25 -617 -4 -7 -13 -48 -20 -91 -14 -85 -54 -227 -85 -296
-10 -23 -19 -47 -19 -53 0 -5 -9 -29 -21 -52 -27 -55 -69 -175 -69 -199 0 -10
-4 -26 -9 -36 -18 -37 -40 -90 -59 -142 -11 -30 -27 -74 -36 -98 -9 -23 -21
-64 -27 -89 -5 -26 -15 -53 -21 -60 -6 -8 -12 -28 -13 -46 -2 -30 -33 -161
-56 -232 -14 -44 -50 -195 -55 -230 -15 -102 -38 -227 -50 -268 -7 -26 -16
-75 -19 -110 -4 -34 -11 -75 -16 -92 -4 -16 -15 -95 -24 -175 -8 -80 -18 -163
-21 -185 -12 -93 -36 -559 -40 -795 -1 -102 -5 -273 -8 -380 -5 -188 -6 -195
-28 -212 -52 -39 -146 -47 -212 -16 -34 15 -63 107 -47 147 7 15 8 38 3 56 -4
17 -5 50 -2 75 3 25 2 60 -3 79 -5 19 -6 48 -3 65 6 34 7 89 8 466 1 290 1
276 0 430 0 63 0 124 0 135 0 11 -2 74 -6 140 -3 66 -8 185 -11 265 -7 212
-32 406 -60 465 -8 17 -17 42 -20 58 -7 33 -120 145 -155 153 -101 22 -107 30
-57 77 41 39 48 44 118 93 30 20 65 47 79 59 14 12 61 43 105 70 44 27 94 61
112 76 17 15 62 42 100 60 37 19 83 44 102 56 19 13 42 23 51 23 10 0 20 10
24 23 3 12 19 31 36 41 84 49 130 113 73 100 -31 -6 -100 -31 -123 -45 -8 -4
-44 -23 -80 -42 -112 -58 -282 -156 -290 -168 -3 -3 -21 -15 -40 -25 -39 -22
-122 -76 -191 -126 -336 -242 -681 -581 -873 -857 -21 -31 -45 -60 -52 -64
-29 -17 -14 -30 26 -23 34 5 40 4 40 -11 -1 -21 -53 -128 -74 -152 -16 -17
-64 -101 -96 -168 -12 -24 -26 -43 -31 -43 -6 0 -28 -37 -50 -82 -22 -46 -48
-96 -59 -113 -10 -16 -35 -63 -56 -102 -20 -40 -41 -73 -46 -73 -4 0 -8 -8 -8
-18 0 -10 -8 -29 -17 -42 -10 -14 -28 -46 -40 -72 -12 -27 -27 -48 -33 -48 -5
0 -10 -6 -10 -14 0 -8 -41 -95 -92 -193 -51 -98 -104 -203 -119 -233 -15 -30
-43 -71 -63 -89 -20 -19 -36 -39 -36 -45 0 -11 -30 -46 -39 -46 -4 0 -7 18 -8
40 -3 76 -14 76 -68 3 -96 -133 -281 -302 -400 -366 -88 -47 -270 -106 -358
-117 -40 -4 -85 -13 -100 -19 -16 -6 -64 -11 -107 -11 -61 0 -83 -4 -100 -18
-26 -21 -19 -46 10 -37 10 3 27 1 37 -5 10 -5 40 -13 67 -18 45 -7 48 -9 33
-23 -12 -12 -50 -18 -154 -25 -140 -9 -858 -9 -1013 0 -47 2 -139 7 -205 10
-322 14 -530 28 -667 46 -40 5 -105 10 -145 10 -61 0 -76 4 -99 23 -16 14 -24
29 -20 35 11 17 112 15 147 -4 28 -14 33 -14 72 4 23 11 66 22 96 26 29 3 60
11 69 18 13 11 4 14 -54 19 -38 3 -107 11 -154 17 -153 21 -263 33 -365 43
-55 4 -122 13 -149 19 -27 6 -88 15 -135 20 -145 17 -387 51 -521 74 -47 8
-130 22 -185 31 -55 9 -114 20 -131 25 -17 6 -50 10 -75 10 -24 0 -89 12 -144
26 -55 14 -122 30 -149 35 -27 4 -54 13 -60 19 -5 5 -24 10 -41 10 -17 0 -41
7 -53 16 -18 13 -22 13 -22 1 0 -38 99 -113 164 -124 39 -6 89 -44 76 -57 -7
-7 -14 -6 -22 2 -7 7 -31 12 -54 12 -28 0 -44 5 -48 15 -3 9 -18 15 -36 15
-17 0 -45 7 -63 16 -46 23 -127 111 -127 137 1 85 56 176 157 258 72 58 76 61
151 101 28 15 54 32 57 38 4 6 35 25 68 41 34 17 94 48 132 70 39 21 86 46
105 55 54 25 158 77 232 118 37 20 73 36 80 36 7 0 40 14 73 30 33 17 64 30
70 30 6 0 33 14 59 31 50 31 108 56 274 114 52 19 102 41 111 49 10 9 23 16
30 16 6 0 22 6 34 14 12 8 54 25 92 38 39 12 130 53 204 90 73 38 140 68 148
68 9 0 49 16 89 36 68 33 104 38 104 16 0 -5 -11 -14 -24 -20 -25 -11 -66 -81
-66 -112 0 -32 97 -116 198 -173 54 -30 108 -57 122 -62 14 -4 79 -33 146 -66
66 -32 132 -59 146 -59 14 0 45 -9 69 -19 24 -11 62 -23 84 -27 22 -3 53 -13
68 -21 16 -8 52 -19 80 -24 29 -5 63 -12 77 -14 67 -13 198 -25 325 -31 198
-8 518 21 600 56 11 5 31 11 45 15 149 39 223 65 289 105 29 16 56 30 60 30 5
0 14 6 20 14 7 8 25 18 41 21 16 3 34 13 41 21 7 9 31 25 53 36 102 52 361
302 496 478 18 25 40 49 47 53 7 4 13 13 13 19 0 6 22 43 49 82 26 39 58 89
70 111 11 22 44 72 72 110 27 39 57 84 65 100 8 17 23 44 32 60 10 17 35 62
57 100 21 39 56 96 77 127 21 31 38 64 38 74 0 9 13 32 30 50 16 19 33 47 37
62 8 32 56 116 89 155 13 16 24 33 24 38 0 5 11 27 25 49 14 22 25 46 25 53 0
8 17 36 38 63 21 27 53 78 70 114 55 112 102 194 133 232 16 20 29 46 29 56 0
11 7 25 15 32 8 7 15 18 15 24 0 6 12 29 27 51 14 21 43 71 63 110 21 38 47
86 58 105 12 19 35 62 52 95 17 33 38 67 46 76 8 8 14 23 14 32 0 9 15 38 33
64 28 42 58 97 129 236 10 21 25 40 33 43 8 3 17 16 21 27 12 44 62 143 78
156 9 7 16 19 16 26 0 15 39 90 81 155 16 25 44 76 63 114 19 37 42 76 50 85
8 9 22 36 32 61 10 25 32 66 50 91 18 26 36 63 39 83 4 20 11 39 16 42 5 3 30
45 55 92 25 48 51 98 59 112 26 47 125 281 125 297 0 6 11 33 24 60 12 26 28
64 35 84 15 47 29 165 23 195 -5 26 -111 139 -121 128 -3 -4 0 -9 7 -11 7 -3
-4 -14 -25 -25 -21 -11 -50 -27 -65 -35 -31 -16 -108 -128 -108 -156 0 -23
-19 -60 -35 -69 -7 -5 -34 -52 -60 -105 -82 -172 -101 -207 -130 -253 -16 -25
-46 -79 -67 -120 -21 -41 -46 -88 -56 -105 -9 -16 -30 -54 -47 -84 -16 -29
-37 -65 -46 -80 -9 -14 -47 -84 -84 -156 -37 -71 -73 -137 -80 -145 -12 -15
-110 -193 -188 -340 -21 -41 -44 -80 -49 -87 -21 -26 -78 -126 -78 -137 0 -6
-8 -22 -17 -35 -26 -35 -115 -200 -174 -321 -28 -58 -59 -113 -68 -123 -9 -11
-23 -35 -31 -55 -17 -40 -41 -84 -79 -140 -13 -20 -30 -54 -38 -76 -7 -22 -20
-47 -27 -56 -15 -17 -66 -111 -66 -122 0 -3 -16 -30 -35 -60 -20 -29 -56 -95
-82 -146 -25 -52 -52 -96 -59 -99 -8 -3 -14 -11 -14 -19 0 -16 -70 -149 -112
-213 -28 -42 -49 -80 -113 -201 -16 -31 -41 -72 -55 -91 -13 -18 -42 -67 -64
-109 -45 -87 -60 -114 -86 -155 -11 -16 -28 -46 -39 -65 -10 -19 -30 -46 -43
-60 -13 -14 -30 -38 -37 -55 -34 -78 -272 -328 -406 -427 -98 -72 -214 -138
-242 -138 -10 0 -43 -13 -74 -29 -93 -47 -366 -99 -534 -102 -171 -3 -458 21
-513 42 -13 5 -27 7 -32 4 -10 -6 -88 11 -145 33 -22 8 -51 16 -65 18 -40 5
-103 20 -130 31 -14 6 -52 18 -85 27 -53 15 -92 30 -147 57 -10 5 -28 9 -41 9
-31 0 -65 24 -48 34 7 5 20 1 30 -8 10 -10 21 -12 27 -7 5 5 47 12 94 15 207
12 278 19 327 33 29 8 58 13 65 12 7 -1 20 0 28 3 8 4 42 13 75 21 68 16 200
64 230 82 11 7 31 16 45 20 14 4 43 20 65 35 22 15 54 36 72 46 71 42 175 119
223 165 28 27 55 49 60 49 12 0 154 148 209 217 23 28 55 66 73 85 17 18 49
58 72 88 22 30 58 73 79 95 21 22 46 54 54 70 9 17 24 35 33 42 9 6 39 44 66
83 27 39 72 103 101 143 29 39 71 100 93 135 23 34 45 62 50 62 4 0 30 35 59
78 28 42 71 104 95 137 25 33 58 83 74 110 16 28 55 81 86 118 31 38 56 73 56
78 0 6 21 36 48 68 26 33 67 89 92 125 25 36 68 97 95 136 28 38 58 82 67 97
10 15 37 51 60 80 24 28 63 80 87 115 25 34 58 79 73 98 29 35 78 99 173 226
28 37 76 95 108 130 31 35 57 68 57 73 0 6 26 39 58 73 32 35 69 79 84 98 14
20 38 47 52 60 15 14 57 63 94 110 36 47 88 108 114 135 27 28 48 54 48 60 0
5 25 34 55 65 120 120 204 212 209 228 3 9 28 32 56 51 27 19 50 38 50 42 0
10 367 379 377 379 5 0 31 23 58 50 127 128 230 152 307 72z m-102 -122 c8
-15 7 -28 -4 -53 -8 -17 -19 -48 -25 -67 -21 -78 -60 -182 -105 -282 -9 -21
-23 -52 -31 -70 -28 -67 -117 -246 -172 -348 -91 -168 -130 -242 -158 -295
-14 -27 -39 -72 -56 -100 -16 -27 -37 -63 -45 -80 -8 -16 -23 -43 -33 -60 -22
-37 -95 -171 -134 -245 -16 -30 -37 -68 -47 -85 -10 -16 -31 -52 -46 -80 -15
-27 -42 -77 -61 -110 -18 -33 -37 -69 -43 -80 -5 -11 -25 -47 -44 -80 -19 -33
-52 -94 -74 -135 -22 -41 -49 -91 -61 -110 -11 -19 -24 -42 -28 -50 -3 -8 -16
-31 -28 -50 -21 -34 -49 -85 -121 -217 -19 -34 -47 -83 -62 -110 -16 -26 -31
-55 -35 -63 -4 -8 -11 -22 -17 -30 -14 -22 -127 -216 -162 -280 -57 -102 -92
-165 -115 -205 -12 -22 -27 -49 -33 -60 -6 -11 -19 -33 -30 -50 -11 -16 -24
-39 -30 -50 -6 -11 -24 -42 -41 -70 -16 -27 -37 -63 -45 -80 -8 -16 -24 -46
-35 -65 -37 -63 -164 -271 -181 -298 -10 -15 -22 -36 -28 -47 -5 -11 -26 -42
-46 -70 -19 -27 -42 -59 -50 -70 -169 -238 -438 -494 -621 -591 -142 -76 -186
-95 -293 -129 -172 -55 -205 -63 -320 -77 -210 -26 -668 -8 -737 30 -12 7 -37
12 -57 12 -19 0 -47 5 -63 11 -15 6 -44 15 -63 20 -29 6 -113 35 -245 84 -11
4 -49 21 -85 37 -36 17 -78 36 -95 44 -97 43 -154 68 -185 81 -87 37 -140 64
-140 72 0 5 6 14 14 20 14 12 99 1 133 -18 10 -5 38 -16 63 -24 121 -39 188
-61 217 -73 17 -8 39 -14 50 -14 10 -1 29 -7 43 -15 14 -8 37 -14 52 -15 15 0
29 -4 32 -9 3 -5 23 -12 43 -16 21 -3 58 -13 83 -20 104 -31 168 -44 335 -65
140 -17 392 -33 419 -26 15 4 83 11 153 16 69 5 140 14 157 19 31 9 91 25 156
41 256 61 554 270 779 545 40 49 171 237 184 266 4 8 16 28 27 44 11 17 24 39
30 50 6 11 19 34 30 50 11 17 24 39 30 50 5 11 26 47 45 80 19 33 38 67 42 75
4 8 24 44 46 79 21 35 43 74 48 85 5 12 23 44 39 71 17 28 37 64 45 80 9 17
24 44 35 60 11 17 31 53 45 80 14 28 34 64 44 80 10 17 35 62 56 100 21 39 49
88 61 110 13 22 34 63 48 90 14 28 41 77 60 110 19 33 46 83 61 110 14 28 42
77 61 110 19 33 46 83 60 110 14 28 40 77 59 110 18 33 45 83 60 110 55 106
166 307 175 320 4 6 27 46 50 90 24 44 52 96 63 115 11 19 35 63 53 97 19 34
47 83 62 110 16 26 31 55 36 63 4 8 22 42 41 75 18 33 51 94 73 135 49 93 104
192 162 290 5 8 21 38 35 65 14 28 48 91 75 140 27 50 106 205 176 345 71 140
133 258 139 262 18 13 34 9 45 -12z m-6795 -5926 c-22 -17 -46 -15 -53 4 -2 8
8 12 35 12 36 -1 37 -1 18 -16z m148 -10 c12 -12 -6 -34 -27 -34 -22 0 -46 17
-46 32 0 9 64 11 73 2z m250 -41 c62 -5 79 -27 30 -37 -37 -8 -141 8 -156 23
-17 17 11 33 43 25 14 -3 51 -8 83 -11z m245 -45 c2 -11 -3 -18 -12 -18 -9 0
-16 4 -16 9 0 17 -33 21 -50 6 -20 -18 -36 -19 -46 -4 -11 18 18 29 71 27 38
-2 51 -7 53 -20z m92 -28 c-9 -16 -15 -18 -30 -10 -29 16 -24 30 10 30 28 0
30 -2 20 -20z m135 -10 c8 -7 12 -16 9 -21 -7 -12 -51 -11 -59 1 -3 6 -15 10
-26 10 -10 0 -19 6 -19 14 0 17 73 14 95 -4z m209 -16 c9 -3 16 -11 16 -17 0
-13 -139 -2 -154 13 -11 11 110 15 138 4z m211 -28 c19 -14 19 -15 -6 -26 -21
-10 -32 -9 -55 1 -15 8 -29 20 -32 27 -5 17 69 16 93 -2z m75 -16 c0 -5 -7
-10 -15 -10 -8 0 -15 5 -15 10 0 6 7 10 15 10 8 0 15 -4 15 -10z"/>
<path d="M7875 4906 c-5 -2 -37 -12 -70 -21 -33 -10 -96 -37 -140 -60 -44 -24
-91 -46 -105 -50 -14 -5 -39 -18 -56 -31 -17 -13 -38 -24 -46 -24 -8 0 -23 -9
-32 -19 -10 -11 -24 -17 -31 -15 -7 3 -18 -3 -24 -14 -6 -11 -39 -34 -73 -52
-35 -18 -83 -47 -107 -64 -24 -17 -54 -38 -66 -46 -107 -72 -447 -397 -533
-510 -31 -41 -63 -79 -69 -83 -7 -4 -13 -13 -13 -19 0 -14 -64 -110 -84 -127
-9 -8 -16 -20 -16 -28 0 -8 -11 -29 -23 -46 -27 -37 -57 -113 -57 -145 0 -15
6 -22 20 -22 11 0 20 5 20 10 0 11 209 291 271 365 135 158 268 291 410 410
70 59 267 202 331 240 9 5 48 29 85 51 123 75 351 194 372 194 5 0 24 8 43 17
65 33 83 40 111 47 39 9 35 36 -5 36 -18 0 -49 2 -68 5 -19 2 -39 3 -45 1z"/>
<path d="M5406 2025 c-39 -25 -96 -68 -127 -95 -32 -28 -62 -50 -67 -50 -5 0
-17 -9 -27 -20 -10 -11 -25 -20 -33 -20 -8 0 -29 -11 -46 -23 -17 -13 -53 -35
-81 -49 -27 -13 -63 -32 -80 -41 -95 -53 -292 -127 -338 -127 -15 0 -41 -10
-57 -21 -18 -14 -37 -20 -50 -16 -24 6 -89 -31 -90 -52 0 -10 15 -12 73 -8
118 9 315 47 377 73 19 9 44 19 55 23 31 13 168 80 190 93 62 37 130 84 133
91 2 4 8 7 14 7 20 0 121 94 182 168 33 41 72 79 86 84 20 7 22 11 10 18 -28
18 -55 10 -124 -35z"/>
<path d="M565 1953 c-57 -7 -75 -13 -75 -28 0 -20 12 -25 82 -36 35 -5 77 -14
93 -19 72 -22 172 -41 238 -46 40 -2 88 -9 107 -14 19 -6 69 -15 110 -20 41
-6 111 -17 155 -25 44 -7 114 -19 155 -25 41 -6 89 -15 105 -20 17 -5 71 -12
120 -15 50 -3 113 -10 140 -15 28 -5 115 -18 195 -29 80 -11 161 -23 180 -25
19 -3 82 -12 140 -22 58 -9 148 -19 200 -23 54 -4 105 -13 117 -21 31 -20 48
-2 27 28 -8 12 -22 22 -30 22 -8 0 -32 9 -54 20 -22 11 -78 24 -132 30 -55 6
-105 18 -124 29 -35 21 -121 37 -172 32 -18 -1 -38 2 -45 7 -12 10 -31 13
-192 32 -44 5 -123 14 -175 21 -52 6 -113 12 -135 14 -42 3 -149 23 -275 50
-41 9 -93 18 -115 20 -22 2 -62 9 -90 14 -27 6 -115 17 -195 26 -80 9 -180 23
-224 31 -43 8 -83 13 -90 13 -6 -1 -24 -4 -41 -6z"/>
</g>
</svg>
