<?xml version="1.0" standalone="no"?>
<!DOCTYPE svg PUBLIC "-//W3C//DTD SVG 20010904//EN"
 "http://www.w3.org/TR/2001/REC-SVG-20010904/DTD/svg10.dtd">
<svg version="1.0" xmlns="http://www.w3.org/2000/svg"
 width="300.000000pt" height="300.000000pt" viewBox="0 0 300.000000 300.000000"
 preserveAspectRatio="xMidYMid meet">
<metadata>
Created by potrace 1.10, written by Peter Selinger 2001-2011
</metadata>
<g transform="translate(0.000000,300.000000) scale(0.100000,-0.100000)"
fill="#000000" stroke="none">
<path d="M2404 2508 c-223 -215 -387 -416 -700 -853 -264 -368 -346 -460 -467
-521 -86 -44 -160 -57 -281 -50 -107 6 -112 5 -170 -23 -34 -17 -135 -62 -226
-101 -192 -82 -372 -178 -429 -226 -86 -74 -73 -155 32 -199 117 -49 545 -106
932 -126 451 -22 609 3 731 118 56 53 97 116 179 274 152 291 258 440 369 521
51 37 64 35 84 -9 14 -33 17 -90 20 -418 4 -429 -1 -405 85 -405 86 0 83 -7
91 217 13 378 47 580 147 868 96 276 108 398 59 590 -37 146 -170 376 -255
443 -49 39 -65 31 -201 -100z m212 30 c64 -70 90 -108 140 -208 55 -111 82
-204 91 -316 10 -136 -14 -251 -102 -479 -25 -65 -65 -223 -89 -351 -19 -103
-35 -298 -39 -487 -4 -157 -7 -167 -53 -167 -12 0 -26 6 -32 13 -6 7 -12 147
-15 362 -5 356 -10 409 -45 449 -10 10 -27 22 -39 27 -13 5 -23 13 -23 18 0
10 207 151 221 151 13 0 63 50 56 56 -14 14 -174 -80 -292 -172 -124 -96 -287
-274 -251 -274 14 0 12 -8 -12 -52 -110 -195 -152 -272 -186 -339 -22 -42 -51
-89 -64 -105 -13 -16 -22 -24 -18 -18 3 6 0 19 -8 29 -15 21 -43 15 -84 -19
-66 -54 -201 -119 -270 -130 -7 -1 -18 -8 -24 -14 -15 -15 -1 -16 78 -1 77 14
188 73 242 128 52 53 67 48 22 -7 -64 -80 -154 -127 -265 -138 -74 -8 -92 -21
-43 -31 l33 -7 -40 -8 c-107 -20 -735 8 -735 32 0 5 22 8 48 8 26 -1 56 3 65
8 13 8 -23 15 -135 28 -179 20 -506 72 -543 86 -15 6 -34 10 -43 10 -14 -1
-12 -4 7 -20 13 -11 29 -20 37 -20 7 0 15 -4 18 -9 11 -17 -74 15 -95 36 -20
20 -20 22 -5 54 19 40 100 97 231 163 102 51 222 106 232 106 3 0 24 9 47 19
100 48 229 102 232 98 3 -2 -2 -10 -11 -17 -8 -7 -15 -18 -15 -24 0 -31 94
-87 224 -132 90 -31 139 -38 261 -37 180 2 314 59 440 188 39 40 87 99 107
131 47 78 139 232 160 270 9 16 41 71 70 123 29 51 70 123 91 160 20 36 46 84
57 106 12 22 31 58 44 80 13 22 40 72 61 110 21 39 41 75 45 80 17 21 129 242
149 293 37 94 42 129 20 157 l-20 24 -25 -22 c-14 -12 -34 -38 -43 -57 -18
-37 -90 -171 -124 -230 -11 -19 -34 -60 -50 -90 -17 -30 -50 -91 -75 -135 -24
-44 -60 -109 -80 -145 -19 -36 -45 -83 -57 -105 -13 -22 -41 -74 -63 -115 -72
-136 -77 -145 -84 -148 -5 -2 -8 -9 -8 -15 0 -12 -106 -197 -151 -265 -16 -23
-29 -46 -29 -51 0 -4 -29 -37 -64 -73 -76 -78 -177 -132 -276 -147 -69 -11
-207 -6 -275 10 -22 5 -49 12 -59 14 -45 11 -116 37 -121 46 -4 5 19 9 51 9
125 0 263 57 373 155 47 42 183 209 279 345 45 63 106 148 135 189 110 155
258 350 304 402 27 30 65 75 85 100 109 136 333 349 367 349 10 0 36 -19 57
-42z m-61 -35 c-25 -104 -149 -340 -513 -983 -184 -326 -237 -405 -318 -485
-130 -128 -304 -183 -501 -158 -49 6 -110 19 -138 28 -87 29 -235 97 -230 106
3 4 45 -6 93 -22 151 -52 246 -70 361 -71 182 -1 286 39 401 152 74 73 124
152 315 500 65 118 189 343 276 500 86 157 176 324 200 373 43 86 68 113 54
60z"/>
<path d="M2540 1603 c-41 -20 -77 -39 -80 -43 -3 -3 -27 -18 -53 -34 -95 -55
-266 -245 -291 -324 -12 -38 8 -23 53 39 109 150 237 257 407 340 57 28 104
53 104 55 0 16 -78 -2 -140 -33z"/>
<path d="M185 650 c-16 -6 -17 -9 -5 -13 61 -22 710 -119 710 -107 0 11 -49
30 -78 30 -16 0 -32 4 -38 9 -8 7 -54 14 -244 37 -19 2 -69 11 -110 18 -41 8
-102 18 -134 21 -33 4 -64 8 -70 10 -6 2 -20 0 -31 -5z"/>
</g>
</svg>
