<?xml version="1.0" standalone="no"?>
<!DOCTYPE svg PUBLIC "-//W3C//DTD SVG 20010904//EN"
 "http://www.w3.org/TR/2001/REC-SVG-20010904/DTD/svg10.dtd">
<svg version="1.0" xmlns="http://www.w3.org/2000/svg"
 width="300.000000pt" height="300.000000pt" viewBox="0 0 300.000000 300.000000"
 preserveAspectRatio="xMidYMid meet">
<metadata>
Created by potrace 1.10, written by Peter Selinger 2001-2011
</metadata>
<g transform="translate(0.000000,300.000000) scale(0.100000,-0.100000)"
fill="#000000" stroke="none">
<path d="M1052 2525 c-18 -8 -75 -56 -127 -107 l-95 -93 -45 -159 c-25 -88
-42 -163 -38 -167 5 -4 61 -31 126 -58 66 -28 126 -55 134 -60 13 -7 -4 -30
-86 -119 -55 -60 -101 -115 -101 -122 0 -19 274 -315 493 -533 110 -109 201
-197 203 -195 1 2 -42 116 -98 253 -119 298 -228 620 -297 879 -28 105 -51
192 -51 195 0 3 90 6 200 6 l199 0 3 -557 c2 -411 6 -560 15 -569 27 -27 33
70 36 595 l2 527 188 2 c103 1 187 -2 187 -6 0 -14 -60 -247 -92 -357 -43
-151 -151 -479 -220 -670 -48 -134 -58 -171 -53 -202 4 -21 10 -40 15 -43 11
-7 610 655 610 674 0 4 -45 56 -100 116 -55 61 -98 115 -96 120 1 6 61 35 132
66 75 33 129 62 129 70 0 8 -18 79 -40 159 l-40 145 -90 94 c-136 141 -93 131
-567 131 -326 -1 -409 -4 -436 -15z m867 -65 l28 -19 -15 -71 -15 -70 -433 0
-432 0 -12 72 c-20 114 -46 108 443 108 390 0 410 -1 436 -20z m-923 -77 c12
-57 25 -92 39 -103 9 -7 12 -23 8 -44 -13 -79 159 -640 319 -1040 21 -54 36
-101 33 -105 -11 -11 -525 526 -525 548 0 4 34 45 76 91 41 47 82 98 91 114
14 26 13 31 -4 55 -12 15 -58 42 -119 69 -54 23 -104 48 -111 55 -10 10 -7 31
12 102 14 50 30 108 36 129 10 37 110 156 130 156 5 0 11 -12 15 -27z m1057
-31 c39 -41 59 -72 67 -103 6 -24 22 -82 36 -128 16 -56 20 -88 14 -96 -5 -6
-55 -31 -110 -55 -171 -72 -171 -88 -2 -271 23 -25 42 -53 42 -61 0 -12 -166
-203 -466 -537 -23 -25 -45 -43 -48 -40 -4 3 27 101 68 216 143 403 279 868
279 953 0 25 5 52 12 60 7 8 16 31 20 50 10 55 16 70 24 70 4 0 33 -26 64 -58z"/>
<path d="M685 2239 c-38 -17 -137 -58 -220 -91 -82 -33 -156 -66 -164 -73 -12
-12 -8 -57 28 -317 48 -341 107 -772 151 -1112 17 -126 33 -233 36 -237 3 -5
231 -9 507 -9 l502 0 -4 221 -3 222 -102 95 c-132 125 -270 266 -477 490 -138
150 -169 188 -169 212 0 23 18 48 77 112 43 46 81 85 85 86 22 10 2 29 -51 49
-130 50 -191 83 -191 102 0 10 17 77 38 149 22 73 36 132 33 131 -3 0 -37 -14
-76 -30z m11 -66 c-62 -209 -55 -232 88 -289 37 -16 70 -34 73 -41 3 -6 -23
-44 -56 -83 -68 -78 -78 -104 -62 -152 14 -43 316 -372 557 -608 l179 -175 4
-82 3 -83 -31 0 c-43 0 -75 -17 -94 -50 -23 -39 -21 -63 8 -98 29 -34 67 -47
95 -32 17 9 20 8 20 -8 0 -17 -11 -20 -97 -25 -54 -4 -259 -7 -455 -7 -311 0
-359 2 -372 16 -9 8 -16 21 -16 27 0 25 -103 795 -170 1267 -27 194 -37 287
-30 295 14 14 320 143 343 144 13 1 17 -4 13 -16z m780 -1578 c34 -52 -31
-111 -76 -70 -22 20 -26 65 -8 83 21 21 66 14 84 -13z"/>
<path d="M2205 2253 c16 -40 75 -247 75 -264 0 -22 -7 -26 -140 -79 -58 -24
-107 -44 -109 -46 -2 -2 38 -48 88 -102 54 -59 91 -107 91 -120 0 -12 -24 -49
-52 -84 -74 -89 -361 -411 -489 -549 l-108 -116 5 -119 c2 -65 6 -175 7 -244
l4 -125 226 -3 227 -2 4 22 c3 13 19 151 36 308 17 157 33 300 36 318 5 34 28
52 45 35 8 -8 -44 -524 -66 -651 l-6 -32 183 0 c101 0 188 4 194 8 6 4 38 224
73 503 35 272 84 643 110 823 25 180 44 331 41 336 -3 4 -96 44 -207 88 -110
44 -215 88 -232 96 -38 20 -45 20 -36 -1z m265 -138 c80 -31 151 -62 158 -69
10 -10 6 -64 -27 -292 -44 -309 -73 -530 -130 -983 -32 -256 -41 -306 -56
-318 -22 -15 -251 -19 -274 -4 -11 7 -9 45 13 232 14 123 30 258 35 299 7 63
6 80 -8 105 -22 39 -59 44 -89 12 -21 -22 -26 -52 -58 -328 -28 -245 -38 -306
-51 -317 -20 -15 -330 -17 -353 -2 -12 7 -16 47 -21 212 -4 129 -2 210 4 223
6 11 42 53 81 95 251 265 531 591 545 633 16 48 3 76 -70 153 -36 37 -59 69
-56 77 3 8 31 24 64 37 140 55 154 79 119 207 -13 50 -22 94 -19 97 3 2 15 1
27 -4 11 -4 86 -33 166 -65z"/>
<path d="M2091 1314 c-37 -30 -38 -42 -10 -78 l20 -26 173 0 c167 0 173 1 194
23 29 31 28 61 -4 86 -24 19 -40 21 -185 21 -155 0 -158 0 -188 -26z m364 -39
c0 -19 -8 -20 -177 -23 -168 -2 -178 -1 -178 16 0 10 3 22 7 26 4 3 84 5 177
4 163 -3 171 -4 171 -23z"/>
</g>
</svg>
