<?xml version="1.0" standalone="no"?>
<!DOCTYPE svg PUBLIC "-//W3C//DTD SVG 20010904//EN"
 "http://www.w3.org/TR/2001/REC-SVG-20010904/DTD/svg10.dtd">
<svg version="1.0" xmlns="http://www.w3.org/2000/svg"
 width="900.000000pt" height="900.000000pt" viewBox="0 0 900.000000 900.000000"
 preserveAspectRatio="xMidYMid meet">
<metadata>
Created by potrace 1.10, written by Peter Selinger 2001-2011
</metadata>
<g transform="translate(0.000000,900.000000) scale(0.100000,-0.100000)"
fill="#000000" stroke="none">
<path d="M3200 7586 c-114 -32 -145 -56 -460 -370 -272 -271 -267 -265 -305
-406 -10 -36 -23 -85 -30 -110 -7 -25 -20 -74 -30 -110 -17 -62 -28 -104 -60
-215 -8 -27 -22 -75 -30 -105 -34 -118 -48 -166 -61 -203 -19 -53 -17 -73 9
-89 12 -8 173 -79 357 -157 405 -173 430 -186 430 -219 0 -29 -38 -73 -394
-462 -199 -217 -206 -232 -149 -293 16 -18 112 -124 213 -237 101 -113 213
-237 249 -275 36 -39 118 -127 181 -195 273 -295 712 -746 960 -986 388 -374
463 -437 445 -372 -10 35 -47 131 -139 356 -117 286 -139 339 -151 372 -7 19
-30 76 -51 125 -38 93 -69 171 -84 215 -5 14 -18 50 -30 80 -12 30 -34 89 -49
130 -16 41 -56 149 -91 240 -68 182 -106 290 -244 705 -84 253 -117 356 -162
510 -8 28 -21 73 -30 100 -16 54 -20 68 -54 190 -12 44 -28 103 -36 130 -8 28
-19 66 -23 85 -5 19 -18 71 -31 115 -47 169 -53 191 -61 230 -5 22 -18 72 -29
110 -11 39 -27 105 -36 149 -14 66 -15 79 -3 87 21 13 1136 11 1161 -2 l20
-11 -3 -1587 -3 -1586 28 -82 c15 -44 33 -89 41 -100 13 -17 14 -16 25 12 6
17 18 55 27 85 8 30 22 78 30 105 12 43 15 275 17 1604 3 1314 5 1554 17 1562
8 5 258 9 557 9 488 0 543 -2 549 -16 5 -15 -13 -108 -42 -214 -12 -43 -27
-99 -62 -235 -9 -33 -21 -82 -29 -110 -7 -27 -20 -79 -29 -115 -16 -63 -28
-108 -58 -215 -8 -27 -23 -79 -32 -115 -25 -93 -74 -258 -89 -305 -8 -22 -28
-87 -45 -145 -18 -58 -38 -123 -45 -145 -8 -22 -28 -87 -46 -145 -52 -165
-212 -646 -285 -855 -37 -104 -72 -208 -80 -230 -7 -22 -27 -78 -44 -125 -38
-102 -72 -196 -113 -310 -17 -47 -46 -128 -65 -180 -57 -158 -57 -157 -23
-263 17 -52 37 -102 44 -112 13 -18 15 -17 41 11 14 16 48 52 74 79 26 28 100
109 166 180 65 72 128 139 139 150 12 11 54 58 95 105 41 47 104 117 140 156
36 39 118 128 181 199 128 143 142 158 208 230 26 28 72 79 102 115 30 36 91
106 135 155 45 50 128 144 185 210 57 66 138 158 181 205 138 152 179 204 179
229 0 27 -15 46 -169 211 -123 131 -289 313 -378 412 -29 32 -53 64 -53 71 0
18 43 48 115 81 33 16 78 36 100 47 22 10 96 41 165 69 69 29 130 55 135 59 9
7 90 41 210 89 89 36 97 49 71 119 -7 21 -28 90 -46 153 -18 63 -45 158 -60
210 -15 52 -34 122 -43 155 -71 275 -86 320 -118 367 -15 24 -144 161 -286
305 -243 247 -262 263 -337 300 l-80 38 -1225 2 c-959 1 -1236 -1 -1271 -11z
m2501 -185 c24 -17 61 -45 81 -64 34 -31 37 -38 32 -73 -3 -21 -10 -52 -15
-69 -5 -16 -13 -59 -19 -95 -18 -117 -35 -189 -46 -200 -7 -7 -405 -9 -1294
-8 l-1284 3 -7 30 c-40 168 -72 352 -66 377 6 21 109 107 147 121 8 3 558 6
1221 6 l1206 1 44 -29z"/>
<path d="M2125 6736 c-60 -23 -150 -59 -200 -80 -104 -44 -278 -115 -380 -156
-38 -15 -135 -55 -215 -89 -134 -56 -258 -105 -304 -118 -10 -4 -46 -21 -80
-38 -100 -53 -107 -79 -71 -290 13 -74 22 -139 60 -410 8 -55 21 -149 29 -210
33 -229 46 -323 60 -430 40 -290 48 -347 61 -435 26 -171 53 -363 90 -642 32
-235 47 -346 60 -448 8 -58 21 -157 29 -220 32 -246 48 -369 61 -460 32 -218
77 -555 120 -900 46 -372 77 -560 98 -586 l18 -24 1494 0 c1340 0 1494 2 1506
16 10 12 10 83 1 382 -7 202 -15 489 -18 637 -4 167 -11 281 -18 296 -6 15
-42 52 -81 85 -205 171 -1058 1021 -1366 1360 -121 134 -349 384 -419 459
-363 392 -362 391 -363 475 0 79 12 96 241 342 272 291 277 297 265 316 -5 9
-77 44 -159 77 -82 34 -184 78 -227 98 -43 20 -83 37 -90 37 -7 0 -17 4 -23 9
-5 5 -49 26 -99 46 -98 41 -145 80 -145 122 0 14 6 49 14 77 8 28 22 80 32
116 9 36 22 83 29 105 7 22 21 69 30 105 18 67 63 226 90 315 24 80 23 105 -2
104 -10 0 -67 -19 -128 -43z m2258 -4919 c44 -33 72 -102 63 -152 -9 -48 -68
-112 -116 -126 -61 -18 -109 -4 -157 47 -40 41 -43 48 -43 100 0 66 23 111 73
144 46 30 132 24 180 -13z"/>
<path d="M6618 6764 c-8 -7 2 -44 62 -249 11 -38 28 -95 36 -125 9 -30 22 -75
29 -100 7 -25 20 -72 30 -105 9 -33 23 -82 31 -110 9 -27 18 -72 20 -100 5
-46 3 -52 -23 -76 -15 -14 -111 -61 -213 -103 -102 -43 -194 -82 -205 -86 -25
-11 -186 -76 -240 -98 -75 -30 -80 -41 -38 -87 30 -32 385 -407 442 -465 66
-68 87 -150 55 -213 -23 -44 -169 -226 -214 -267 -3 -3 -63 -71 -132 -152
-137 -159 -469 -536 -558 -633 -31 -33 -89 -98 -130 -145 -41 -47 -84 -94 -95
-105 -11 -12 -51 -57 -90 -100 -69 -79 -92 -104 -326 -355 -64 -69 -178 -192
-254 -275 l-137 -150 6 -70 c7 -87 23 -560 35 -1015 5 -190 12 -353 16 -362 7
-17 48 -18 670 -18 572 0 666 2 678 15 16 16 26 73 51 290 59 507 72 624 91
795 22 200 43 382 60 530 8 69 19 172 25 230 17 154 18 160 55 177 29 14 35
14 63 -1 51 -27 52 -36 7 -411 -8 -66 -22 -181 -30 -255 -9 -74 -22 -190 -30
-257 -28 -228 -44 -367 -60 -513 -9 -80 -23 -194 -30 -255 -29 -228 -37 -315
-31 -330 5 -13 73 -15 551 -15 l547 0 29 29 c23 23 29 39 29 73 1 24 7 72 15
108 8 36 14 84 15 108 0 24 6 87 14 140 8 53 22 158 31 232 9 74 22 182 30
240 8 58 21 164 30 235 9 72 22 180 30 240 8 61 21 169 30 240 9 72 23 180 30
240 8 61 21 169 30 240 9 72 22 177 30 235 8 58 21 164 30 235 9 72 22 175 30
230 8 55 22 154 30 220 9 66 23 167 30 225 8 58 21 159 30 225 9 66 22 163 30
215 7 52 21 147 30 210 15 114 32 224 60 410 7 52 21 149 30 215 10 66 23 156
30 200 23 137 28 213 16 243 -13 31 -50 54 -141 88 -36 13 -74 28 -85 33 -11
6 -74 30 -140 56 -66 25 -153 59 -192 75 -83 34 -192 78 -273 110 -30 11 -64
25 -75 29 -11 5 -38 15 -60 24 -48 18 -243 98 -339 138 -67 28 -97 35 -108 23z
m688 -2883 c21 -2 64 -50 64 -71 0 -11 -11 -32 -25 -45 l-24 -25 -497 0 c-554
0 -534 -2 -534 67 0 67 3 67 363 73 275 4 616 5 653 1z"/>
</g>
</svg>
