<?xml version="1.0" standalone="no"?>
<!DOCTYPE svg PUBLIC "-//W3C//DTD SVG 20010904//EN"
 "http://www.w3.org/TR/2001/REC-SVG-20010904/DTD/svg10.dtd">
<svg version="1.0" xmlns="http://www.w3.org/2000/svg"
 width="900.000000pt" height="900.000000pt" viewBox="0 0 900.000000 900.000000"
 preserveAspectRatio="xMidYMid meet">
<metadata>
Created by potrace 1.10, written by Peter Selinger 2001-2011
</metadata>
<g transform="translate(0.000000,900.000000) scale(0.100000,-0.100000)"
fill="#000000" stroke="none">
<path d="M4260 7690 c-30 -5 -86 -12 -125 -15 -38 -4 -87 -13 -108 -21 -20 -8
-48 -14 -62 -14 -13 0 -39 -6 -57 -14 -18 -8 -53 -22 -78 -31 -25 -9 -52 -21
-60 -26 -8 -4 -35 -19 -60 -31 -168 -85 -378 -290 -487 -473 -31 -54 -83 -163
-83 -176 0 -8 -7 -24 -15 -35 -8 -10 -15 -27 -15 -38 0 -10 -7 -39 -15 -65
-34 -109 -45 -191 -45 -338 0 -104 5 -165 15 -199 8 -27 15 -62 15 -79 1 -16
7 -41 15 -55 8 -14 14 -35 15 -47 0 -12 7 -39 16 -60 40 -94 47 -109 55 -123
5 -8 12 -22 15 -30 12 -31 15 -36 32 -62 114 -175 212 -281 350 -382 74 -54
173 -116 212 -132 8 -3 29 -12 45 -19 80 -35 206 -75 236 -75 13 0 56 -7 94
-15 121 -25 296 -15 460 26 22 6 56 14 75 19 37 9 109 34 138 49 9 4 35 16 57
27 22 10 59 31 83 46 24 15 45 28 48 28 13 0 165 125 215 177 49 51 152 183
186 238 61 100 129 266 144 352 5 29 14 64 19 78 13 34 13 416 0 450 -5 14
-14 49 -19 78 -8 49 -13 65 -48 162 -18 49 -42 105 -54 125 -5 8 -13 25 -19
37 -33 76 -164 247 -252 327 -76 70 -218 171 -268 191 -8 4 -22 11 -30 16 -8
5 -22 12 -30 15 -8 3 -27 12 -42 20 -14 8 -34 14 -45 14 -10 0 -27 7 -37 15
-11 8 -28 15 -39 15 -11 0 -40 7 -66 14 -99 31 -294 49 -381 36z m256 -125
c27 -8 60 -15 73 -15 33 0 114 -27 224 -74 17 -8 39 -17 47 -20 8 -3 29 -15
45 -26 17 -11 37 -23 45 -27 81 -36 317 -272 353 -353 4 -8 16 -28 26 -45 49
-76 102 -204 127 -310 34 -141 41 -458 12 -534 -5 -14 -13 -44 -18 -66 -18
-86 -104 -270 -173 -370 -83 -120 -290 -306 -377 -339 -8 -3 -22 -10 -30 -15
-60 -36 -186 -78 -342 -115 -77 -19 -333 -22 -388 -5 -19 5 -55 14 -80 18
-172 33 -413 173 -561 328 -55 57 -139 164 -152 193 -4 8 -16 29 -27 45 -11
17 -23 37 -26 45 -3 8 -12 30 -20 47 -47 107 -64 156 -75 220 -5 29 -14 64
-19 78 -14 36 -13 366 1 402 6 15 14 48 19 73 29 159 150 378 289 523 60 63
184 163 221 180 8 4 29 16 45 27 17 11 37 23 45 26 30 12 86 37 113 50 16 8
37 14 47 14 9 0 34 7 53 15 20 8 51 15 69 15 18 0 56 7 83 14 70 20 288 20
351 1z"/>
<path d="M4195 7401 c-38 -4 -80 -13 -92 -19 -12 -7 -33 -12 -47 -12 -14 0
-42 -7 -63 -16 -21 -9 -51 -22 -68 -29 -16 -7 -37 -16 -45 -19 -8 -3 -28 -15
-45 -26 -16 -11 -37 -23 -45 -27 -42 -19 -146 -108 -210 -179 -47 -52 -123
-161 -136 -194 -3 -8 -10 -22 -15 -30 -5 -8 -12 -22 -15 -30 -3 -8 -11 -28
-18 -45 -35 -82 -39 -97 -67 -264 -12 -74 -11 -84 20 -306 13 -89 65 -222 121
-310 11 -16 23 -37 26 -45 26 -57 227 -258 284 -284 8 -3 29 -15 45 -25 51
-33 110 -59 225 -101 19 -7 55 -16 80 -20 181 -31 195 -32 270 -20 41 6 98 15
125 19 55 8 115 26 158 47 16 8 37 14 47 14 9 0 23 7 30 15 7 8 21 15 31 15
10 0 21 5 24 11 4 5 17 14 28 20 46 19 140 92 208 159 37 37 121 144 132 170
4 8 16 29 27 45 11 17 23 37 26 45 3 8 12 29 19 45 57 131 68 186 72 379 3
144 1 188 -11 227 -9 26 -16 56 -16 66 0 10 -7 31 -15 47 -8 15 -15 35 -15 43
0 8 -6 27 -14 41 -8 15 -17 34 -20 42 -4 8 -15 29 -26 45 -11 17 -23 37 -27
45 -12 28 -106 145 -147 184 -129 121 -268 201 -451 259 -58 19 -285 29 -390
18z m357 -128 c7 -6 38 -18 68 -27 124 -39 223 -102 343 -215 79 -75 173 -229
220 -359 28 -80 31 -99 33 -237 2 -105 -1 -164 -11 -195 -7 -25 -18 -70 -24
-101 -7 -31 -32 -90 -57 -135 -25 -43 -55 -96 -66 -117 -23 -43 -187 -200
-238 -228 -19 -11 -42 -23 -50 -28 -8 -5 -31 -16 -50 -24 -281 -121 -548 -117
-795 10 -69 35 -83 45 -179 124 -56 46 -136 141 -136 162 0 7 -12 24 -26 38
-31 29 -81 125 -101 194 -26 92 -43 244 -38 334 4 61 17 122 45 211 34 108 49
139 110 227 69 99 169 201 230 233 15 8 57 32 92 52 39 23 107 49 178 68 110
29 122 30 277 27 90 -2 168 -9 175 -14z"/>
<path d="M4473 6946 c-66 -24 -164 -126 -174 -181 -7 -32 -47 -31 -83 2 -91
85 -144 106 -229 94 -48 -6 -65 -15 -99 -47 -93 -87 -108 -114 -111 -193 -1
-46 4 -66 26 -103 34 -59 109 -125 158 -140 22 -6 39 -15 39 -20 0 -6 -19 -33
-43 -61 -82 -100 -87 -111 -87 -179 0 -72 13 -100 81 -167 102 -102 207 -106
321 -11 39 32 108 139 108 166 0 10 29 -11 74 -50 81 -73 158 -107 195 -86 11
5 28 10 39 10 29 0 138 84 166 127 32 50 40 104 25 164 -17 65 -110 163 -169
179 -61 17 -61 34 3 98 120 121 115 228 -14 346 -63 57 -65 58 -129 61 -36 1
-79 -2 -97 -9z m177 -136 c41 -41 50 -55 50 -85 0 -71 -44 -125 -118 -146 -57
-16 -108 0 -150 46 -28 30 -32 42 -32 87 1 40 6 60 24 81 37 45 76 65 129 66
45 1 51 -3 97 -49z m-566 -59 c21 -11 49 -35 63 -53 22 -29 24 -40 20 -91 -6
-66 -24 -90 -90 -119 -54 -25 -85 -22 -132 10 -53 37 -67 66 -62 128 4 61 31
100 85 125 49 23 70 23 116 0z m298 -211 c34 -33 68 -60 75 -60 6 0 23 -5 37
-11 l24 -11 -36 -52 c-19 -28 -43 -58 -53 -66 -9 -8 -24 -36 -34 -63 -22 -58
-37 -56 -105 7 -25 24 -66 55 -92 70 -27 15 -48 32 -48 39 0 7 25 38 55 70 30
33 58 71 61 85 17 69 37 67 116 -8z m345 -209 c35 -28 62 -77 63 -114 0 -34
-39 -97 -76 -122 -40 -27 -130 -27 -165 0 -80 60 -79 170 1 233 14 11 34 22
45 25 39 11 103 0 132 -22z m-518 -100 c88 -70 68 -200 -37 -242 -37 -15 -105
-10 -133 9 -55 37 -64 52 -64 116 0 96 47 143 144 145 45 1 59 -4 90 -28z"/>
<path d="M6450 5241 c-41 -3 -81 -10 -88 -14 -6 -5 -33 -12 -60 -17 -62 -11
-115 -30 -222 -80 -51 -24 -55 -26 -165 -96 -90 -58 -315 -271 -315 -299 0 -4
-12 -24 -27 -44 -38 -49 -47 -65 -88 -151 -51 -106 -60 -128 -78 -190 -8 -30
-21 -75 -28 -100 -17 -61 -24 -471 -9 -514 6 -17 15 -51 20 -76 12 -68 46
-161 97 -265 44 -91 46 -93 129 -205 107 -144 288 -304 395 -350 13 -5 31 -14
39 -19 26 -15 131 -60 190 -81 19 -7 58 -16 85 -20 28 -4 63 -13 78 -19 38
-15 426 -15 464 0 15 6 48 14 73 19 58 10 110 29 213 74 17 8 39 17 47 20 8 3
29 15 45 26 17 11 39 24 50 30 65 35 116 74 223 175 144 134 289 369 328 530
3 11 11 43 19 70 58 210 58 470 0 656 -8 26 -15 55 -15 65 0 11 -7 28 -15 38
-8 11 -15 27 -15 37 0 28 -99 211 -157 287 -96 128 -239 260 -369 339 -31 19
-155 79 -199 95 -171 66 -425 97 -645 79z m341 -120 c47 -4 92 -12 99 -16 8
-5 32 -12 55 -16 53 -9 147 -43 195 -70 8 -4 35 -18 60 -30 67 -34 229 -159
287 -223 56 -61 158 -207 179 -256 15 -36 38 -87 47 -105 6 -11 14 -33 18 -50
4 -16 12 -43 18 -60 66 -192 50 -548 -34 -750 -30 -71 -101 -211 -115 -225 -3
-3 -19 -25 -35 -50 -28 -41 -142 -160 -211 -220 -67 -59 -277 -180 -311 -180
-8 0 -27 -6 -41 -14 -45 -23 -112 -37 -227 -47 -119 -11 -353 -3 -395 13 -14
5 -43 13 -65 18 -54 11 -145 44 -195 71 -129 69 -179 104 -268 185 -158 145
-305 384 -342 559 -5 22 -14 54 -21 70 -17 42 -17 448 0 490 7 17 16 48 21 70
33 158 159 375 294 511 45 45 178 149 231 181 73 43 207 100 266 112 19 4 41
11 49 16 7 4 58 14 114 21 97 12 141 11 327 -5z"/>
<path d="M6490 4959 c-19 -5 -57 -13 -85 -18 -171 -31 -353 -135 -498 -284
-66 -67 -187 -238 -187 -263 0 -7 -6 -25 -14 -41 -31 -62 -46 -105 -46 -131 0
-15 -7 -49 -15 -76 -21 -67 -21 -305 0 -372 8 -27 15 -61 15 -75 0 -14 7 -34
15 -45 8 -10 15 -27 15 -37 0 -17 14 -49 41 -97 5 -8 14 -26 20 -40 6 -14 21
-39 35 -57 13 -17 24 -36 24 -42 0 -25 240 -252 290 -274 8 -4 29 -16 45 -27
17 -11 37 -22 45 -26 8 -3 27 -12 42 -20 14 -8 35 -14 45 -14 10 0 23 -4 28
-9 23 -23 165 -45 310 -49 155 -3 209 4 345 49 238 77 478 292 580 519 43 96
61 147 70 205 5 28 13 70 19 95 13 57 14 213 0 265 -5 22 -14 63 -18 90 -12
67 -31 121 -81 225 -81 170 -281 379 -422 440 -13 6 -30 14 -38 19 -14 8 -40
19 -130 51 -19 7 -57 16 -85 21 -27 5 -70 13 -95 18 -55 12 -222 12 -270 0z
m265 -119 c22 -5 74 -16 115 -25 41 -8 89 -24 105 -35 17 -11 37 -20 45 -20
16 0 121 -63 157 -93 61 -53 143 -141 185 -198 55 -76 86 -142 124 -264 26
-83 28 -103 28 -245 0 -117 -5 -170 -18 -215 -23 -81 -46 -136 -67 -160 -9
-11 -22 -36 -28 -56 -36 -111 -213 -281 -383 -366 -57 -29 -124 -55 -148 -58
-25 -4 -58 -11 -75 -15 -16 -5 -73 -12 -125 -15 -152 -8 -350 35 -467 103 -89
52 -206 157 -290 259 -35 43 -123 223 -123 251 0 10 -4 22 -9 28 -38 43 -48
307 -16 450 21 96 103 269 156 331 22 24 39 48 39 53 0 5 39 42 88 83 137 115
347 206 512 220 50 4 148 -3 195 -13z"/>
<path d="M6345 4491 c-6 -5 -27 -14 -47 -20 -44 -14 -105 -79 -137 -144 -43
-89 -20 -162 81 -258 26 -25 48 -51 48 -57 0 -6 -24 -29 -54 -51 -76 -56 -122
-114 -132 -164 -16 -90 5 -154 73 -219 100 -95 196 -103 310 -26 23 16 48 37
55 47 15 21 50 41 71 41 8 0 20 -14 27 -30 18 -43 102 -126 146 -145 48 -20
147 -20 164 0 7 8 19 15 26 15 22 0 90 67 120 117 32 56 36 130 9 183 -9 19
-44 63 -77 96 -33 34 -57 67 -54 73 4 6 26 19 49 29 46 21 57 31 111 109 30
44 36 62 36 103 0 64 -37 147 -81 180 -106 79 -112 82 -180 74 -73 -8 -145
-49 -192 -109 -33 -42 -60 -45 -84 -8 -39 60 -132 141 -179 157 -53 18 -95 21
-109 7z m108 -110 c60 -30 82 -66 82 -131 0 -69 -27 -107 -92 -133 -43 -17
-48 -17 -92 -1 -61 23 -85 46 -100 95 -21 69 9 133 79 170 45 23 77 24 123 0z
m550 -60 c85 -56 89 -175 8 -236 -35 -27 -150 -28 -175 -2 -10 9 -22 17 -27
17 -5 0 -9 6 -9 14 0 7 -7 19 -15 26 -21 18 -19 93 4 131 29 47 68 67 131 68
38 1 64 -5 83 -18z m-313 -216 c0 -5 28 -38 62 -72 73 -73 72 -77 -12 -134
-29 -20 -59 -47 -66 -60 -12 -24 -60 -57 -68 -48 -2 2 -21 30 -43 61 -22 31
-54 68 -71 83 -44 37 -42 68 6 99 22 13 45 31 53 39 8 7 24 19 37 26 12 6 22
20 22 31 0 10 8 23 18 29 13 8 22 4 39 -17 12 -15 22 -31 23 -37z m-273 -232
c38 -25 83 -92 83 -124 0 -42 -28 -92 -65 -118 -101 -68 -235 -4 -235 113 0
55 19 89 69 121 44 29 110 32 148 8z m561 -79 c33 -33 36 -41 37 -93 0 -92
-52 -145 -146 -144 -50 1 -62 5 -93 34 -66 59 -67 145 -4 206 39 37 58 43 121
38 39 -3 55 -11 85 -41z"/>
<path d="M3210 4800 c-30 -4 -82 -9 -115 -9 -33 -1 -82 -8 -109 -16 -27 -8
-63 -15 -79 -15 -28 0 -103 -18 -172 -42 -16 -5 -47 -13 -68 -18 -21 -4 -44
-13 -50 -19 -6 -6 -20 -11 -30 -11 -10 0 -31 -6 -45 -14 -15 -8 -61 -31 -102
-51 -41 -20 -88 -45 -105 -55 -16 -11 -37 -23 -45 -27 -27 -13 -154 -102 -190
-134 -125 -109 -322 -327 -339 -373 -2 -6 -15 -26 -29 -44 -29 -38 -65 -103
-118 -212 -20 -41 -43 -87 -50 -102 -8 -14 -14 -35 -14 -45 0 -10 -5 -24 -11
-30 -6 -6 -15 -29 -19 -50 -5 -21 -13 -51 -18 -68 -19 -54 -33 -119 -43 -185
-5 -36 -13 -83 -19 -105 -5 -22 -10 -118 -10 -214 0 -164 11 -262 41 -386 6
-22 14 -60 19 -85 4 -25 13 -61 20 -80 20 -54 41 -111 58 -155 20 -53 108
-232 132 -270 11 -16 23 -37 27 -45 17 -39 164 -221 232 -289 112 -113 227
-211 263 -224 10 -4 18 -11 18 -17 0 -5 4 -10 9 -10 5 0 33 -16 62 -36 30 -20
68 -43 84 -50 28 -14 41 -20 83 -44 9 -6 24 -13 32 -16 8 -3 30 -12 47 -20 79
-35 104 -45 213 -84 19 -6 56 -16 82 -20 27 -5 53 -12 58 -15 6 -4 50 -11 98
-15 48 -5 127 -14 177 -20 88 -11 110 -9 375 20 36 4 88 12 115 19 80 20 158
41 190 53 17 5 44 13 60 17 17 4 39 12 50 18 11 5 36 17 55 26 67 29 185 89
215 108 17 10 37 22 45 26 47 21 228 169 311 254 83 83 219 247 219 263 0 3
19 33 43 68 24 35 65 108 91 163 26 55 54 112 62 127 8 14 14 34 14 45 0 10 7
27 15 37 8 11 15 31 15 45 0 14 7 35 15 45 8 11 15 34 15 52 0 17 7 51 15 74
8 23 15 59 15 79 0 20 7 72 15 116 25 137 15 351 -26 550 -5 28 -13 70 -18 95
-4 25 -13 55 -19 67 -7 12 -12 31 -12 42 0 20 -17 66 -46 124 -8 16 -14 35
-14 44 0 13 -15 48 -41 93 -5 8 -12 22 -15 30 -3 8 -9 22 -14 30 -5 8 -21 38
-35 65 -35 68 -38 73 -136 205 -109 145 -202 238 -351 351 -64 49 -120 89
-123 89 -3 0 -38 19 -78 43 -69 41 -101 58 -177 90 -121 52 -159 66 -210 76
-19 4 -45 13 -57 19 -12 7 -35 12 -52 12 -16 0 -42 5 -58 11 -53 22 -360 42
-443 29z m335 -175 c33 -8 75 -14 93 -15 18 0 43 -5 55 -12 12 -6 40 -15 62
-19 52 -9 131 -37 208 -75 16 -8 37 -14 47 -14 9 0 23 -7 30 -15 7 -8 16 -15
21 -15 5 0 44 -21 87 -47 238 -144 454 -360 588 -588 15 -25 81 -159 98 -200
7 -16 21 -47 30 -68 9 -21 16 -46 16 -55 0 -10 7 -27 15 -38 8 -10 15 -30 15
-43 0 -13 6 -44 14 -70 65 -206 67 -645 4 -826 -5 -16 -14 -48 -18 -70 -10
-49 -38 -127 -51 -139 -5 -6 -9 -17 -9 -25 0 -13 -80 -180 -113 -236 -74 -124
-145 -214 -251 -321 -136 -135 -265 -228 -421 -302 -38 -18 -83 -40 -98 -48
-16 -8 -35 -14 -44 -14 -8 0 -27 -6 -41 -14 -35 -17 -88 -36 -132 -46 -19 -4
-48 -13 -65 -18 -173 -61 -623 -61 -800 0 -16 5 -46 14 -65 18 -38 9 -86 25
-137 47 -77 32 -109 46 -123 54 -8 5 -37 20 -65 34 -68 35 -73 38 -207 138
-142 105 -233 194 -331 324 -107 142 -145 206 -215 363 -8 19 -21 47 -29 62
-7 14 -13 33 -13 41 0 9 -6 28 -14 44 -16 33 -34 97 -46 168 -4 28 -14 64 -21
80 -9 22 -13 101 -13 285 0 257 6 322 46 435 6 17 13 46 16 65 2 19 11 44 18
55 8 11 14 28 14 38 0 10 6 31 13 45 14 27 39 83 51 112 3 8 15 29 26 45 11
17 24 40 29 52 53 120 314 421 426 491 22 14 65 44 95 66 63 47 68 50 170 101
41 20 88 43 103 51 16 8 36 14 46 14 9 0 22 5 27 10 11 11 95 37 164 50 25 5
63 13 85 19 155 41 490 55 610 26z"/>
<path d="M3090 4384 c-25 -7 -58 -14 -75 -14 -27 0 -65 -10 -160 -42 -16 -5
-43 -13 -60 -17 -29 -8 -134 -53 -165 -71 -8 -5 -35 -19 -60 -31 -25 -12 -61
-35 -81 -51 -20 -15 -41 -28 -46 -28 -5 0 -22 -12 -39 -28 -16 -15 -51 -45
-77 -66 -106 -84 -218 -226 -316 -396 -44 -76 -118 -258 -131 -325 -5 -22 -13
-58 -19 -80 -31 -124 -39 -277 -21 -424 18 -147 56 -315 86 -388 30 -71 47
-109 55 -123 4 -8 18 -35 31 -60 51 -103 145 -226 253 -335 78 -77 195 -175
211 -175 4 0 15 -7 24 -15 25 -23 139 -84 230 -123 19 -8 47 -21 62 -29 14 -7
35 -13 46 -13 11 0 33 -7 48 -15 16 -8 39 -15 51 -15 12 0 34 -5 50 -11 97
-39 483 -43 588 -7 17 6 50 14 75 18 49 8 99 24 143 46 16 8 37 14 47 14 9 0
23 7 30 15 7 8 18 15 25 15 24 0 166 77 226 123 20 15 40 27 44 27 13 0 211
191 262 252 110 133 238 380 273 528 5 19 13 53 19 75 61 237 49 510 -31 750
-5 17 -14 45 -18 64 -5 18 -13 38 -19 44 -6 6 -11 21 -11 33 0 12 -7 27 -15
34 -8 7 -15 18 -15 25 0 6 -11 32 -25 56 -14 24 -28 51 -32 59 -29 60 -139
204 -216 282 -57 58 -227 198 -240 198 -4 0 -23 12 -44 26 -47 32 -237 124
-255 124 -8 0 -19 5 -25 11 -6 6 -29 15 -50 20 -21 4 -56 12 -78 18 -138 35
-190 41 -346 40 -112 0 -178 -5 -209 -15z m375 -108 c90 -8 313 -74 390 -114
187 -99 365 -227 414 -299 15 -21 46 -60 71 -86 24 -26 51 -58 59 -71 9 -13
28 -42 43 -64 29 -44 72 -132 107 -219 68 -170 108 -478 82 -638 -30 -190 -68
-319 -124 -426 -118 -228 -220 -356 -383 -481 -63 -48 -183 -124 -218 -138
-12 -4 -46 -19 -76 -33 -30 -14 -82 -33 -115 -42 -33 -10 -64 -21 -70 -25 -18
-13 -174 -40 -264 -46 -97 -6 -293 8 -361 26 -127 33 -281 89 -332 120 -18 11
-45 25 -60 31 -16 6 -28 15 -28 19 0 4 -11 10 -23 14 -38 9 -114 73 -248 209
-125 126 -185 209 -247 342 -35 75 -72 180 -72 204 0 12 -6 34 -14 49 -18 36
-26 81 -40 237 -10 106 -10 152 0 240 18 147 21 164 32 178 5 7 12 29 15 50 3
21 17 63 31 94 14 30 26 63 26 73 0 21 97 184 158 265 79 104 183 215 218 231
18 9 40 27 49 40 8 13 20 24 26 24 5 0 33 16 62 35 28 19 57 35 63 35 6 0 19
9 29 20 10 11 26 20 36 20 9 0 30 6 46 14 90 45 181 72 308 91 61 9 121 19
134 23 27 8 184 7 276 -2z"/>
<path d="M3487 3697 c-169 -64 -274 -267 -208 -402 47 -96 139 -175 225 -195
51 -11 132 -6 181 13 38 14 132 90 162 129 54 75 67 216 25 278 -9 14 -22 37
-28 51 -16 36 -128 120 -172 129 -91 19 -127 19 -185 -3z m164 -99 c81 -27
149 -115 149 -193 0 -45 -33 -116 -68 -145 -53 -46 -90 -60 -159 -60 -140 0
-230 111 -200 247 8 34 24 59 57 92 63 63 145 85 221 59z"/>
<path d="M2770 3528 c-37 -7 -68 -21 -95 -42 -22 -18 -49 -38 -61 -44 -12 -6
-38 -44 -60 -84 -33 -64 -38 -81 -37 -138 1 -159 126 -289 292 -304 72 -6 75
-6 150 35 70 37 150 109 151 135 0 6 7 17 15 24 9 7 15 20 14 29 -1 9 3 27 8
41 12 29 2 108 -20 161 -30 71 -147 167 -229 187 -52 13 -52 13 -128 0z m185
-136 c42 -35 61 -58 78 -95 18 -41 23 -112 8 -121 -5 -3 -12 -18 -15 -32 -16
-61 -121 -124 -208 -124 -129 0 -213 107 -193 245 10 66 79 135 155 157 49 13
61 13 105 1 28 -8 59 -22 70 -31z"/>
<path d="M3675 2993 c-70 -28 -163 -100 -191 -149 -35 -59 -56 -148 -49 -202
13 -94 58 -153 180 -238 64 -44 208 -39 279 10 100 70 176 180 176 256 0 143
-117 290 -255 319 -96 20 -98 20 -140 4z m150 -114 c69 -30 121 -89 129 -144
12 -77 -2 -129 -46 -180 -22 -25 -46 -45 -53 -45 -7 0 -18 -7 -25 -15 -9 -11
-32 -15 -81 -15 -74 0 -120 20 -165 71 -28 32 -57 115 -51 142 22 92 65 147
142 183 63 29 90 29 150 3z"/>
<path d="M2930 2811 c-74 -16 -177 -107 -220 -196 -36 -75 -33 -172 9 -246 35
-61 118 -138 171 -157 69 -24 141 -26 200 -3 67 25 157 102 196 168 26 43 29
57 28 133 0 104 -18 146 -89 210 -64 59 -90 74 -147 88 -51 13 -94 14 -148 3z
m154 -111 c101 -45 148 -134 125 -237 -30 -131 -199 -207 -309 -138 -60 38
-87 73 -105 136 -14 53 -14 61 0 88 8 17 15 36 15 43 0 21 82 96 113 103 15 4
30 11 33 16 9 16 80 10 128 -11z"/>
</g>
</svg>
