<?xml version="1.0" standalone="no"?>
<!DOCTYPE svg PUBLIC "-//W3C//DTD SVG 20010904//EN"
 "http://www.w3.org/TR/2001/REC-SVG-20010904/DTD/svg10.dtd">
<svg version="1.0" xmlns="http://www.w3.org/2000/svg"
 width="300.000000pt" height="300.000000pt" viewBox="0 0 300.000000 300.000000"
 preserveAspectRatio="xMidYMid meet">
<metadata>
Created by potrace 1.10, written by Peter Selinger 2001-2011
</metadata>
<g transform="translate(0.000000,300.000000) scale(0.100000,-0.100000)"
fill="#000000" stroke="none">
<path d="M1312 2144 c-28 -19 -29 -59 -2 -81 36 -31 25 -43 -38 -43 -33 0 -64
5 -71 13 -11 10 -14 10 -18 0 -6 -15 -33 -17 -33 -3 0 6 -7 10 -15 10 -8 0
-15 -7 -15 -15 0 -20 -10 -19 -26 3 -13 16 -15 16 -30 -3 -14 -19 -16 -19 -25
-2 -12 21 -29 22 -29 2 0 -20 -17 -19 -29 3 -10 16 -12 16 -27 -3 -11 -14 -18
-16 -21 -7 -7 17 -23 15 -39 -5 -13 -17 -15 -17 -25 1 -11 18 -12 18 -30 -5
-16 -20 -20 -22 -29 -9 -9 13 -13 11 -29 -9 -12 -16 -21 -20 -25 -12 -11 18
-26 13 -26 -9 0 -15 -7 -20 -26 -20 -21 0 -24 -4 -19 -20 5 -17 2 -20 -20 -20
-24 0 -26 -3 -21 -26 5 -20 3 -27 -12 -31 -13 -3 -18 -14 -18 -36 0 -18 -40
-140 -88 -272 -126 -343 -127 -387 -5 -499 32 -30 84 -67 115 -82 92 -45 216
-45 1129 2 484 24 558 36 618 103 45 50 61 118 47 205 -11 70 -105 418 -147
547 -15 46 -26 94 -25 106 2 17 -3 22 -25 25 -20 2 -28 9 -28 23 0 16 -6 19
-29 17 -21 -2 -29 2 -33 17 -5 21 -33 30 -33 11 0 -16 -30 -12 -36 5 -7 17
-34 21 -34 5 0 -5 -7 -10 -15 -10 -8 0 -15 7 -15 15 0 21 -26 19 -35 -2 -6
-17 -7 -17 -19 0 -14 19 -36 23 -36 7 0 -5 -7 -10 -15 -10 -8 0 -15 7 -15 15
0 20 -10 19 -26 -2 -12 -15 -15 -16 -23 -4 -8 13 -12 13 -26 1 -14 -12 -18
-12 -26 1 -8 12 -12 11 -24 -5 -13 -17 -15 -17 -21 -3 -8 21 -34 22 -34 2 0
-8 -4 -15 -10 -15 -5 0 -10 5 -10 10 0 6 -7 10 -15 10 -8 0 -15 -4 -15 -10 0
-5 -22 -10 -50 -10 -38 0 -50 4 -50 15 0 9 7 18 16 22 27 10 37 52 19 79 -15
23 -20 24 -138 24 -95 0 -128 -4 -145 -16z m236 -41 c2 -8 -5 -13 -20 -13 -55
0 -68 -10 -70 -54 l-1 -41 -4 42 -4 42 -50 3 c-78 5 -57 22 33 29 105 7 110 7
116 -8z m569 -147 c82 -26 92 -47 167 -321 85 -315 100 -391 92 -448 -4 -25
-12 -50 -19 -55 -9 -8 -12 10 -12 76 0 75 -10 121 -68 342 -38 140 -70 256
-72 258 -2 2 -91 -71 -197 -162 -273 -233 -387 -323 -434 -342 -38 -15 -45
-15 -76 0 -18 9 -117 83 -219 164 -306 245 -467 357 -486 338 -5 -4 -11 -121
-15 -259 -7 -256 -26 -455 -50 -505 -24 -51 -81 -37 -165 41 -98 90 -97 121 6
422 106 308 118 340 148 376 33 39 70 57 141 71 87 16 438 26 842 23 312 -1
373 -4 417 -19z m-77 -835 c146 -27 200 -43 200 -58 0 -18 -18 -17 -205 12
-75 11 -176 17 -315 17 -293 1 -513 -23 -763 -83 -82 -20 -132 -28 -138 -22
-15 15 8 29 86 51 142 41 306 70 525 92 107 11 536 4 610 -9z"/>
<path d="M1045 1930 c-220 -12 -260 -22 -307 -78 -16 -19 -59 -133 -122 -321
-114 -339 -113 -336 -36 -410 27 -26 61 -53 75 -61 40 -21 40 -21 71 226 2 22
9 152 13 288 8 229 11 250 29 269 14 13 28 18 44 14 58 -15 276 -167 532 -372
124 -99 177 -135 197 -135 18 0 52 20 100 57 59 46 363 297 512 424 25 21 28
28 19 46 -6 11 -31 29 -54 39 -39 17 -79 19 -488 20 -245 1 -508 -2 -585 -6z"/>
</g>
</svg>
