<?xml version="1.0" standalone="no"?>
<!DOCTYPE svg PUBLIC "-//W3C//DTD SVG 20010904//EN"
 "http://www.w3.org/TR/2001/REC-SVG-20010904/DTD/svg10.dtd">
<svg version="1.0" xmlns="http://www.w3.org/2000/svg"
 width="300.000000pt" height="215.000000pt" viewBox="0 0 300.000000 215.000000"
 preserveAspectRatio="xMidYMid meet">
<metadata>
Created by potrace 1.10, written by Peter Selinger 2001-2011
</metadata>
<g transform="translate(0.000000,215.000000) scale(0.050000,-0.050000)"
fill="#000000" stroke="none">
<path d="M2914 4112 c-170 -63 -299 -182 -363 -337 -41 -98 -41 -322 0 -363
59 -59 129 18 129 144 1 275 320 480 570 367 329 -150 316 -531 -27 -783 -194
-143 -261 -268 -263 -491 0 -80 -1 -81 -108 -117 -169 -58 -285 -160 -466
-413 -276 -385 -359 -445 -1187 -860 -642 -322 -792 -411 -895 -528 -217 -247
-170 -598 63 -462 l87 51 2499 0 2499 0 68 -50 c158 -116 270 -16 222 198 -55
246 -123 299 -1032 805 -754 420 -820 475 -1010 837 -142 271 -223 348 -441
420 -188 63 -139 332 87 476 433 278 442 818 17 1069 -107 63 -330 82 -449 37z
m232 -1758 c-5 -9 2 -15 17 -12 57 9 167 -60 194 -121 15 -35 38 -59 50 -55
22 7 105 -102 97 -130 -2 -7 18 -31 44 -51 37 -29 43 -46 29 -72 -14 -23 -12
-32 4 -28 12 3 31 -15 40 -40 12 -30 10 -45 -4 -45 -12 0 -17 -18 -11 -40 13
-49 12 -49 -75 2 -39 23 -71 55 -71 70 0 25 -24 37 -65 30 -8 -1 -15 7 -15 17
0 11 -12 15 -27 9 -15 -5 -56 17 -91 50 -35 33 -76 56 -90 50 -14 -5 -49 0
-79 11 -39 15 -53 14 -53 -4 -1 -16 -8 -14 -20 5 -15 25 -26 26 -59 5 -22 -14
-54 -25 -71 -25 -16 0 -30 -10 -30 -22 0 -16 -10 -15 -30 2 -17 14 -37 20 -44
13 -7 -7 0 -13 14 -13 18 0 12 -14 -15 -40 -24 -22 -57 -40 -74 -40 -17 0 -31
-10 -31 -22 0 -12 -14 -17 -31 -10 -17 6 -64 -9 -105 -34 -142 -86 -184 -102
-206 -80 -15 15 -3 29 39 48 33 15 56 33 51 41 -4 7 6 28 23 45 17 17 30 35
30 41 -3 47 1 51 39 31 32 -17 40 -15 40 9 0 17 10 31 21 31 12 0 15 10 8 21
-7 12 2 38 20 58 18 20 35 55 36 77 2 23 24 51 49 62 25 12 46 31 46 43 0 12
8 16 18 10 10 -6 23 2 28 17 6 15 36 33 67 41 32 8 72 28 91 45 18 16 44 23
58 15 15 -9 19 -7 11 6 -23 38 93 64 120 27 13 -17 19 -39 13 -48z m141 -661
c134 -81 297 -177 363 -214 66 -36 260 -149 430 -250 171 -101 409 -242 530
-314 377 -223 620 -376 615 -386 -7 -12 -4545 -22 -4544 -9 1 17 531 328 869
510 77 41 316 172 530 290 454 251 947 518 957 519 5 1 117 -65 250 -146z
m-2678 -1040 c-8 -18 -22 -33 -32 -33 -11 0 -13 -10 -5 -23 9 -14 5 -18 -8 -9
-14 8 -28 -6 -36 -37 -7 -28 -24 -51 -39 -51 -55 0 -48 40 21 108 38 39 70 82
70 95 0 17 6 19 21 4 11 -11 15 -35 8 -54z"/>
</g>
</svg>
