<?xml version="1.0" standalone="no"?>
<!DOCTYPE svg PUBLIC "-//W3C//DTD SVG 20010904//EN"
 "http://www.w3.org/TR/2001/REC-SVG-20010904/DTD/svg10.dtd">
<svg version="1.0" xmlns="http://www.w3.org/2000/svg"
 width="300.000000pt" height="300.000000pt" viewBox="0 0 300.000000 300.000000"
 preserveAspectRatio="xMidYMid meet">
<metadata>
Created by potrace 1.10, written by Peter Selinger 2001-2011
</metadata>
<g transform="translate(0.000000,300.000000) scale(0.100000,-0.100000)"
fill="#000000" stroke="none">
<path d="M658 2060 c-80 -10 -127 -24 -189 -57 -56 -30 -74 -61 -73 -124 2
-58 27 -102 71 -126 l33 -18 -2 -290 -3 -290 -35 -17 c-59 -30 -70 -51 -70
-137 0 -95 12 -114 94 -151 132 -59 359 -85 511 -57 44 8 81 13 83 12 2 -1
-11 -23 -28 -48 -36 -54 -38 -69 -7 -65 14 2 36 24 61 61 28 43 50 64 81 77
45 19 92 69 99 103 3 12 7 42 10 66 3 27 15 56 33 80 102 127 343 461 421 582
l43 67 40 -9 c60 -14 98 -36 119 -71 61 -100 19 -206 -134 -341 -120 -105
-149 -146 -154 -216 -5 -71 13 -110 69 -150 53 -39 115 -51 267 -51 152 0 232
-23 309 -88 138 -115 252 -159 386 -149 117 8 193 45 160 78 -9 9 -25 8 -69
-6 -43 -13 -77 -16 -143 -13 -105 6 -161 30 -285 123 -125 92 -168 106 -351
112 -172 5 -232 20 -270 64 -53 64 -27 128 94 235 151 133 193 197 199 304 3
53 -1 73 -20 110 -27 52 -105 110 -149 110 -16 0 -29 3 -29 8 0 4 23 39 51 77
72 98 85 130 64 161 -12 18 -24 24 -52 24 -48 0 -98 -52 -173 -179 l-55 -93
-69 -24 c-127 -44 -270 -134 -377 -236 -107 -103 -226 -140 -379 -120 -124 17
-256 70 -284 114 -15 25 0 33 28 14 52 -33 134 -58 240 -72 98 -13 120 -13
200 1 50 9 107 24 126 33 l35 17 5 117 5 117 43 31 c79 57 95 157 34 211 -87
78 -364 118 -614 89z m402 -67 c87 -16 163 -43 174 -62 10 -16 -76 -60 -150
-76 -121 -26 -277 -30 -395 -10 -105 17 -189 46 -210 71 -18 22 6 42 80 64
137 41 324 46 501 13z m840 -14 c0 -15 -140 -209 -151 -209 -17 0 -9 21 32 90
56 95 119 158 119 119z m-1347 -160 c229 -62 547 -46 660 33 16 11 30 18 33
15 5 -4 -22 -67 -29 -67 -1 0 -36 -12 -77 -26 -64 -22 -98 -26 -235 -31 -165
-6 -268 4 -357 33 -55 18 -98 55 -98 84 0 21 1 21 30 -4 17 -14 50 -31 73 -37z
m1190 -75 c3 -3 -3 -16 -14 -28 -11 -11 -55 -75 -96 -141 -119 -188 -212 -320
-213 -302 0 5 13 27 28 50 16 23 73 114 127 202 92 150 142 223 156 224 3 1 8
-2 12 -5z m-1113 -55 c66 -49 281 -76 443 -56 63 8 67 7 67 -11 0 -15 -11 -22
-44 -31 -63 -16 -258 -13 -341 4 -87 18 -195 72 -206 104 -8 21 -7 22 23 16
18 -4 44 -16 58 -26z m510 17 c0 -8 -8 -17 -17 -20 -91 -25 -371 -24 -387 2
-2 4 66 8 152 9 87 1 173 6 192 12 51 13 60 13 60 -3z m365 -213 c-68 -115
-147 -245 -176 -291 -52 -79 -55 -82 -84 -76 -16 4 -36 7 -42 7 -10 0 -13 32
-13 123 0 105 -2 123 -17 128 -18 7 -12 13 141 140 70 58 271 175 302 176 6 0
-44 -93 -111 -207z m-918 117 c73 -57 275 -91 437 -71 75 9 102 9 113 0 19
-17 7 -25 -63 -43 -128 -33 -315 -14 -434 43 -76 37 -90 48 -90 72 0 24 6 24
37 -1z m44 -209 c72 -32 150 -51 211 -51 30 0 39 -3 31 -11 -14 -14 -172 -13
-225 1 -40 11 -98 58 -98 79 0 16 11 14 81 -18z m493 -47 c22 -8 20 -41 -2
-48 -68 -22 -302 -34 -302 -16 0 6 10 10 23 10 26 0 206 45 215 54 7 8 46 8
66 0z m-506 -73 c67 -51 144 -87 224 -106 70 -16 202 -19 261 -6 37 9 38 9 35
-17 -3 -26 -6 -27 -89 -36 -168 -17 -360 38 -459 133 -36 34 -53 71 -32 71 4
0 31 -18 60 -39z m163 -12 c68 -18 104 -20 225 -17 79 1 144 1 144 -2 -1 -32
-105 -55 -208 -46 -41 3 -115 20 -165 37 -147 48 -144 66 4 28z m-156 -104
c105 -71 180 -90 363 -90 83 0 152 -3 152 -7 0 -41 -233 -64 -338 -34 -121 35
-252 118 -252 160 0 9 2 16 5 16 3 0 34 -20 70 -45z m-44 -75 c15 -12 49 -30
74 -41 50 -22 62 -42 17 -30 -59 17 -132 63 -132 83 0 13 9 10 41 -12z m-81
-16 c0 -24 88 -72 164 -90 93 -22 326 -21 411 1 61 15 101 44 116 83 11 27 20
28 37 1 44 -70 -133 -139 -355 -139 -133 0 -257 25 -345 69 -73 36 -91 58 -68
86 14 16 40 9 40 -11z m31 -136 c104 -50 361 -69 527 -39 77 14 86 13 77 -11
-22 -57 -347 -75 -527 -29 -119 31 -168 64 -168 114 0 19 1 19 28 1 15 -10 43
-26 63 -36z m700 0 c-10 -26 -38 -54 -47 -45 -8 8 23 64 38 70 18 6 20 3 9
-25z"/>
<path d="M790 1979 c-75 -9 -90 -17 -90 -46 0 -37 56 -57 160 -57 100 0 145
17 145 53 0 18 -8 27 -35 36 -49 17 -115 22 -180 14z m140 -49 c0 -6 -33 -10
-80 -10 -47 0 -80 4 -80 10 0 6 33 10 80 10 47 0 80 -4 80 -10z"/>
</g>
</svg>
