<?xml version="1.0" standalone="no"?>
<!DOCTYPE svg PUBLIC "-//W3C//DTD SVG 20010904//EN"
 "http://www.w3.org/TR/2001/REC-SVG-20010904/DTD/svg10.dtd">
<svg version="1.0" xmlns="http://www.w3.org/2000/svg"
 width="300.000000pt" height="923.000000pt" viewBox="0 0 300.000000 923.000000"
 preserveAspectRatio="xMidYMid meet">
<metadata>
Created by potrace 1.10, written by Peter Selinger 2001-2011
</metadata>
<g transform="translate(0.000000,923.000000) scale(0.050000,-0.050000)"
fill="#000000" stroke="none">
<path d="M2820 17815 c-273 -140 -301 -479 -58 -717 129 -126 93 -196 -122
-238 -243 -47 -311 -119 -292 -307 56 -538 -305 -820 -1504 -1174 -300 -89
-379 -248 -325 -651 67 -498 273 -1163 543 -1753 234 -511 388 -998 411 -1295
14 -188 -13 -274 -242 -758 -432 -915 -624 -1968 -509 -2794 68 -491 466 -662
1698 -728 193 -11 353 -19 356 -20 4 0 4 -171 0 -379 l-6 -379 -75 -77 c-103
-105 -96 -220 17 -315 33 -28 51 -1764 19 -1797 -100 -102 -116 -225 -51 -370
53 -117 50 -163 -14 -215 -45 -35 -54 -59 -55 -139 l-1 -95 -128 -27 c-390
-79 -630 -383 -740 -938 -148 -745 -393 -1061 -882 -1133 -234 -35 -359 -161
-360 -363 -1 -306 435 -391 610 -119 44 68 105 121 224 195 406 250 619 530
805 1059 150 429 351 623 458 443 29 -50 59 -72 109 -82 l68 -12 11 -134 c44
-575 -8 -1219 -128 -1572 -125 -364 -54 -531 226 -531 242 0 306 108 246 412
-26 132 -32 226 -23 386 84 1466 79 1418 150 1434 115 25 128 34 155 97 85
204 312 -65 473 -559 151 -466 366 -727 784 -952 105 -56 168 -104 190 -144
95 -178 254 -239 450 -175 277 92 171 471 -159 568 -322 95 -386 121 -483 196
-240 185 -290 301 -495 1155 -111 463 -293 675 -661 771 -143 38 -152 44 -138
102 19 75 -6 140 -62 165 -75 34 -81 76 -23 152 97 127 89 313 -18 413 l-49
46 0 853 c0 842 1 854 42 892 117 105 119 210 8 311 l-70 63 0 393 0 393 375
24 c673 44 1222 152 1435 284 224 139 253 239 249 880 -6 929 -142 1530 -541
2391 -317 684 -313 888 32 1649 58 127 175 383 260 570 459 1008 636 1640 548
1959 -37 131 -130 197 -395 280 -609 191 -853 275 -997 343 -337 160 -505 423
-481 754 17 238 -18 280 -301 361 -196 56 -207 92 -76 251 317 385 -56 917
-488 697z m137 -190 c47 -87 -36 -228 -90 -154 -25 34 -26 61 -8 184 4 22 84
-3 98 -30z m250 -178 c6 -49 -1 -103 -18 -135 -19 -37 -20 -49 -3 -40 13 7 -9
-20 -50 -60 -40 -39 -87 -72 -105 -72 -17 0 -31 -13 -31 -30 0 -16 -10 -30
-22 -30 -12 0 -17 13 -12 28 6 15 5 34 -2 42 -8 7 -14 19 -15 27 0 7 -11 33
-25 57 -21 37 -19 45 16 56 22 7 40 22 40 33 0 12 14 16 30 10 17 -7 30 -3 30
7 0 31 65 99 84 88 9 -6 17 -1 19 11 14 121 50 126 64 8z m-80 -636 c86 -82
137 -173 63 -111 -25 20 -30 19 -30 -9 0 -27 -13 -31 -74 -22 -48 8 -78 3 -89
-14 -20 -32 -90 8 -81 47 5 19 0 19 -25 -1 -44 -37 -38 4 9 59 21 25 35 51 31
59 -5 7 9 24 30 37 32 20 39 19 39 -7 0 -17 9 -26 19 -20 11 7 14 25 8 42 -18
47 2 35 100 -60z m-277 -333 c204 -20 425 -15 620 16 124 19 59 -41 -89 -82
-257 -72 -587 -59 -766 31 -82 42 -103 90 -30 69 25 -7 144 -22 265 -34z
m-203 -228 c205 -62 506 -59 778 7 71 18 76 16 87 -34 99 -468 358 -640 1446
-962 256 -75 240 -54 166 -216 -82 -179 -137 -472 -153 -810 -26 -592 -85
-812 -386 -1465 -419 -905 -429 -1164 -75 -1910 406 -855 520 -1351 520 -2260
0 -672 -3 -680 -317 -797 -780 -291 -2936 -265 -3553 42 -217 108 -255 270
-233 985 22 744 151 1271 477 1960 262 553 261 552 272 792 14 339 -227 1208
-359 1290 -50 31 -16 69 38 41 203 -102 803 -69 876 49 22 35 5 35 -151 5
-372 -73 -782 83 -918 349 -96 189 -131 402 -182 1124 -14 190 -39 357 -72
480 -28 105 -55 209 -61 232 -9 37 1 44 74 56 277 44 969 316 1194 469 201
136 385 398 385 548 0 63 14 66 147 25z m2713 -1330 c0 -22 -9 -40 -20 -40
-11 0 -20 -13 -20 -30 0 -16 11 -30 25 -30 17 -1 16 -7 -4 -19 -17 -10 -24
-25 -16 -33 7 -7 5 -30 -6 -50 -15 -27 -11 -41 16 -57 29 -17 30 -23 7 -39
-16 -10 -31 -40 -33 -65 -5 -49 -19 -114 -40 -179 -7 -23 -29 -37 -55 -37 -33
1 -36 5 -14 15 40 18 53 224 15 224 -18 1 -17 5 3 18 18 12 24 38 16 75 -6 34
0 72 18 96 15 21 28 48 28 60 0 11 -9 8 -20 -9 -17 -26 -19 -25 -20 5 0 19 13
35 28 35 31 0 58 54 41 82 -6 10 3 18 20 18 18 0 31 -17 31 -40z m-2333 -8484
c55 -29 23 -44 -81 -39 -120 7 -195 42 -136 64 46 16 162 3 217 -25z m-29
-379 c2 -57 6 -114 8 -125 2 -12 -7 -20 -21 -17 -14 3 -26 -6 -26 -20 -2 -30
-36 44 -38 82 -1 22 5 23 27 5 35 -30 34 35 -1 73 -28 29 -12 105 22 105 15 0
26 -39 29 -103z m-7 -313 c-39 -38 -77 56 -40 98 l39 43 6 -65 c4 -35 1 -69
-5 -76z m-30 -59 c2 -30 4 -29 19 5 14 34 17 29 19 -25 1 -42 -8 -63 -24 -60
-43 9 -75 115 -35 115 11 0 21 -16 21 -35z m18 -148 c-22 -15 -23 -23 -4 -30
14 -6 25 -23 25 -39 0 -15 -11 -28 -25 -28 -18 -1 -19 -4 -2 -15 13 -9 25 -60
27 -115 5 -153 2 -170 -30 -170 -37 0 -40 82 -5 117 18 18 19 28 2 39 -34 21
-40 214 -8 253 15 18 32 27 38 20 7 -6 -1 -20 -18 -32z m28 -507 c7 -18 0 -30
-16 -30 -15 0 -32 -11 -38 -25 -5 -14 -11 0 -11 30 -2 59 45 77 65 25z m-7
-220 c0 -85 -35 -166 -41 -95 -18 200 -18 205 11 205 23 0 30 -26 30 -110z m0
-190 c0 -33 -8 -60 -19 -60 -28 0 -44 36 -22 49 10 7 14 25 8 42 -6 16 -1 29
11 29 12 0 22 -27 22 -60z m0 -324 c0 -7 18 -16 41 -20 83 -13 34 -46 -68 -46
-72 1 -117 11 -140 34 -50 51 -41 58 67 52 55 -3 100 -12 100 -20z m7 -302 c6
-21 5 -33 -2 -26 -6 7 -27 -2 -46 -18 -31 -29 -33 -26 -31 28 2 67 63 80 79
16z m-27 -265 c182 -9 193 -33 27 -57 -156 -22 -260 -3 -289 52 -21 40 -19 41
45 27 37 -8 135 -18 217 -22z m211 -170 c7 -11 29 -15 50 -9 28 9 41 0 50 -38
7 -28 30 -56 51 -63 21 -6 38 -27 38 -45 1 -27 4 -28 18 -6 21 32 62 12 62
-30 0 -23 8 -25 40 -8 29 15 40 15 40 -1 0 -12 11 -18 25 -14 14 5 44 -12 68
-37 23 -25 47 -41 53 -35 6 6 31 0 55 -14 35 -18 39 -27 17 -41 -26 -16 -15
-25 15 -13 7 3 20 -15 29 -40 9 -25 29 -45 44 -45 17 0 38 -43 54 -110 15 -60
33 -110 41 -110 8 0 20 -14 27 -31 7 -19 3 -26 -10 -18 -16 10 -16 3 -2 -24
30 -56 30 -71 1 -89 -22 -14 -22 -17 -1 -18 15 0 21 -9 14 -20 -7 -11 2 -20
19 -20 17 0 31 -9 31 -20 0 -11 -10 -20 -22 -20 -14 0 -18 -31 -11 -85 6 -47
6 -67 0 -45 -7 21 -26 50 -44 64 -23 17 -25 25 -7 25 15 1 21 10 14 21 -7 12
-21 16 -30 10 -10 -6 -13 13 -8 41 5 29 1 47 -8 41 -22 -13 -108 75 -100 100
3 10 -3 18 -14 18 -11 0 -18 -7 -15 -15 3 -8 -4 -15 -15 -15 -11 0 -20 7 -20
16 0 35 -127 146 -141 123 -9 -16 -27 -8 -56 22 -35 38 -44 40 -54 14 -6 -17
-45 -37 -85 -44 -111 -20 -146 -32 -135 -49 5 -8 -10 -28 -33 -43 -22 -16 -53
-40 -67 -54 -14 -14 -34 -25 -43 -26 -27 -1 -97 -66 -111 -104 -15 -39 -46
-46 -66 -14 -16 26 29 83 53 68 10 -7 24 5 30 25 7 20 17 50 23 66 6 17 12 44
13 60 1 17 18 29 36 27 28 -2 31 5 15 34 -12 24 -12 54 1 88 13 36 12 51 -3
51 -13 0 -18 22 -11 55 12 58 -63 236 -98 234 -10 -1 -35 15 -56 34 -44 41
-30 97 24 97 21 0 44 7 52 15 15 15 26 18 82 23 17 1 30 16 30 32 0 34 31 40
51 9z m-407 -76 c-14 -9 -20 -31 -13 -50 10 -23 3 -33 -24 -33 -31 -1 -32 -4
-7 -20 17 -11 21 -20 10 -20 -57 -3 -136 -106 -143 -187 -12 -131 -13 -133
-30 -133 -9 0 -17 -18 -17 -40 0 -51 -80 -56 -81 -5 0 31 -3 30 -25 -5 -15
-25 -44 -39 -78 -38 -58 2 -99 -16 -100 -44 0 -10 -8 -16 -17 -13 -10 2 -12
-10 -5 -29 8 -20 5 -28 -8 -20 -12 8 -28 -7 -35 -31 -9 -30 -17 -36 -24 -19
-14 33 -73 -44 -82 -106 -10 -67 -79 -123 -120 -97 -43 27 -42 205 1 237 15
11 24 31 19 44 -4 13 9 48 28 78 20 31 37 65 39 77 1 11 3 36 5 55 2 18 21 36
44 40 22 3 38 11 35 16 -3 6 8 26 24 43 28 30 31 30 43 0 10 -24 17 -16 28 32
14 65 56 87 77 40 6 -14 7 -5 0 20 -9 38 -3 45 42 45 29 0 47 9 41 19 -7 10 6
29 28 41 28 14 41 15 41 1 0 -12 14 -21 30 -21 36 0 40 33 5 47 -14 5 8 11 49
11 40 1 85 14 100 29 31 31 73 49 116 51 23 1 24 -2 4 -15z m121 -303 c32
-183 -63 -478 -109 -335 -13 43 -3 388 13 413 32 51 80 12 96 -78z m-893 -673
c-7 -44 -33 -57 -53 -26 -28 44 -23 57 19 54 20 -2 36 -15 34 -28z m-1145
-1172 c-8 -13 -40 -45 -70 -70 -30 -26 -65 -78 -78 -117 -27 -82 -71 -80 -64
4 4 38 34 84 88 133 79 72 157 104 124 50z m4220 -72 c18 -20 29 -42 23 -50
-5 -7 0 -5 13 5 12 11 35 14 52 7 23 -9 19 -17 -18 -38 l-47 -27 54 12 c47 10
52 6 42 -30 -6 -23 -18 -42 -28 -42 -9 0 -12 13 -6 29 10 24 0 26 -54 10 -69
-19 -97 -2 -98 61 -1 27 -3 27 -20 0 -15 -23 -19 -14 -20 35 0 76 52 89 107
28z m-2202 -388 c-11 -141 -42 -235 -77 -235 -38 0 -35 41 13 203 49 163 76
177 64 32z"/>
<path d="M4652 13855 c-5 -25 -15 -94 -22 -154 -62 -541 -496 -849 -1030 -732
-221 49 -263 28 -93 -45 636 -275 1140 64 1188 800 10 167 -18 254 -43 131z"/>
</g>
</svg>
