<?xml version="1.0" standalone="no"?>
<!DOCTYPE svg PUBLIC "-//W3C//DTD SVG 20010904//EN"
 "http://www.w3.org/TR/2001/REC-SVG-20010904/DTD/svg10.dtd">
<svg version="1.0" xmlns="http://www.w3.org/2000/svg"
 width="300.000000pt" height="300.000000pt" viewBox="0 0 300.000000 300.000000"
 preserveAspectRatio="xMidYMid meet">
<metadata>
Created by potrace 1.10, written by Peter Selinger 2001-2011
</metadata>
<g transform="translate(0.000000,300.000000) scale(0.100000,-0.100000)"
fill="#000000" stroke="none">
<path d="M1070 2855 c-8 -10 -15 -50 -18 -98 -9 -173 49 -518 168 -997 l61
-244 -21 -70 c-12 -39 -35 -106 -51 -148 -22 -58 -29 -94 -29 -145 0 -124 -34
-162 -190 -219 -131 -47 -224 -129 -289 -254 -56 -106 -74 -185 -75 -310 0
-92 3 -112 25 -160 48 -102 115 -150 212 -150 109 0 197 71 272 220 47 94 66
162 54 202 -5 18 -6 62 -3 99 4 37 1 110 -5 163 -14 108 -12 113 52 186 48 55
78 114 106 205 11 39 28 80 37 93 16 23 17 23 36 5 41 -36 117 -155 123 -191
4 -23 -3 -86 -17 -162 -30 -168 -30 -359 1 -475 42 -157 128 -292 213 -336
151 -77 325 15 363 191 33 149 -35 388 -146 513 -43 50 -133 101 -204 117 -27
6 -53 16 -57 23 -4 7 -8 42 -8 79 0 41 -11 109 -30 180 -16 62 -45 172 -64
243 l-34 130 53 215 c126 509 185 831 185 1016 0 71 -19 109 -43 84 -14 -15
-166 -426 -260 -704 l-51 -151 42 -146 c40 -140 64 -258 43 -214 -5 11 -39
117 -76 235 -135 440 -315 944 -348 977 -12 12 -16 12 -27 -2z m139 -435 c62
-190 157 -482 211 -650 55 -168 106 -334 115 -370 8 -36 32 -124 52 -197 l36
-132 -17 -113 c-9 -62 -23 -151 -32 -198 -30 -160 -4 -372 63 -504 31 -62 72
-118 82 -112 4 3 26 -6 50 -20 24 -13 54 -24 67 -24 13 0 24 -4 24 -10 0 -24
-116 10 -159 46 -64 54 -130 208 -152 356 -14 98 -8 210 21 378 12 69 20 142
17 163 -8 62 -52 139 -126 219 -84 93 -100 132 -175 433 -113 458 -177 776
-191 955 -3 41 -8 91 -11 110 -12 79 18 -1 125 -330z m535 278 c-1 -18 -5 -69
-9 -113 -3 -43 -13 -115 -21 -160 -43 -235 -140 -652 -154 -669 -11 -11 -27
20 -35 69 -4 22 -10 45 -14 50 -9 16 -30 98 -31 122 0 33 230 694 252 721 15
17 16 16 12 -20z m-405 -1337 c12 -33 26 -63 32 -67 6 -3 -1 -20 -16 -40 -15
-19 -36 -56 -48 -82 l-21 -47 -6 40 c-4 22 -14 54 -23 72 -16 30 -15 34 9 104
14 41 28 77 31 82 9 14 20 -3 42 -62z m-90 -206 c3 -133 -75 -225 -246 -289
-126 -48 -185 -98 -251 -216 -35 -63 -72 -178 -72 -224 0 -17 -5 -38 -11 -46
-19 -27 0 99 27 182 56 172 156 274 331 340 147 54 196 116 199 253 1 44 3 82
4 85 5 12 18 -49 19 -85z m418 -322 c-21 -13 -41 -23 -44 -23 -5 0 7 81 14 93
2 4 19 -5 37 -20 l32 -28 -39 -22z m-527 -3 c0 -27 -3 -50 -7 -50 -5 0 -23 16
-42 35 l-34 34 34 15 c49 21 49 21 49 -34z m-69 -49 c26 -26 29 -36 29 -93 0
-35 -7 -99 -15 -143 -54 -281 -123 -395 -241 -395 -27 0 -44 8 -69 33 -44 44
-59 102 -52 202 10 142 72 282 159 360 78 71 142 83 189 36z m754 0 c146 -84
242 -413 162 -556 -45 -79 -134 -108 -204 -66 -121 74 -212 434 -148 587 29
70 105 84 190 35z m-679 -311 c-1 -77 -5 -92 -39 -160 -45 -88 -94 -150 -142
-180 -50 -31 -65 -20 -17 14 74 51 118 141 162 333 14 57 27 97 31 90 4 -6 6
-50 5 -97z m814 -347 c0 -11 -51 -33 -74 -33 -13 1 -6 6 17 15 21 7 41 16 44
19 8 8 13 8 13 -1z"/>
<path d="M1376 1528 c-22 -31 -20 -60 5 -92 55 -70 145 18 93 92 -10 15 -25
22 -49 22 -24 0 -39 -7 -49 -22z m74 -23 c11 -13 7 -15 -24 -15 -34 0 -44 8
-29 23 11 12 40 8 53 -8z m10 -44 c0 -13 -45 -25 -59 -16 -20 12 -11 21 24 23
19 2 35 -2 35 -7z"/>
</g>
</svg>
